<svg xmlns="http://www.w3.org/2000/svg" width="25" height="25" viewBox="0 0 25 25" fill="none">
  <g clip-path="url(#clip0_42_293)">
    <path d="M9.10854 13.7923C9.10854 13.4792 8.85452 13.2255 8.54109 13.2255H6.56091C6.24784 13.2255 5.99377 13.4792 5.99377 13.7923V15.7723C5.99377 16.0858 6.24784 16.3397 6.56091 16.3397H8.54109C8.85452 16.3397 9.10854 16.0858 9.10854 15.7723V13.7923Z" fill="#C22A5D"/>
    <path d="M14.0572 13.7923C14.0572 13.4792 13.8032 13.2255 13.4904 13.2255H11.5099C11.1969 13.2255 10.9428 13.4792 10.9428 13.7923V15.7723C10.9428 16.0858 11.1969 16.3397 11.5099 16.3397H13.4904C13.8032 16.3397 14.0572 16.0858 14.0572 15.7723V13.7923Z" fill="#C22A5D"/>
    <path d="M19.0062 13.7923C19.0062 13.4792 18.7521 13.2255 18.4391 13.2255H16.4589C16.1455 13.2255 15.8915 13.4792 15.8915 13.7923V15.7723C15.8915 16.0858 16.1455 16.3397 16.4589 16.3397H18.4391C18.7521 16.3397 19.0062 16.0858 19.0062 15.7723V13.7923Z" fill="#C22A5D"/>
    <path d="M9.10854 18.7416C9.10854 18.4279 8.85452 18.1744 8.54109 18.1744H6.56091C6.24784 18.1744 5.99377 18.4279 5.99377 18.7416V20.7212C5.99377 21.0346 6.24784 21.2883 6.56091 21.2883H8.54109C8.85452 21.2883 9.10854 21.0345 9.10854 20.7212V18.7416Z" fill="#C22A5D"/>
    <path d="M14.0572 18.7416C14.0572 18.4279 13.8032 18.1744 13.4904 18.1744H11.5099C11.1969 18.1744 10.9428 18.4279 10.9428 18.7416V20.7212C10.9428 21.0346 11.1969 21.2883 11.5099 21.2883H13.4904C13.8032 21.2883 14.0572 21.0345 14.0572 20.7212V18.7416Z" fill="#C22A5D"/>
    <path d="M19.0062 18.7416C19.0062 18.4279 18.7521 18.1744 18.4393 18.1744H16.4589C16.1455 18.1744 15.8915 18.4279 15.8915 18.7416V20.7212C15.8915 21.0346 16.1455 21.2883 16.4589 21.2883H18.4393C18.7521 21.2883 19.0062 21.0345 19.0062 20.7212V18.7416Z" fill="#C22A5D"/>
    <path d="M22.547 2.78368V5.80785C22.547 7.17474 21.4381 8.27624 20.0714 8.27624H18.5098C17.143 8.27624 16.0194 7.17474 16.0194 5.80785V2.77283H8.98061V5.80785C8.98061 7.17474 7.85708 8.27624 6.4905 8.27624H4.92854C3.5619 8.27624 2.45308 7.17474 2.45308 5.80785V2.78368C1.25862 2.81969 0.277115 3.80806 0.277115 5.0229V22.7459C0.277115 23.9836 1.28029 25.0001 2.51796 25.0001H22.482C23.7179 25.0001 24.7229 23.9815 24.7229 22.7459V5.0229C24.7229 3.80806 23.7414 2.81969 22.547 2.78368ZM21.8216 21.6423C21.8216 22.1772 21.388 22.6111 20.8529 22.6111H4.10446C3.56938 22.6111 3.1357 22.1772 3.1357 21.6423V12.4877C3.1357 11.9526 3.56933 11.5187 4.10446 11.5187H20.8528C21.3879 11.5187 21.8216 11.9526 21.8216 12.4877L21.8216 21.6423Z" fill="#C22A5D"/>
    <path d="M4.92305 6.65495H6.46775C6.93661 6.65495 7.31677 6.27535 7.31677 5.80649V0.848762C7.31677 0.379851 6.93661 0 6.46775 0H4.92305C4.45414 0 4.07404 0.379851 4.07404 0.848762V5.80649C4.07404 6.27535 4.45414 6.65495 4.92305 6.65495Z" fill="#C22A5D"/>
    <path d="M18.4899 6.65495H20.0346C20.5031 6.65495 20.8833 6.27535 20.8833 5.80649V0.848762C20.8833 0.379851 20.5032 0 20.0346 0H18.4899C18.0211 0 17.6409 0.379851 17.6409 0.848762V5.80649C17.6409 6.27535 18.0211 6.65495 18.4899 6.65495Z" fill="#C22A5D"/>
  </g>
  <defs>
    <clipPath id="clip0_42_293">
      <rect width="25" height="25" fill="white"/>
    </clipPath>
  </defs>
</svg>