<svg width="64" height="64" viewBox="0 0 64 64" fill="none" xmlns="http://www.w3.org/2000/svg">
<path d="M51.3743 18.4768C51.2833 18.4768 51.1905 18.4568 51.103 18.4143C50.792 18.2643 50.6618 17.8905 50.812 17.5798C51.2425 16.6888 51.3452 15.9895 51.1175 15.5018C50.9715 15.189 51.1068 14.817 51.4198 14.671C51.7325 14.5245 52.104 14.6605 52.2503 14.973C52.6443 15.8178 52.539 16.8778 51.9375 18.1235C51.8298 18.3468 51.6068 18.4768 51.3743 18.4768Z" fill="#003A4E"/>
<path d="M20.7948 33.3508C20.5593 33.3508 20.3338 33.2173 20.2278 32.9898C20.0818 32.677 20.2173 32.305 20.53 32.1593L48.1843 19.2638C48.4975 19.1175 48.869 19.253 49.0148 19.566C49.1608 19.8788 49.0253 20.2508 48.7125 20.3965L21.0583 33.292C20.973 33.332 20.883 33.3508 20.7948 33.3508Z" fill="#003A4E"/>
<path d="M58.3445 16.0883C57.8063 14.9335 56.6805 14.1933 55.407 14.156L54.626 14.1333C51.508 14.041 48.3235 14.7118 45.4103 16.0708L17.6958 28.9938L8.4955 26.2245C8.3485 26.1803 8.1905 26.1918 8.05125 26.2568L3.7495 28.2628C3.53825 28.3613 3.3995 28.569 3.38925 28.8018C3.37925 29.0348 3.49925 29.2538 3.701 29.3705L18.7165 38.0488C20.257 38.9388 22.1385 39.0218 23.7503 38.2698L32.875 34.0148L33.0588 48.5878C33.0648 49.0678 33.333 49.504 33.7585 49.7263C33.9485 49.8255 34.1558 49.8745 34.362 49.8745C34.6178 49.8745 34.8728 49.799 35.0928 49.65C37.4355 48.0628 39.0395 45.662 39.6093 42.8903L42.3408 29.6005L50.0443 26.0083C52.958 24.6498 55.5195 22.639 57.452 20.194L57.9368 19.5808C58.7268 18.5813 58.883 17.243 58.3445 16.0883ZM56.956 18.8055L56.4715 19.4188C54.6593 21.7118 52.254 23.5988 49.516 24.8755L41.5278 28.6005C41.3485 28.684 41.2195 28.8475 41.1795 29.041L38.3845 42.6385C37.8808 45.0893 36.4625 47.2118 34.3913 48.6153C34.382 48.6215 34.365 48.633 34.337 48.6183C34.3088 48.6035 34.3085 48.583 34.3085 48.5718L34.1125 33.0313C34.1098 32.819 33.9998 32.6228 33.82 32.51C33.7188 32.4465 33.6035 32.4143 33.4875 32.4143C33.3978 32.4143 33.3073 32.4338 33.2233 32.4728L23.2215 37.1368C21.9795 37.716 20.529 37.6525 19.3415 36.9663L5.365 28.8885L8.36325 27.4903L17.5635 30.2595C17.7103 30.3035 17.8685 30.2923 18.0078 30.2275L45.9383 17.2035C48.676 15.9268 51.6685 15.2978 54.5893 15.3828L55.3703 15.4055C56.1805 15.4293 56.869 15.882 57.2115 16.6168C57.5543 17.3513 57.4588 18.1695 56.956 18.8055Z" fill="#003A4E"/>
<path d="M20.93 17.3213L26.791 21.8593C26.9048 21.9475 27.0395 21.99 27.173 21.99C27.3598 21.99 27.5445 21.9068 27.6678 21.7478C27.8793 21.4748 27.8293 21.0823 27.5563 20.871L21.695 16.3328C21.6875 16.3268 21.6713 16.3145 21.6748 16.2848C21.6783 16.2548 21.6968 16.2465 21.7055 16.2425C23.5468 15.4035 25.609 15.319 27.5128 16.005L34.3973 18.4858C34.7225 18.6028 35.08 18.4343 35.197 18.1098C35.3143 17.785 35.1458 17.427 34.821 17.3098L27.9365 14.829C25.7238 14.0318 23.327 14.1298 21.1868 15.105C20.7678 15.296 20.486 15.6833 20.4328 16.1405C20.38 16.598 20.566 17.0395 20.93 17.3213Z" fill="#003A4E"/>
<path d="M51.9918 43.488C47.7903 43.488 44.3723 40.07 44.3723 35.8688C44.3723 31.6675 47.7903 28.2495 51.9918 28.2495C56.193 28.2495 59.611 31.6675 59.611 35.8688C59.6108 40.07 56.193 43.488 51.9918 43.488ZM51.9918 29.4995C48.4795 29.4995 45.6223 32.3568 45.6223 35.8688C45.6223 39.3808 48.4795 42.238 51.9918 42.238C55.5038 42.238 58.361 39.3808 58.361 35.8688C58.3608 32.3568 55.5038 29.4995 51.9918 29.4995Z" fill="#003A4E"/>
<path d="M54.9163 37.6253C54.8413 37.6253 54.765 37.6118 54.691 37.583L51.7663 36.4518C51.5255 36.3585 51.3668 36.127 51.3668 35.8688V31.5C51.3668 31.1548 51.6465 30.875 51.9918 30.875C52.337 30.875 52.6168 31.1548 52.6168 31.5V35.4403L55.1423 36.417C55.464 36.5415 55.6243 36.9035 55.4998 37.2253C55.4035 37.4733 55.167 37.6253 54.9163 37.6253Z" fill="#003A4E"/>
</svg>
