<?xml version="1.0" encoding="utf-8"?>
<!-- Generator: Adobe Illustrator 27.9.0, SVG Export Plug-In . SVG Version: 6.00 Build 0)  -->
<svg version="1.1" id="Layer_1" xmlns="http://www.w3.org/2000/svg" xmlns:xlink="http://www.w3.org/1999/xlink" x="0px" y="0px"
	 viewBox="0 0 158 50" style="enable-background:new 0 0 158 50;" xml:space="preserve">
<style type="text/css">
	.st0{fill:#BD8839;}
</style>
<g>
	<g>
		<path class="st0" d="M26.4,35.7c0.7,0.6,1.5,0.9,2.3,0.9c1,0,1.8-0.6,1.8-1.5c0-0.2,0-0.4-0.1-0.6c-0.2-0.3-0.3-0.5-1-0.9
			l-0.6-0.4L28.5,33l-0.8-0.5c-0.8-0.5-1.3-1.2-1.3-2c0-1.4,1.2-2.3,2.9-2.3c0.4,0,0.9,0,1.4,0.2l0.4,0.1c0.1,0,0.2,0,0.4,0l0.1,1
			c-0.8-0.5-1.4-0.8-2.1-0.8c-0.9,0-1.6,0.6-1.6,1.4c0,0.2,0.1,0.4,0.2,0.6c0.2,0.4,0.6,0.7,1.6,1.2c0.4,0.2,0.7,0.4,0.9,0.5
			c0.3,0.1,0.5,0.3,0.7,0.5c0.4,0.4,0.7,0.9,0.7,1.5c0,1.5-1.4,2.6-3.2,2.6c-0.7,0-1.3-0.2-2.3-0.6L26.4,35.7z"/>
		<path class="st0" d="M34.2,28.4v5.1l0.2-0.2c0.3-0.3,0.5-0.4,0.6-0.6c0.4-0.4,0.6-0.7,0.7-0.9c0.1-0.2,0.2-0.5,0.2-0.6
			c0,0,0-0.1,0-0.1h1.7c-0.2,0.2-0.3,0.2-0.6,0.5l-0.4,0.4c-0.3,0.3-0.9,0.9-1.3,1.3l-0.1,0.1l1.8,2.4c0.3,0.4,0.5,0.7,0.7,0.9
			c0.1,0.1,0.3,0.2,0.5,0.4h-1.8l-2.2-3.1v1.7v0.1c0,0.1,0,0.3,0,0.4c0,0.4,0,0.5,0.1,0.8h-1.4c0-0.2,0.1-0.3,0.1-0.4l0-0.4l0-0.4
			v-0.2v-5.9l0-0.2v-0.1v-0.3c0-0.3,0-0.5-0.1-0.8H34.2z"/>
		<path class="st0" d="M43.2,30.9c-0.2,0.2-0.2,0.3-0.4,0.7l-2.6,5.8c-0.6,1.4-1.5,2.1-2.5,2.1c-0.6,0-0.9-0.2-0.9-0.6
			c0-0.3,0.3-0.6,0.6-0.6c0.1,0,0.2,0,0.3,0.1l0.3,0.1c0.1,0,0.2,0,0.3,0c0.3,0,0.5-0.1,0.7-0.3c0.3-0.3,0.5-0.6,0.7-1.2
			c0.1-0.2,0.1-0.4,0.1-0.6c0-0.2,0-0.4-0.1-0.6l-1.8-4.3c-0.2-0.4-0.3-0.6-0.6-0.8h1.8c0,0.1,0,0.1,0,0.1c0,0.2,0,0.4,0.1,0.6
			l1.4,3.5l1.4-3.3c0.1-0.2,0.1-0.4,0.1-0.5c0-0.1,0-0.2-0.1-0.4H43.2z"/>
		<path class="st0" d="M43.1,31.5v-0.5h0.7v-1.4l1.2-0.4l0,1.7h1l0,0.5h-1v3.8v0.1v0.2c0,0.1,0,0.2,0,0.3c0,0.3,0.3,0.5,0.6,0.5
			c0.2,0,0.4-0.1,0.6-0.3l0,0.7c-0.3,0.2-0.8,0.4-1.2,0.4c-0.8,0-1.2-0.4-1.2-1.2v0l0-0.6v-3.9H43.1z"/>
		<path class="st0" d="M46.8,37c0.1-0.3,0.1-0.5,0.1-0.8l0-0.4v-0.2v-3.3v-0.2l0-0.4c0-0.2,0-0.3,0-0.4c0-0.1,0-0.2-0.1-0.4h1.3v0.9
			c0.4-0.6,1-1.1,1.5-1.1h0.1c-0.1,0.3-0.1,0.4-0.1,0.7c0,0.3,0,0.4-0.1,0.8c-0.3-0.2-0.5-0.3-0.7-0.3c-0.4,0-0.7,0.5-0.7,1.3v2.4
			v0.1v0.1c0,0.1,0,0.2,0,0.4c0,0.2,0,0.3,0,0.3c0,0.2,0,0.3,0.1,0.5H46.8z"/>
		<path class="st0" d="M53.1,36.2c-0.4,0.6-1,0.9-1.7,0.9c-0.9,0-1.5-0.6-1.5-1.4c0-0.6,0.4-1.1,1.2-1.5l0.8-0.4
			c0.5-0.3,0.9-0.5,1-0.7c0.1-0.1,0.1-0.3,0.1-0.6c0-0.3,0-0.6,0-0.8c-0.1-0.4-0.4-0.6-0.9-0.6c-0.4,0-0.8,0.2-0.8,0.5l-0.1,0.4
			c-0.1,0.3-0.3,0.5-0.6,0.5c-0.3,0-0.6-0.2-0.6-0.5c0-0.7,1.1-1.3,2.3-1.3c0.5,0,0.9,0.1,1.3,0.2c0.5,0.2,0.7,0.5,0.7,1.3v0.1v0.3
			v2.9v0v0.1c0,0,0,0.2,0,0.4c0,0.4,0,0.5,0.1,0.8h-1.3L53.1,36.2z M53.1,33.6c-0.3,0.2-0.5,0.3-0.9,0.6c-0.6,0.3-0.8,0.5-0.9,0.8
			c-0.1,0.2-0.1,0.4-0.1,0.5c0,0.5,0.3,0.9,0.8,0.9c0.4,0,0.8-0.2,1-0.6c0.1-0.2,0.1-0.2,0.1-0.6V33.6z"/>
		<path class="st0" d="M56.8,30.9l1.3,2.1l0.5-0.7l0.1-0.1c0.2-0.4,0.4-0.7,0.4-0.9c0-0.1,0-0.2-0.1-0.3h1.4
			c-0.3,0.3-0.4,0.4-0.7,0.8c-0.2,0.2-0.3,0.4-0.4,0.6l-0.8,1.2l1.7,2.4c0.2,0.3,0.4,0.6,0.6,0.8c0.1,0.1,0.2,0.2,0.5,0.3h-1.9
			l-1.7-2.6l-0.8,1.2l0,0.1l-0.1,0.1c-0.2,0.4-0.3,0.6-0.3,0.9c0,0.1,0,0.2,0.2,0.4H55c0.2-0.2,0.3-0.3,0.5-0.4
			c0.2-0.2,0.5-0.6,0.6-0.8l0.1-0.1l1.1-1.7l-1.6-2.2c-0.3-0.4-0.5-0.6-0.8-0.8H56.8z"/>
		<path class="st0" d="M66.5,28.4v0.2c0,0.2,0,0.3,0,0.4c0,0.1,0,0.2,0.1,0.5l0.1,0.5c0,0,0,0.1,0,0.2c0.1,0.4,0.2,0.9,0.4,1.7
			c0.2,0.7,0.3,1.2,0.4,1.5l0.3,1.5l0.1,0.6l1.3-4.6c0.3-0.9,0.3-1.2,0.3-1.6c0-0.1,0-0.2,0-0.5c0-0.3-0.1-0.3-0.1-0.5h1.7
			c-0.1,0.1-0.1,0.2-0.1,0.4c0,0.5,0,0.6,0.2,1.3l0.2,0.7l0,0.1l1.4,4.6l0.1-0.5l0.1-0.4c0.2-0.6,0.3-1.3,0.5-2
			c0.4-1.5,0.6-2.3,0.7-2.6c0.1-0.4,0.1-0.7,0.1-1c0-0.2,0-0.4-0.2-0.7h1.2c-0.1,0.3-0.1,0.4-0.2,0.6c0,0.1-0.1,0.2-0.2,0.5L75,30
			l0,0.2l-0.7,2.7l-0.6,2.4c-0.1,0.4-0.2,0.9-0.4,1.8H72l-0.8-2.9l-1-3.5l-0.5,1.7c-0.1,0.4-0.3,1-0.5,1.7c-0.2,0.6-0.3,1.1-0.4,1.5
			L68.3,37H67c-0.1-0.6-0.2-0.9-0.3-1.3c-0.3-1.3-0.9-4-1.3-5.5c-0.1-0.3-0.1-0.4-0.2-0.7c-0.2-0.5-0.2-0.7-0.4-1.1H66.5z"/>
		<path class="st0" d="M75.4,34c0-1.9,1.2-3.2,2.9-3.2c1.8,0,2.8,1.2,2.8,3.1c0,1.9-1.2,3.3-2.9,3.3c-1.6,0-2.7-1.1-2.8-2.8
			C75.4,34.2,75.4,34.1,75.4,34z M76.7,33.3c0,0.1,0,0.2,0,0.3c0,1.8,0.7,3,1.6,3c0.9,0,1.4-0.9,1.4-2.5c0-1.7-0.6-2.8-1.6-2.8
			C77.3,31.3,76.8,32,76.7,33.3z"/>
		<path class="st0" d="M82.2,37c0.1-0.3,0.1-0.5,0.1-0.8l0-0.4v-0.2v-3.3v-0.2l0-0.4c0-0.2,0-0.3,0-0.4c0-0.1,0-0.2-0.1-0.4h1.3v0.9
			c0.4-0.6,1-1.1,1.5-1.1h0.1c-0.1,0.3-0.1,0.4-0.1,0.7c0,0.3,0,0.4-0.1,0.8c-0.3-0.2-0.5-0.3-0.7-0.3c-0.4,0-0.7,0.5-0.7,1.3v2.4
			v0.1v0.1c0,0.1,0,0.2,0,0.4c0,0.2,0,0.3,0,0.3c0,0.2,0,0.3,0.1,0.5H82.2z"/>
		<path class="st0" d="M86.9,28.4v7.3c0,0.1,0,0.2,0,0.6c0,0.3,0,0.3,0,0.4c0,0.1,0,0.2,0.1,0.4h-1.4c0-0.2,0.1-0.3,0.1-0.4
			c0,0,0-0.2,0-0.4c0-0.2,0-0.3,0-0.4v-0.2v-5.9v-0.2v0v-0.3c0-0.4,0-0.5-0.1-0.8H86.9z"/>
		<path class="st0" d="M92,29.7v-0.1l0-0.4v-0.4c0-0.1,0-0.2,0-0.4h1.2v7.3c0,0,0,0.1,0,0.2v0.4c0,0.4,0,0.5,0.1,0.8H92v-0.9
			c-0.4,0.7-0.9,1-1.6,1c-1.3,0-2.2-1.2-2.2-3c0-2,1.1-3.3,2.7-3.3c0.4,0,0.7,0.1,1.2,0.3V29.7z M89.5,33.8l0,0.1
			c-0.1,1.5,0.5,2.3,1.4,2.3c0.4,0,0.8-0.3,1-0.6c0.2-0.3,0.2-0.6,0.2-1.2v-0.1v-1.1v-0.4c0-0.7,0-0.9-0.2-1.1
			c-0.2-0.3-0.5-0.4-0.9-0.4C90,31.3,89.6,32.2,89.5,33.8z"/>
		<path class="st0" d="M97.3,37c0.3-0.4,0.3-0.5,0.6-1.1c0.2-0.4,0.2-0.5,0.3-0.7l0.5-1.1c0.6-1.4,1.1-2.9,1.5-3.8
			c0.3-0.7,0.3-1,0.3-1.3c0-0.2,0-0.4-0.1-0.6h1.5l1.5,3.4l0.4,0.9c0.6,1.4,0.9,2.1,1,2.3c0.4,0.8,0.6,1.3,1.1,2h-1.9
			c0-0.3-0.1-0.4-0.1-0.5c-0.1-0.2-0.2-0.7-0.4-1.1l0-0.1l0-0.1l-0.9-2h-2.7l-0.7,2c-0.2,0.6-0.4,1.1-0.4,1.4c0,0.1,0,0.2,0,0.4
			H97.3z M100.9,29.7l-1.1,3h2.3L100.9,29.7z"/>
		<path class="st0" d="M106.6,28.7c0.4,0,0.8,0.3,0.8,0.8c0,0.4-0.3,0.7-0.8,0.7c-0.4,0-0.8-0.3-0.8-0.8
			C105.8,29,106.2,28.7,106.6,28.7z M105.9,37c0-0.2,0-0.3,0.1-0.4c0-0.1,0-0.2,0-0.4v-0.4v-0.1v-3.3v-0.2v-0.4l0-0.4
			c0-0.1,0-0.2-0.1-0.4h1.3v4.7v0.1v0v0v0.3c0,0.5,0,0.5,0.1,0.8H105.9z"/>
		<path class="st0" d="M108.5,37c0.1-0.3,0.1-0.5,0.1-0.8l0-0.4v-0.2v-3.3v-0.2l0-0.4c0-0.2,0-0.3,0-0.4c0-0.1,0-0.2-0.1-0.4h1.3
			v0.9c0.4-0.6,1-1.1,1.5-1.1h0.1c-0.1,0.3-0.1,0.4-0.1,0.7c0,0.3,0,0.4-0.1,0.8c-0.3-0.2-0.5-0.3-0.7-0.3c-0.4,0-0.7,0.5-0.7,1.3
			v2.4v0.1v0.1c0,0.1,0,0.2,0,0.4c0,0.2,0,0.3,0,0.3c0,0.2,0,0.3,0.1,0.5H108.5z"/>
		<path class="st0" d="M113.2,28.4v7.3c0,0.1,0,0.2,0,0.6c0,0.3,0,0.3,0,0.4c0,0.1,0,0.2,0.1,0.4h-1.4c0-0.2,0.1-0.3,0.1-0.4
			c0,0,0-0.2,0-0.4c0-0.2,0-0.3,0-0.4v-0.2v-5.9v-0.2v0v-0.3c0-0.4,0-0.5-0.1-0.8H113.2z"/>
		<path class="st0" d="M115.3,28.7c0.4,0,0.8,0.3,0.8,0.8c0,0.4-0.3,0.7-0.8,0.7c-0.4,0-0.8-0.3-0.8-0.8
			C114.5,29,114.8,28.7,115.3,28.7z M114.5,37c0-0.2,0-0.3,0.1-0.4c0-0.1,0-0.2,0-0.4v-0.4v-0.1v-3.3v-0.2v-0.4l0-0.4
			c0-0.1,0-0.2-0.1-0.4h1.3v4.7v0.1v0v0v0.3c0,0.5,0,0.5,0.1,0.8H114.5z"/>
		<path class="st0" d="M117.2,37c0.1-0.3,0.1-0.4,0.1-0.8c0-0.2,0-0.4,0-0.4v-0.2v-3.3v-0.2c0-0.1,0-0.2,0-0.4v-0.4
			c0-0.1,0-0.2,0-0.4h1.3v0.7c0.5-0.6,1.2-0.9,1.9-0.9c0.6,0,1.1,0.2,1.4,0.6c0.3,0.3,0.3,0.6,0.3,1.4c0,0.2,0,0.4,0,0.6
			c0,0.2,0,0.6,0,1.3v0.9v0.1c0,0,0,0.2,0,0.5c0,0.5,0,0.5,0.1,0.8h-1.3v-1.3v-1v-1.2c0-0.6,0-0.9,0-1s0-0.1,0-0.2
			c-0.1-0.4-0.5-0.6-1-0.6c-0.4,0-0.8,0.2-1.1,0.5c-0.3,0.3-0.3,0.4-0.3,1.4v1.3v0.3v0.5v0.1v0.1v0.3c0,0.4,0,0.5,0.1,0.8H117.2z"/>
		<path class="st0" d="M128,36.2c-0.6,0.6-1.3,0.9-2,0.9c-1.6,0-2.7-1.2-2.7-3c0-1.9,1.1-3.2,2.7-3.2c1.2,0,2.2,1,2.2,2
			c0,0.2-0.1,0.3-0.4,0.3h-0.3h-2.9c0,0.3-0.1,0.5-0.1,0.7c0,1.5,0.6,2.4,1.8,2.4c0.6,0,1.3-0.3,1.8-0.8L128,36.2z M124.7,32.7h1.5
			c0.5,0,0.7-0.1,0.7-0.5c0-0.5-0.4-0.9-0.9-0.9C125.4,31.3,124.9,31.8,124.7,32.7z"/>
		<path class="st0" d="M45.5,48c0.3-0.4,0.3-0.5,0.6-1.1c0.2-0.4,0.2-0.5,0.3-0.7l0.5-1.1c0.6-1.4,1.1-2.9,1.5-3.8
			c0.3-0.7,0.3-1,0.3-1.3c0-0.2,0-0.4-0.1-0.6h1.5l1.5,3.4l0.4,0.9c0.6,1.4,0.9,2.1,1,2.3c0.4,0.8,0.6,1.3,1.1,2H52
			c0-0.3-0.1-0.4-0.1-0.5c-0.1-0.2-0.2-0.7-0.4-1.1l0-0.1l0-0.1l-0.9-2h-2.7l-0.7,2c-0.2,0.6-0.4,1.1-0.4,1.4c0,0.1,0,0.2,0,0.4
			H45.5z M49.1,40.7l-1.1,3h2.3L49.1,40.7z"/>
		<path class="st0" d="M54.6,41.9c0,0.2,0,0.3,0.1,0.4c0,0,0,0,0,0c0,0,0,0.1,0.1,0.4l0.1,0.4l0,0.1l1,3.4l1-3.4
			c0-0.6-0.1-0.9-0.3-1.3l0,0h1.7c-0.1,0.1-0.1,0.3-0.1,0.5c0,0.2,0,0.3,0.1,0.7l1,3.6l1-3.4l0-0.1l0,0c0-0.1,0.1-0.2,0.1-0.4
			c0-0.2,0.1-0.4,0.1-0.5c0-0.1,0-0.2,0-0.4h1c-0.1,0.2-0.2,0.3-0.2,0.4c0,0.1-0.1,0.2-0.2,0.4c-0.1,0.2-0.1,0.3-0.1,0.4l0,0.1
			l0,0.1L59.5,48h-1.1l-1.2-4.2L56.1,48h-1.1l-1.3-4.7l0-0.1c0-0.1,0-0.1-0.1-0.4c-0.1-0.4-0.2-0.5-0.3-0.8H54.6z"/>
		<path class="st0" d="M64.9,47.2c-0.4,0.6-1,0.9-1.7,0.9c-0.9,0-1.5-0.6-1.5-1.4c0-0.6,0.4-1.1,1.2-1.5l0.8-0.4
			c0.5-0.3,0.9-0.5,1-0.7c0.1-0.1,0.1-0.3,0.1-0.6c0-0.3,0-0.6,0-0.8c-0.1-0.4-0.4-0.6-0.9-0.6c-0.4,0-0.8,0.2-0.8,0.5L63,43.2
			c-0.1,0.3-0.3,0.5-0.6,0.5c-0.3,0-0.6-0.2-0.6-0.5c0-0.7,1.1-1.3,2.3-1.3c0.5,0,0.9,0.1,1.3,0.2c0.5,0.2,0.7,0.5,0.7,1.3v0.1v0.3
			v2.9v0v0.1c0,0,0,0.2,0,0.4c0,0.4,0,0.5,0.1,0.8h-1.3L64.9,47.2z M64.9,44.6c-0.3,0.2-0.5,0.3-0.9,0.6c-0.6,0.3-0.8,0.5-0.9,0.8
			c-0.1,0.2-0.1,0.4-0.1,0.5c0,0.5,0.3,0.9,0.8,0.9c0.4,0,0.8-0.2,1-0.6c0.1-0.2,0.1-0.2,0.1-0.6V44.6z"/>
		<path class="st0" d="M67.4,48c0.1-0.3,0.1-0.5,0.1-0.8l0-0.4v-0.2v-3.3v-0.2l0-0.4c0-0.2,0-0.3,0-0.4c0-0.1,0-0.2-0.1-0.4h1.3v0.9
			c0.4-0.6,1-1.1,1.5-1.1h0.1c-0.1,0.3-0.1,0.4-0.1,0.7c0,0.3,0,0.4-0.1,0.8c-0.3-0.2-0.5-0.3-0.7-0.3c-0.4,0-0.7,0.5-0.7,1.3v2.4
			v0.1v0.1c0,0.1,0,0.2,0,0.4c0,0.2,0,0.3,0,0.3c0,0.2,0,0.3,0.1,0.5H67.4z"/>
		<path class="st0" d="M74.4,40.7v-0.1l0-0.4v-0.4c0-0.1,0-0.2,0-0.4h1.2v7.3c0,0,0,0.1,0,0.2v0.4c0,0.4,0,0.5,0.1,0.8h-1.3v-0.9
			c-0.4,0.7-0.9,1-1.6,1c-1.3,0-2.2-1.2-2.2-3c0-2,1.1-3.3,2.7-3.3c0.4,0,0.7,0.1,1.2,0.3V40.7z M71.8,44.8l0,0.1
			c-0.1,1.5,0.5,2.3,1.4,2.3c0.4,0,0.8-0.3,1-0.6c0.2-0.3,0.2-0.6,0.2-1.2v-0.1v-1.1v-0.4c0-0.7,0-0.9-0.2-1.1
			c-0.2-0.3-0.5-0.4-0.9-0.4C72.3,42.3,71.9,43.2,71.8,44.8z"/>
		<path class="st0" d="M76.6,46.9c0.2,0.1,0.2,0.2,0.4,0.3c0.4,0.3,1.1,0.5,1.5,0.5c0.6,0,1-0.4,1-0.9c0-0.2,0-0.3-0.1-0.5
			c-0.1-0.1-0.1-0.2-0.3-0.3c-0.2-0.2-0.3-0.3-1-0.7c-1.1-0.6-1.4-1.1-1.4-1.8c0-1,0.9-1.7,2.1-1.7c0.3,0,0.4,0,0.9,0.1
			c0.3,0,0.4,0.1,0.5,0.1c0.1,0,0.1,0,0.2,0l0.2,0.9c-0.5-0.3-1.2-0.6-1.6-0.6c-0.5,0-0.9,0.3-0.9,0.8c0,0.4,0.3,0.8,1.2,1.3
			c0.8,0.4,0.9,0.5,1.1,0.8c0.3,0.3,0.4,0.7,0.4,1.1c0,1.1-0.9,1.9-2.4,1.9c-0.5,0-1-0.1-1.6-0.3L76.6,46.9z"/>
		<path class="st0" d="M85,48c0.1-0.2,0.2-0.3,0.3-0.4c0.5-0.6,1-1.2,1.4-1.6c0.9-1.2,1.7-2.3,2.1-3c0.3-0.5,0.4-1,0.4-1.4
			c0-0.9-0.5-1.5-1.4-1.5c-0.7,0-1.3,0.3-1.9,1l0.1-1.2c0.7-0.4,1.5-0.7,2.3-0.7c1.4,0,2.3,0.8,2.3,2c0,0.6-0.2,1.2-0.8,2
			c-0.3,0.5-0.7,1-1.1,1.5c-0.5,0.6-1.1,1.3-1.5,1.8L86.8,47h2.4c0.8,0,1.3-0.2,1.8-0.6L90.6,48H85z"/>
		<path class="st0" d="M95.1,39.2c1.2,0,2,0.6,2.5,1.6c0.3,0.7,0.4,1.5,0.4,2.7c0,0.6,0,1.2-0.1,1.8c-0.3,1.8-1.3,2.9-2.9,2.9
			c-1.1,0-2-0.6-2.5-1.5C92.2,46,92,45.1,92,43.9C92,40.8,93,39.2,95.1,39.2z M93.4,43.7l0,0.1c0,2.6,0.5,3.8,1.6,3.8
			c1.1,0,1.6-1.2,1.6-4c0-2.7-0.4-3.9-1.5-3.9c-0.7,0-1.2,0.5-1.4,1.5C93.5,41.9,93.4,42.8,93.4,43.7z"/>
		<path class="st0" d="M98.8,48c0.1-0.2,0.2-0.3,0.3-0.4c0.5-0.6,1-1.2,1.4-1.6c0.9-1.2,1.7-2.3,2.1-3c0.3-0.5,0.4-1,0.4-1.4
			c0-0.9-0.5-1.5-1.4-1.5c-0.7,0-1.3,0.3-1.9,1l0.1-1.2c0.7-0.4,1.5-0.7,2.3-0.7c1.4,0,2.3,0.8,2.3,2c0,0.6-0.2,1.2-0.8,2
			c-0.3,0.5-0.7,1-1.1,1.5c-0.5,0.6-1.1,1.3-1.5,1.8l-0.3,0.4h2.4c0.8,0,1.3-0.2,1.8-0.6l-0.4,1.7H98.8z"/>
		<path class="st0" d="M106.1,46.5c0.2,0.2,0.3,0.3,0.5,0.4c0.5,0.3,1,0.4,1.4,0.4c1,0,1.8-0.8,1.8-1.8c0-1.2-0.7-1.8-2.3-2.2
			c1.3-0.4,1.9-1.1,1.9-2c0-0.7-0.5-1.2-1.2-1.2c-0.4,0-0.8,0.1-1.4,0.5l0.3-0.9c0.6-0.3,1.2-0.4,1.8-0.4c1.2,0,1.9,0.6,1.9,1.6
			c0,0.5-0.3,1.1-0.7,1.6c-0.1,0.1-0.3,0.3-0.5,0.4c-0.2,0.1-0.3,0.2-0.6,0.4c1.5,0.4,2.3,1.3,2.3,2.4c0,1.5-1.2,2.6-2.8,2.6
			c-0.7,0-1.5-0.2-2-0.6L106.1,46.5z"/>
	</g>
</g>
<g>
	<g>
		<path class="st0" d="M34.8,0.8V1c0,0.2,0,0.4,0,0.5c0,0.1,0.1,0.2,0.2,0.6l0.1,0.6c0,0.1,0,0.1,0.1,0.2c0.1,0.4,0.3,1.1,0.5,2
			c0.2,0.8,0.3,1.4,0.4,1.8l0.4,1.8l0.2,0.7l1.5-5.4c0.3-1.1,0.4-1.4,0.4-1.8c0-0.1,0-0.3-0.1-0.6c-0.1-0.3-0.1-0.4-0.2-0.6h2
			C40.3,1,40.3,1,40.3,1.3c0,0.6,0,0.7,0.2,1.5l0.2,0.8l0,0.2l1.6,5.4l0.1-0.5l0.1-0.4c0.2-0.7,0.4-1.5,0.6-2.4
			C43.7,4,43.9,3.1,44,2.7c0.1-0.4,0.2-0.8,0.2-1.1c0-0.3,0-0.4-0.2-0.8h1.4c-0.1,0.3-0.2,0.5-0.2,0.7c0,0.1-0.1,0.2-0.2,0.6
			l-0.2,0.6l-0.1,0.2L44,6.1l-0.7,2.8c-0.1,0.4-0.2,1-0.5,2h-1.5l-1-3.4l-1.2-4.1l-0.6,2c-0.1,0.5-0.3,1.1-0.6,2
			c-0.2,0.7-0.4,1.3-0.5,1.7l-0.5,1.7h-1.6c-0.1-0.7-0.2-1-0.3-1.5C34.7,7.8,34,4.8,33.5,3c-0.1-0.3-0.1-0.5-0.2-0.8
			c-0.2-0.6-0.3-0.8-0.5-1.3H34.8z"/>
		<path class="st0" d="M50.7,0.7c2.8,0,4.8,2.1,4.8,5.1c0,3-2.1,5.2-4.9,5.2C49,11,48,10.5,47,9.4c-0.9-1-1.2-2.1-1.2-3.5
			C45.8,2.9,47.8,0.7,50.7,0.7z M47.6,5.9c0,2.7,1.2,4.5,3,4.5c1.8,0,3-1.7,3-4.4c0-2.8-1.1-4.6-3-4.6C48.7,1.3,47.6,3,47.6,5.9z"/>
		<path class="st0" d="M58.3,0.8c0.2,0,0.6,0,1.1-0.1c0.6-0.1,0.9-0.1,1.1-0.1c1.7,0,2.7,0.9,2.7,2.3s-1,2.4-2.6,2.9l2.4,3
			c0.2,0.3,0.5,0.6,0.7,0.8c0.3,0.3,0.7,0.6,1,0.9c0.2,0.2,0.4,0.2,0.7,0.4h-1.2c-0.9,0-1.1,0-1.4-0.2c-0.3-0.1-0.7-0.6-1-1l-2-2.5
			l-0.4-0.5c-0.2-0.3-0.4-0.4-0.8-0.7v2.7V9v0.3v0.3c0,0.5,0,0.8,0.2,1.3h-2c0.1-0.3,0.1-0.4,0.1-0.6c0-0.2,0-0.8,0-1.2V9V8.8V2.9
			V2.7c0-0.1,0-0.2,0-0.4c0-0.5,0-0.6,0-0.9c0-0.2-0.1-0.3-0.2-0.7H58.3z M58.6,5.5c0.2,0,0.3,0,0.4,0c1.5,0,2.5-0.9,2.5-2.3
			c0-1.1-0.7-1.8-1.8-1.8c-0.3,0-0.7,0-1.1,0.1V5.5z"/>
		<path class="st0" d="M65.2,10.9c0.1-0.5,0.2-0.9,0.2-1.5V2.3c0-0.2,0-0.4,0-0.7c0-0.4,0-0.5-0.1-0.8h1.9C67.1,1.2,67,1.7,67,2.1v8
			h1.7c0.8,0,1.6-0.1,2.4-0.4l-0.5,1.1H65.2z"/>
		<path class="st0" d="M71.8,10.9C72,10.3,72,10,72,9.1V9V8.8V2.9V2.8V2.7c0-0.3,0-0.5,0-0.6c0-0.5,0-0.8-0.2-1.3H73
			c0.3,0,0.7,0,1.2,0c0.8-0.1,1.4-0.1,1.7-0.1c2.8,0,4.5,1.9,4.5,4.9c0,2.4-1,4-2.8,4.9c-0.8,0.4-1.6,0.5-2.8,0.5h-0.1l-1.1,0H71.8z
			 M73.6,1.4V9v0.6c0,0.2,0,0.3,0.1,0.4c0.2,0.2,0.4,0.3,0.9,0.3c2.5,0,4-1.7,4-4.6c0-2.8-1.3-4.4-3.7-4.4
			C74.5,1.3,74.2,1.4,73.6,1.4z"/>
		<path class="st0" d="M81.6,3.8c0.1-0.2,0.2-0.4,0.3-0.6C82,3,82,2.9,82,2.7c0-0.4-0.2-0.7-0.6-1l1.1-1.1l1.1,1.1
			c-0.2,0.6-0.3,1-0.8,1.5c-0.2,0.2-0.5,0.4-0.8,0.7c-0.3,0.2-0.5,0.3-0.9,0.6C81.4,4.1,81.5,3.9,81.6,3.8z"/>
		<path class="st0" d="M84.4,9.3c0.8,0.7,1.8,1.1,2.7,1.1c1.2,0,2.1-0.8,2.1-1.8c0-0.3-0.1-0.5-0.2-0.7c-0.2-0.4-0.4-0.6-1.1-1
			l-0.7-0.4l-0.2-0.1l-0.9-0.5c-0.9-0.5-1.5-1.5-1.5-2.4c0-1.6,1.4-2.7,3.3-2.7c0.4,0,1.1,0.1,1.6,0.2l0.4,0.1c0.2,0,0.3,0,0.4,0
			l0.1,1.2c-0.9-0.6-1.6-0.9-2.4-0.9c-1.1,0-1.9,0.7-1.9,1.7c0,0.3,0.1,0.5,0.2,0.7c0.3,0.5,0.7,0.8,1.9,1.4c0.5,0.3,0.8,0.4,1,0.6
			C89.4,5.8,89.7,6,90,6.3c0.5,0.5,0.8,1.1,0.8,1.8c0,1.7-1.7,3.1-3.8,3.1c-0.8,0-1.6-0.2-2.7-0.7L84.4,9.3z"/>
		<path class="st0" d="M96,10.9c0.1-0.3,0.1-0.4,0.1-0.6c0-0.2,0-0.4,0-0.6c0-0.3,0-0.4,0-0.6v0V8.8V2.9V2.8V2.7V2.3
			c0-0.5,0-0.9-0.2-1.5c0.4,0,0.5,0,0.9,0c0.6,0,1.1,0,1.5,0l1.1-0.1c0.1,0,0.3,0,0.4,0c1.5,0,2.5,0.8,2.5,2c0,1.1-0.8,2.1-2.2,2.5
			c1.8,0.2,2.7,1.1,2.7,2.6c0,1.4-0.9,2.5-2.2,2.9c-0.4,0.1-0.8,0.2-1.3,0.2c-0.3,0-0.9,0-1.4,0H96z M97.8,1.4v3.7
			c0.2,0,0.2,0,0.4,0c1.6,0,2.6-0.8,2.6-2.1c0-1.1-0.7-1.6-2.1-1.6h-0.2l-0.5,0L97.8,1.4z M97.8,5.8V9c0,0.6,0,0.7,0.1,0.9
			c0.1,0.3,0.4,0.5,1,0.5c1.4,0,2.3-0.9,2.3-2.3c0-0.7-0.2-1.2-0.6-1.6c-0.5-0.5-1-0.6-2.1-0.6C98.3,5.7,98.2,5.7,97.8,5.8z"/>
		<path class="st0" d="M104.2,10.9c0.1-0.2,0.1-0.3,0.1-0.4c0-0.2,0-0.4,0.1-0.6c0-0.4,0-0.6,0-0.6v-7c0-0.5,0-0.7-0.1-1.2l0-0.1
			h5.6l0.2,1c-0.6-0.2-1.3-0.4-2.2-0.4H106v3.8h1.3c0.7,0,1.2-0.1,1.8-0.3v1.2c-0.5-0.2-1-0.3-1.8-0.3H106v4.3h2.2c0.5,0,0.8,0,1,0
			c0.5,0,0.9-0.1,1.5-0.4l-0.6,1.1H104.2z"/>
		<path class="st0" d="M111.2,9.3c0.8,0.7,1.8,1.1,2.7,1.1c1.2,0,2.1-0.8,2.1-1.8c0-0.3-0.1-0.5-0.2-0.7c-0.2-0.4-0.4-0.6-1.1-1
			l-0.7-0.4l-0.2-0.1l-0.9-0.5c-0.9-0.5-1.5-1.5-1.5-2.4c0-1.6,1.4-2.7,3.3-2.7c0.4,0,1.1,0.1,1.6,0.2l0.4,0.1c0.2,0,0.3,0,0.4,0
			l0.1,1.2c-0.9-0.6-1.6-0.9-2.4-0.9c-1.1,0-1.9,0.7-1.9,1.7c0,0.3,0.1,0.5,0.2,0.7c0.3,0.5,0.7,0.8,1.9,1.4c0.5,0.3,0.8,0.4,1,0.6
			c0.3,0.2,0.6,0.4,0.8,0.6c0.5,0.5,0.8,1.1,0.8,1.8c0,1.7-1.7,3.1-3.8,3.1c-0.8,0-1.6-0.2-2.7-0.7L111.2,9.3z"/>
		<path class="st0" d="M117,0.8h8l0.2,1c-0.2-0.1-0.3-0.1-0.4-0.1c-0.6-0.1-1.3-0.2-1.8-0.2h-1.2v7.8c0,0.5,0.1,1.1,0.2,1.6h-1.9
			c0.1-0.6,0.2-1.1,0.2-1.6V1.4H119c-0.6,0-1.4,0.1-2.2,0.3L117,0.8z"/>
		<path class="st0" d="M54.6,24.9c0.3-0.5,0.4-0.6,0.7-1.3c0.2-0.5,0.2-0.5,0.4-0.8l0.5-1.3c0.7-1.7,1.3-3.4,1.7-4.5
			c0.3-0.8,0.4-1.2,0.4-1.5c0-0.2,0-0.4-0.2-0.7h1.7l1.7,4l0.4,1.1c0.7,1.6,1,2.4,1.1,2.7c0.4,1,0.7,1.5,1.3,2.3h-2.2
			c0-0.3-0.1-0.5-0.1-0.6C62,24,61.8,23.5,61.6,23l0-0.1l0-0.1l-1-2.4h-3.2l-0.8,2.3c-0.3,0.7-0.4,1.3-0.4,1.6c0,0.1,0,0.3,0,0.5
			H54.6z M58.8,16.4l-1.3,3.5h2.7L58.8,16.4z"/>
		<path class="st0" d="M64.7,24.9c0.1-0.3,0.1-0.4,0.2-0.6c0-0.2,0-0.4,0-0.6l0-0.6v-0.1v0v-5.9v-0.4c0-0.6,0-0.8,0-1
			c0-0.2-0.1-0.4-0.2-0.7h2c-0.1,0.3-0.1,0.5-0.2,0.7c0,0.2,0,0.4,0,1.1v0.2v0.2v5.9V23l0,0.6c0,0.6,0,0.8,0.2,1.3H64.7z"/>
		<path class="st0" d="M69.7,14.8c0.2,0,0.6,0,1.1-0.1c0.6-0.1,0.9-0.1,1.1-0.1c1.7,0,2.7,0.9,2.7,2.3s-1,2.4-2.6,2.9l2.4,3
			c0.2,0.3,0.5,0.6,0.7,0.8c0.3,0.3,0.7,0.6,1,0.9c0.2,0.2,0.4,0.2,0.7,0.4h-1.2c-0.9,0-1.1,0-1.4-0.2c-0.3-0.1-0.7-0.6-1-1l-2-2.5
			l-0.4-0.5c-0.2-0.3-0.4-0.4-0.8-0.7v2.7V23v0.3v0.3c0,0.5,0,0.8,0.2,1.3h-2c0.1-0.3,0.1-0.4,0.1-0.6c0-0.2,0-0.8,0-1.2V23v-0.2
			v-5.9v-0.2c0-0.1,0-0.2,0-0.4c0-0.5,0-0.6,0-0.9c0-0.2-0.1-0.3-0.2-0.7H69.7z M70,19.5c0.2,0,0.3,0,0.4,0c1.5,0,2.5-0.9,2.5-2.3
			c0-1.1-0.7-1.8-1.8-1.8c-0.3,0-0.7,0-1.1,0.1V19.5z"/>
		<path class="st0" d="M76.6,24.9c0.1-0.5,0.2-0.9,0.2-1.5v-7.1c0-0.2,0-0.4,0-0.7c0-0.4,0-0.5-0.1-0.8h1.9
			c-0.1,0.4-0.1,0.9-0.1,1.3v8h1.7c0.8,0,1.6-0.1,2.4-0.4L82,24.9H76.6z"/>
		<path class="st0" d="M83.2,24.9c0.1-0.3,0.1-0.4,0.2-0.6c0-0.2,0-0.4,0-0.6l0-0.6v-0.1v0v-5.9v-0.4c0-0.6,0-0.8,0-1
			c0-0.2-0.1-0.4-0.2-0.7h2c-0.1,0.3-0.1,0.5-0.2,0.7c0,0.2,0,0.4,0,1.1v0.2v0.2v5.9V23l0,0.6c0,0.6,0,0.8,0.2,1.3H83.2z"/>
		<path class="st0" d="M88.3,14.8l5.6,7.6v-5.5v-0.2v-0.2v-0.4c0-0.5,0-0.8-0.2-1.3h1.1c-0.1,0.5-0.2,1-0.2,1.3v0v0.6v0.2v8h-1
			l-6-8.1v6.1V23v0.2l0,0.4c0,0.5,0.1,0.8,0.2,1.3h-1.1c0.2-0.6,0.2-0.8,0.2-1.6V23l0-0.2v-6.1c0-0.6,0-0.8-0.1-1.3
			c-0.1-0.4-0.1-0.5-0.2-0.7H88.3z"/>
		<path class="st0" d="M96.5,24.9c0.1-0.2,0.1-0.3,0.1-0.4c0-0.2,0-0.4,0.1-0.6c0-0.4,0-0.6,0-0.6v-7c0-0.5,0-0.7-0.1-1.2l0-0.1h5.6
			l0.2,1c-0.6-0.2-1.3-0.4-2.2-0.4h-1.8v3.8h1.3c0.7,0,1.2-0.1,1.8-0.3v1.2c-0.5-0.2-1-0.3-1.8-0.3h-1.3v4.3h2.2c0.5,0,0.8,0,1,0
			c0.5,0,0.9-0.1,1.5-0.4l-0.6,1.1H96.5z"/>
	</g>
</g>
<g>
	<g>
		<path class="st0" d="M8.8,12.5c0.3-1.6,0.6-2.7,0.6-2.7c0.1-1.2-0.3-1.9-0.9-2.2C7.8,7,6.1,6.1,6.1,6.1S6,7,5.7,8.6
			C6,8.8,7,9.9,7.8,10.4C8.4,10.7,8.8,11.3,8.8,12.5z"/>
		<path class="st0" d="M10,9c0.7-1.3,1.2-2.2,1.2-2.2c0.4-1,0.2-1.7-0.1-2.1c-0.5-0.6-1.6-2-1.6-2S9.1,3.5,8.4,4.8
			c0.2,0.2,0.9,1.4,1.4,2C10.1,7.3,10.3,8,10,9z"/>
		<path class="st0" d="M12,5.1c0.6-0.9,1.2-1.5,1.2-1.5c0.4-0.7,0.4-1.2,0.1-1.6c-0.3-0.5-1-1.6-1-1.6s-0.4,0.6-1,1.4
			C11.4,2,11.8,3,12.1,3.5C12.3,3.9,12.4,4.4,12,5.1z"/>
		<path class="st0" d="M15.6,42.5c-1.2,1.3-4.1,4.2-4.1,4.2s2,0.8,5.1,2c0.5-0.5,2.9-3,4.1-4.2c1-1,2.2-1.5,4.4-1
			c-2.7-1.1-4.7-1.9-4.7-1.9C18.1,40.9,16.6,41.5,15.6,42.5z"/>
		<path class="st0" d="M6,12.4C4.9,12,2.3,11,2.3,11s0.1,1.5,0.2,3.6c0.4,0.2,2.2,1.2,3.3,1.7c0.9,0.3,1.7,1.1,2,2.6
			C7.7,16.8,7.7,15,7.7,15C7.5,13.5,6.8,12.7,6,12.4z"/>
		<path class="st0" d="M8.4,34c-1.6,0.7-5.3,2.4-5.3,2.4s1.6,1.5,4,3.7c0.6-0.3,3.9-1.8,5.4-2.3c1.2-0.5,2.6-0.5,4.5,0.7
			c-2.1-2-3.7-3.4-3.7-3.4C11.3,33.5,9.8,33.5,8.4,34z"/>
		<path class="st0" d="M8.6,24.8c-0.5-2.1-0.9-3.5-0.9-3.5c-0.6-1.8-1.6-2.3-2.5-2.5c-1.4-0.2-4.3-0.7-4.3-0.7s0.4,1.6,1,3.9
			c0.5,0.1,3,0.5,4.2,0.7C7,22.8,7.9,23.3,8.6,24.8z"/>
		<path class="st0" d="M11.5,31.6c-1.4-2.2-2.3-3.8-2.3-3.8c-1.4-1.8-2.7-2.1-4-2C3.6,26,0,26.6,0,26.6s1.1,1.7,2.6,4.2
			c0.6-0.1,3.8-0.6,5.2-0.8C9,29.8,10.2,30.2,11.5,31.6z"/>
	</g>
	<g>
		<path class="st0" d="M149.2,12.5c-0.3-1.6-0.6-2.7-0.6-2.7c-0.1-1.2,0.3-1.9,0.9-2.2c0.7-0.5,2.3-1.6,2.3-1.6s0.2,1.1,0.5,2.5
			c-0.3,0.2-1.4,1.3-2.1,1.8C149.6,10.7,149.2,11.3,149.2,12.5L149.2,12.5z"/>
		<path class="st0" d="M147.9,9c-0.7-1.3-1.2-2.2-1.2-2.2c-0.4-1-0.2-1.7,0.1-2.1c0.5-0.6,1.6-2,1.6-2s0.4,0.9,1.1,2
			c-0.2,0.2-0.9,1.5-1.4,2C147.9,7.3,147.7,8,147.9,9L147.9,9z"/>
		<path class="st0" d="M146,5.1c-0.6-0.9-1.1-1.5-1.1-1.5c-0.4-0.7-0.4-1.2-0.1-1.6c0.3-0.5,0.9-1.6,0.9-1.6s0.4,0.6,1,1.4
			c-0.1,0.2-0.5,1.2-0.8,1.7C145.6,3.9,145.6,4.4,146,5.1z"/>
		<path class="st0" d="M142.4,42.5c1.2,1.3,4.1,4.2,4.1,4.2s-2,0.8-5.1,2c-0.5-0.5-2.9-3-4.1-4.2c-1-1-2.2-1.5-4.4-1
			c2.8-1.1,4.7-1.9,4.7-1.9C139.9,40.9,141.4,41.5,142.4,42.5L142.4,42.5z"/>
		<path class="st0" d="M151.9,12.4c1.1-0.4,3.6-1.4,3.6-1.4s-0.1,1.5-0.2,3.6c-0.4,0.2-2.2,1.2-3.3,1.7c-0.9,0.3-1.7,1.1-2,2.6
			c0.1-2.1,0.1-3.9,0.1-3.9C150.4,13.5,151.2,12.7,151.9,12.4L151.9,12.4z"/>
		<path class="st0" d="M149.5,34c1.6,0.7,5.3,2.3,5.3,2.3s-1.6,1.5-4,3.7c-0.6-0.3-3.9-1.8-5.4-2.3c-1.2-0.5-2.6-0.5-4.5,0.7
			c2.1-2,3.7-3.4,3.7-3.4C146.7,33.5,148.2,33.5,149.5,34z"/>
		<path class="st0" d="M149.4,24.8c0.6-2.1,0.9-3.5,0.9-3.5c0.6-1.8,1.6-2.3,2.5-2.5c1.3-0.2,4.2-0.7,4.2-0.7s-0.4,1.6-1,3.9
			c-0.5,0.1-3,0.5-4.2,0.7C151,22.8,150.1,23.3,149.4,24.8z"/>
		<path class="st0" d="M146.5,31.6c1.4-2.2,2.3-3.8,2.3-3.8c1.4-1.8,2.7-2.1,4-2c1.6,0.2,5.2,0.8,5.2,0.8s-1.1,1.7-2.6,4.2
			c-0.6-0.1-3.8-0.6-5.2-0.8C149,29.8,147.8,30.2,146.5,31.6z"/>
	</g>
</g>
</svg>
