<svg width="65" height="64" viewBox="0 0 65 64" fill="none" xmlns="http://www.w3.org/2000/svg">
    <path d="M19.723 52.247a.624.624 0 0 1-.584-.847l1.795-4.72a.625.625 0 0 1 1.168.445l-1.795 4.719a.626.626 0 0 1-.584.403zM27.356 52.382a.625.625 0 0 1-.625-.625v-4.855a.625.625 0 1 1 1.25 0v4.855c0 .345-.28.625-.625.625zM34.437 52.382a.625.625 0 0 1-.625-.625v-4.855a.625.625 0 1 1 1.25 0v4.855c0 .345-.28.625-.625.625zM41.518 52.382a.625.625 0 0 1-.625-.625v-4.855a.625.625 0 1 1 1.25 0v4.855c0 .345-.28.625-.625.625zM48.598 52.382a.625.625 0 0 1-.625-.625v-4.855a.625.625 0 1 1 1.25 0v4.855c0 .345-.28.625-.625.625zM31.085 47.528a.625.625 0 0 1-.625-.625V28.068a.625.625 0 1 1 1.25 0v18.835c0 .345-.28.625-.625.625z" fill="#003A4E"/>
    <path d="M33.954 47.528a.625.625 0 0 1-.625-.625V28.068a.625.625 0 1 1 1.25 0v18.835c0 .345-.28.625-.625.625zM33.954 8.72a.625.625 0 0 1-.625-.626V5.42a.81.81 0 0 0-1.618 0v2.675a.625.625 0 1 1-1.25 0V5.42c0-1.136.923-2.06 2.059-2.06 1.135 0 2.06.924 2.06 2.06v2.675c0 .346-.28.625-.626.625z" fill="#003A4E"/>
    <path d="M45.163 29.847a.625.625 0 0 1-.625-.625c0-11.306-5.391-20.503-12.018-20.503-6.627 0-12.019 9.197-12.019 20.503a.625.625 0 1 1-1.25 0c0-5.755 1.347-11.175 3.792-15.26 2.506-4.188 5.871-6.493 9.477-6.493 3.605 0 6.971 2.305 9.476 6.492 2.446 4.086 3.792 9.506 3.792 15.261 0 .345-.28.625-.625.625z" fill="#003A4E"/>
    <path d="M36.734 29.847a.625.625 0 0 1-.625-.625c0-13.462-2.337-20.503-3.59-20.503-1.252 0-3.589 7.042-3.589 20.503a.625.625 0 1 1-1.25 0c0-8.744 1.289-21.753 4.84-21.753 3.55 0 4.84 13.009 4.84 21.753 0 .345-.28.625-.626.625z" fill="#003A4E"/>
    <path d="M11.447 29.847c.345 0 .625-.28.625-.625 0-1.917 1.61-3.477 3.59-3.477 1.979 0 3.589 1.56 3.589 3.477a.625.625 0 1 0 1.25 0c0-1.917 1.61-3.477 3.59-3.477 1.979 0 3.589 1.56 3.589 3.477a.625.625 0 1 0 1.25 0c0-1.917 1.61-3.477 3.59-3.477 1.979 0 3.589 1.56 3.589 3.477a.625.625 0 1 0 1.25 0c0-1.917 1.61-3.477 3.59-3.477 1.979 0 3.589 1.56 3.589 3.477a.625.625 0 1 0 1.25 0c0-1.917 1.61-3.477 3.59-3.477 1.979 0 3.589 1.56 3.589 3.477a.625.625 0 1 0 1.25 0c0-11.995-9.733-21.753-21.698-21.753-11.964 0-21.697 9.758-21.697 21.753 0 .345.28.625.625.625zM32.52 8.719c10.1 0 18.509 7.383 20.151 17.05a4.878 4.878 0 0 0-3.293-1.274 4.86 4.86 0 0 0-4.215 2.411 4.86 4.86 0 0 0-4.214-2.411 4.86 4.86 0 0 0-4.215 2.411 4.86 4.86 0 0 0-4.214-2.411 4.86 4.86 0 0 0-4.215 2.411 4.86 4.86 0 0 0-4.214-2.411 4.86 4.86 0 0 0-4.215 2.411 4.86 4.86 0 0 0-4.214-2.411 4.878 4.878 0 0 0-3.294 1.273c1.643-9.666 10.05-17.05 20.152-17.05zM57.287 50.83l-3.659-3.658a3.032 3.032 0 0 0-2.158-.894H21.777l-9.948-9.947c-2.98-2.744-7.06 1.334-4.316 4.316l6.636 6.636v11.52c.086 2.432 3.59 2.434 3.677 0V50.96l.529.529a3.032 3.032 0 0 0 2.157.894h27.46v6.42c.085 2.433 3.59 2.433 3.677 0v-4.977l1.322 1.321c2.98 2.747 7.06-1.33 4.316-4.316zm-.884 3.433c-.672.7-1.877.7-2.549 0l-2.388-2.388c-.372-.395-1.083-.098-1.067.442v6.486a.59.59 0 0 1-1.177 0v-7.045a.625.625 0 0 0-.625-.625H20.512a1.79 1.79 0 0 1-1.274-.528l-1.595-1.595c-.367-.395-1.088-.098-1.067.442v9.351c-.01.767-1.16.782-1.177 0V47.025a.625.625 0 0 0-.183-.442l-6.818-6.819c-1.622-1.739.793-4.178 2.548-2.549l10.13 10.13a.624.624 0 0 0 .442.183H51.47c.482 0 .934.188 1.275.528l3.658 3.659a1.805 1.805 0 0 1 0 2.548z" fill="#003A4E"/>
</svg>
