<svg width="65" height="64" viewBox="0 0 65 64" fill="none" xmlns="http://www.w3.org/2000/svg">
    <path d="M46.226 38.216a8.22 8.22 0 0 0-2.311.332l-1.256-3.427c-.002-.004-.002-.009-.005-.013l-.809-2.207 3.433-1.391a.625.625 0 0 0-.47-1.159l-3.993 1.618a.625.625 0 0 0-.352.795l.733 1.999H30.25l-.589-1.636c.208-.117.441-.185.687-.185h2.99c.919 0 1.666-.748 1.666-1.666 0-.92-.747-1.667-1.666-1.667H26.58a2.258 2.258 0 0 0-2.255 2.256 2.258 2.258 0 0 0 2.255 2.255h.907c.392 0 .769-.087 1.114-.247l.472 1.31-4.539 4.852a8.208 8.208 0 0 0-5.16-1.82c-4.548 0-8.248 3.7-8.248 8.25 0 4.548 3.7 8.248 8.249 8.248 4.337 0 7.902-3.366 8.223-7.624h2.521a3.733 3.733 0 0 0 1.448 2.364l-.904 1.767-.792-.312a.624.624 0 1 0-.459 1.163l2.799 1.104a.623.623 0 0 0 .81-.352.625.625 0 0 0-.351-.81l-.84-.332.847-1.653a3.74 3.74 0 0 0 4.858-3.564c0-.995-.393-1.899-1.03-2.57l5.397-7.206.843 2.3c-2.813 1.315-4.768 4.171-4.768 7.477 0 4.548 3.7 8.249 8.249 8.249 4.548 0 8.249-3.7 8.249-8.25 0-4.548-3.7-8.248-8.25-8.248zM26.58 32.87a1.006 1.006 0 0 1 0-2.01h6.758a.416.416 0 0 1 0 .832h-2.99c-.706 0-1.37.274-1.871.77a1.398 1.398 0 0 1-.99.409h-.907zm5.384 10.344a3.741 3.741 0 0 0-1.845 2.626h-2.522a8.22 8.22 0 0 0-2.15-4.95l4.102-4.384 2.415 6.708zm-9.336 2.626a3.294 3.294 0 0 0-.577-1.321l2.54-2.714a6.97 6.97 0 0 1 1.753 4.035h-3.716zm-3.827.874a.625.625 0 0 0 .573.376h1.967a2.067 2.067 0 0 1-1.967 1.44 2.067 2.067 0 0 1-2.064-2.065c0-1.138.926-2.064 2.064-2.064.318 0 .617.074.886.203l-1.342 1.434a.625.625 0 0 0-.117.676zm2.014-.874.359-.383c.068.12.125.249.167.383h-.526zm-1.44 7.624a7.007 7.007 0 0 1-7-7c0-3.858 3.14-6.998 7-6.998 1.621 0 3.114.556 4.302 1.485l-2.538 2.713a3.291 3.291 0 0 0-1.765-.513 3.318 3.318 0 0 0-3.314 3.314 3.318 3.318 0 0 0 3.314 3.314c1.614 0 2.96-1.16 3.254-2.69h3.716c-.318 3.568-3.321 6.375-6.97 6.375zm14.424-4.513c-.185 0-.365-.022-.54-.06l1.096-2.141a.625.625 0 0 0-1.112-.57l-1.095 2.139a2.477 2.477 0 0 1-.835-1.854 2.49 2.49 0 0 1 2.486-2.486 2.49 2.49 0 0 1 2.486 2.486A2.49 2.49 0 0 1 33.8 48.95zm1.706-5.806a3.708 3.708 0 0 0-1.706-.416c-.225 0-.444.023-.659.061l-2.44-6.777h10.146l-5.341 7.132zm10.72 10.319a7.007 7.007 0 0 1-6.998-7 7.007 7.007 0 0 1 3.95-6.298l1.282 3.5a3.312 3.312 0 0 0-1.548 2.799 3.318 3.318 0 0 0 3.315 3.314 3.318 3.318 0 0 0 3.314-3.314 3.318 3.318 0 0 0-3.314-3.314c-.206 0-.407.021-.602.057l-1.278-3.484a6.982 6.982 0 0 1 1.88-.258c3.86 0 6.999 3.14 6.999 6.999 0 3.859-3.14 6.999-7 6.999zm-.66-6.784a.625.625 0 0 0 1.174-.43l-.675-1.841a2.067 2.067 0 0 1 2.227 2.056 2.066 2.066 0 0 1-2.065 2.064 2.067 2.067 0 0 1-2.064-2.064c0-.636.29-1.206.743-1.585l.66 1.8z" fill="#003A4E"/>
    <path d="M54.64 19.988H43.686V9.912a.625.625 0 0 0-.625-.625H22.538a.625.625 0 0 0-.625.625v10.076H10.96a.625.625 0 0 0-.625.625v20.196a.625.625 0 1 0 1.25 0v-2.257h2.664a.625.625 0 1 0 0-1.25h-2.664v-4.503h10.328v3.366a.625.625 0 1 0 1.25 0V10.537h19.274V29.38a.625.625 0 1 0 1.25 0v-2.334h10.328v4.503h-7.294a.625.625 0 1 0 0 1.25h7.294v4.503h-2.663a.625.625 0 1 0 0 1.25h2.663v2.257a.625.625 0 1 0 1.25 0V20.613a.626.626 0 0 0-.626-.625zm-32.727 1.25v4.558H11.585v-4.558h10.328zm-10.328 10.31v-4.502h10.328v4.503H11.585zm32.102-5.752v-4.558h10.328v4.558H43.687z" fill="#003A4E"/>
    <path d="M30.978 18.524h-4.692a.625.625 0 0 1-.625-.625v-4.692c0-.345.28-.625.625-.625h4.692c.345 0 .625.28.625.625v4.692c0 .345-.28.625-.625.625zm-4.067-1.25h3.442v-3.442h-3.442v3.442zM39.314 18.524h-4.692a.625.625 0 0 1-.625-.625v-4.692c0-.345.28-.625.625-.625h4.692c.345 0 .625.28.625.625v4.692c0 .345-.28.625-.625.625zm-4.067-1.25h3.442v-3.442h-3.442v3.442zM30.978 26.698h-4.692a.625.625 0 0 1-.625-.625V21.38c0-.345.28-.625.625-.625h4.692c.345 0 .625.28.625.625v4.692c0 .345-.28.625-.625.625zm-4.067-1.25h3.442v-3.442h-3.442v3.442zM39.314 26.698h-4.692a.625.625 0 0 1-.625-.625V21.38c0-.345.28-.625.625-.625h4.692c.345 0 .625.28.625.625v4.692c0 .345-.28.625-.625.625zm-4.067-1.25h3.442v-3.442h-3.442v3.442z" fill="#003A4E"/>
</svg>
