<svg width="65" height="64" viewBox="0 0 65 64" fill="none" xmlns="http://www.w3.org/2000/svg">
    <path d="M49.539 18.586H34.584a.625.625 0 1 1 0-1.25H49.54a.625.625 0 1 1 0 1.25zM29.21 18.586H14.86a.625.625 0 1 1 0-1.25h14.35a.625.625 0 1 1 0 1.25zM22.331 32.625h-4.537a.625.625 0 1 1 0-1.25h4.537a.625.625 0 1 1 0 1.25zM22.331 43.426h-4.537a.625.625 0 1 1 0-1.25h4.537a.625.625 0 1 1 0 1.25zM34.469 32.625H29.93a.625.625 0 1 1 0-1.25h4.538a.625.625 0 1 1 0 1.25zM34.469 43.426H29.93a.625.625 0 1 1 0-1.25h4.538a.625.625 0 1 1 0 1.25zM46.607 32.625h-4.538a.625.625 0 1 1 0-1.25h4.538a.625.625 0 1 1 0 1.25zM46.607 43.426h-4.538a.625.625 0 1 1 0-1.25h4.538a.625.625 0 1 1 0 1.25zM54.054 55.414H10.346a.625.625 0 1 1 0-1.25h43.708a.625.625 0 1 1 0 1.25z" fill="#003A4E"/>
    <path d="M17.794 45.585a.625.625 0 0 1-.625-.625V29.78a.625.625 0 1 1 1.25 0v15.18c0 .345-.28.625-.625.625zM22.331 45.585a.625.625 0 0 1-.625-.625V29.78a.625.625 0 1 1 1.25 0v15.18c0 .345-.28.625-.625.625zM29.931 45.585a.625.625 0 0 1-.625-.625V29.78a.625.625 0 1 1 1.25 0v15.18c0 .345-.28.625-.625.625zM34.469 45.585a.625.625 0 0 1-.625-.625V29.78a.625.625 0 1 1 1.25 0v15.18c0 .345-.28.625-.625.625zM42.07 45.585a.625.625 0 0 1-.626-.625V29.78a.625.625 0 1 1 1.25 0v15.18c0 .345-.28.625-.625.625zM46.607 45.585a.625.625 0 0 1-.625-.625V29.78a.625.625 0 1 1 1.25 0v15.18c0 .345-.28.625-.625.625zM31.897 19.778a4.252 4.252 0 0 1-4.247-4.247 4.252 4.252 0 0 1 4.247-4.248 4.252 4.252 0 0 1 4.247 4.248 4.252 4.252 0 0 1-4.247 4.247zm0-7.245a3 3 0 0 0-2.997 2.998 3 3 0 0 0 2.997 2.997 3 3 0 0 0 2.997-2.997 3 3 0 0 0-2.997-2.998z" fill="#003A4E"/>
    <path d="M12.837 28.095h38.726a3.12 3.12 0 0 0 3.116-3.116 3.12 3.12 0 0 0-3.116-3.116h-.94V18.65c0-.647-.327-1.24-.874-1.585l-15.88-10.03a3.14 3.14 0 0 0-3.338 0l-15.88 10.03a1.866 1.866 0 0 0-.874 1.585v3.214h-.94a3.12 3.12 0 0 0-3.116 3.116 3.12 3.12 0 0 0 3.116 3.116zm2.19-9.446c0-.216.11-.413.292-.528L31.199 8.09a1.884 1.884 0 0 1 2.003 0l15.88 10.03a.622.622 0 0 1 .291.53v3.213H15.028V18.65zm-2.19 4.464h38.726c1.03 0 1.866.837 1.866 1.866a1.868 1.868 0 0 1-1.866 1.866H12.837a1.868 1.868 0 0 1-1.866-1.866c0-1.029.837-1.866 1.866-1.866zM51.563 51.674h-.94v-1.902a3.128 3.128 0 0 0-3.125-3.125H16.903a3.128 3.128 0 0 0-3.125 3.125v1.902h-.941A3.12 3.12 0 0 0 9.72 54.79a3.12 3.12 0 0 0 3.116 3.116h38.726a3.12 3.12 0 0 0 3.116-3.116 3.12 3.12 0 0 0-3.116-3.116zM15.028 49.77c0-1.034.84-1.875 1.875-1.875h30.595c1.034 0 1.875.841 1.875 1.875v1.902H15.028v-1.902zm36.535 6.885H12.837a1.868 1.868 0 0 1-1.866-1.866c0-1.029.837-1.866 1.866-1.866h38.726c1.03 0 1.866.837 1.866 1.866a1.868 1.868 0 0 1-1.866 1.866z" fill="#003A4E"/>
</svg>
