<svg width="65" height="64" viewBox="0 0 65 64" fill="none" xmlns="http://www.w3.org/2000/svg">
    <g clip-path="url(#rsdwj36oga)" fill="#003A4E">
        <path d="M24.1 44.25h-5.332a.625.625 0 1 1 0-1.25H24.1a.625.625 0 1 1 0 1.25zM24.1 34.914h-9.627a.625.625 0 0 1 0-1.25H24.1a.625.625 0 1 1 0 1.25zM24.1 39.582h-9.01a.625.625 0 1 1 0-1.25h9.01a.625.625 0 0 1 0 1.25zM50.727 34.914H41.1a.625.625 0 0 1 0-1.25h9.627a.625.625 0 1 1 0 1.25zM50.282 39.582H41.1a.625.625 0 1 1 0-1.25h9.181a.625.625 0 0 1 0 1.25zM46.661 44.25H41.1a.625.625 0 1 1 0-1.25h5.561a.625.625 0 1 1 0 1.25zM21.938 26.986a5.493 5.493 0 1 1 5.493-5.492 5.5 5.5 0 0 1-5.493 5.492zm0-9.736a4.244 4.244 0 1 0 0 8.487 4.244 4.244 0 0 0 0-8.487z"/>
        <path d="M14.473 38.694a.625.625 0 0 1-.625-.626v-5.864a3.875 3.875 0 0 1 3.87-3.87h8.439a3.845 3.845 0 0 1 2.737 1.134.625.625 0 0 1-.884.883 2.603 2.603 0 0 0-1.853-.767h-8.439a2.623 2.623 0 0 0-2.62 2.62v5.864a.625.625 0 0 1-.625.626zM43.262 29.15a5.494 5.494 0 1 1 5.494-5.494 5.5 5.5 0 0 1-5.494 5.493zm0-9.738a4.243 4.243 0 1 0 0 8.486 4.243 4.243 0 0 0 0-8.485zM50.727 39.08a.625.625 0 0 1-.625-.626v-4.087a2.623 2.623 0 0 0-2.62-2.62h-8.44a2.606 2.606 0 0 0-1.464.446.625.625 0 1 1-.7-1.036 3.854 3.854 0 0 1 2.164-.66h8.439a3.875 3.875 0 0 1 3.87 3.87v4.087a.625.625 0 0 1-.624.625zM32.125 38.587a4.298 4.298 0 1 1 0-8.595 4.298 4.298 0 0 1 0 8.595zm0-7.345a3.048 3.048 0 1 0 0 6.097 3.048 3.048 0 0 0 0-6.097zM37.756 52.375a.625.625 0 0 1-.625-.625v-9.382a1.825 1.825 0 0 0-1.823-1.823h-6.366a1.825 1.825 0 0 0-1.823 1.823v8.866a.625.625 0 0 1-1.25 0v-8.866a3.077 3.077 0 0 1 3.073-3.073h6.366a3.076 3.076 0 0 1 3.073 3.073v9.382a.625.625 0 0 1-.625.625z"/>
        <path d="M43.311 7.643a13.976 13.976 0 0 0-10.536 4.761A14.055 14.055 0 0 0 7.823 21.29c0 9.533 6.615 18.656 12.165 24.63a86.34 86.34 0 0 0 12.096 10.745.625.625 0 0 0 .702.01 81.48 81.48 0 0 0 12.261-10.379c5.626-5.831 12.33-14.83 12.33-24.586A14.083 14.083 0 0 0 43.311 7.643zM32.454 55.389c-2.936-2.153-23.381-17.743-23.381-34.1A12.806 12.806 0 0 1 32.25 13.77a.626.626 0 0 0 .997.02 12.807 12.807 0 0 1 22.88 7.92c0 16.72-20.693 31.62-23.674 33.68z"/>
    </g>
    <defs>
        <clipPath id="rsdwj36oga">
            <path fill="#fff" transform="translate(.6)" d="M0 0h64v64H0z"/>
        </clipPath>
    </defs>
</svg>
