<svg width="64" height="64" viewBox="0 0 64 64" fill="none" xmlns="http://www.w3.org/2000/svg">
    <path d="M51.268 25.319c-3.316 0-5.218-2.027-5.218-5.562a.625.625 0 1 1 1.25 0c0 3.563 2.158 4.312 3.968 4.312s3.967-.748 3.967-4.312a.625.625 0 1 1 1.25 0c0 3.534-1.902 5.562-5.217 5.562zM41.939 13.422a.625.625 0 1 0-1.25 0c0 4.776-3.886 8.663-8.663 8.663-4.776 0-8.663-3.887-8.663-8.663a.625.625 0 1 0-1.25 0c0 4.25 2.689 7.882 6.454 9.289-3.765 1.406-6.454 5.04-6.454 9.289s2.688 7.88 6.451 9.288c-3.764 1.407-6.45 5.039-6.45 9.287a.625.625 0 1 0 1.25 0c0-4.776 3.886-8.662 8.662-8.662 4.776 0 8.662 3.886 8.662 8.662a.625.625 0 1 0 1.25 0c0-4.248-2.687-7.88-6.45-9.287 3.763-1.408 6.45-5.04 6.45-9.288 0-4.25-2.688-7.883-6.454-9.29 3.766-1.406 6.455-5.038 6.455-9.288zM40.689 32c0 4.777-3.886 8.663-8.663 8.663-4.776 0-8.663-3.886-8.663-8.663s3.887-8.663 8.663-8.663c4.777 0 8.663 3.886 8.663 8.663z" fill="#003A4E"/>
    <path d="M51.268 12.797c-3.098 0-5.5 4.922-5.5 9.156 0 3.727 2.005 5.865 5.5 5.865s5.5-2.138 5.5-5.865c0-4.234-2.403-9.156-5.5-9.156zm0 13.771c-1.939 0-4.25-.8-4.25-4.615 0-3.485 2.001-7.906 4.25-7.906 2.248 0 4.25 4.42 4.25 7.906 0 3.814-2.312 4.615-4.25 4.615zM52.987 28.734a.625.625 0 0 0-.625.625v19.497a1.095 1.095 0 0 1-2.189 0V29.359a.625.625 0 1 0-1.25 0v19.497a2.347 2.347 0 0 0 2.345 2.344 2.347 2.347 0 0 0 2.344-2.344V29.359a.625.625 0 0 0-.625-.625zM17.325 12.797a.625.625 0 0 0-.625.625v8.412h-3.49c.002-.018.006-.036.006-.055v-8.357a.625.625 0 1 0-1.25 0v8.357c0 .019.004.037.006.055h-3.49v-8.412a.625.625 0 1 0-1.25 0v9.037a5.365 5.365 0 0 0 5.36 5.36 5.365 5.365 0 0 0 5.359-5.36v-9.037a.625.625 0 0 0-.626-.625zm-4.734 13.771a4.112 4.112 0 0 1-4.056-3.484h8.113a4.112 4.112 0 0 1-4.057 3.484zM14.308 28.734a.625.625 0 0 0-.625.625v19.497a1.095 1.095 0 0 1-2.189 0V29.359a.625.625 0 1 0-1.25 0v19.497A2.347 2.347 0 0 0 12.59 51.2a2.347 2.347 0 0 0 2.344-2.344V29.359a.625.625 0 0 0-.625-.625zM35.03 27.697c-.319 0-.628.057-.918.17a2.543 2.543 0 0 0-2.107-1.11c-.863 0-1.641.426-2.108 1.11a2.557 2.557 0 0 0-3.472 2.385c.001.864.44 1.662 1.148 2.13v4.236c0 .345.28.625.625.625h7.51c.345 0 .624-.28.624-.625v-4.173a2.567 2.567 0 0 0 1.252-2.194 2.557 2.557 0 0 0-2.555-2.554zm-6.207 8.296v-.96h6.26v.96h-6.26zm6.664-4.523a.625.625 0 0 0-.404.585v1.728h-6.26v-1.77a.626.626 0 0 0-.37-.57 1.306 1.306 0 0 1-.776-1.192c0-.72.585-1.305 1.304-1.305.292 0 .568.096.8.277a.627.627 0 0 0 .98-.304c.173-.545.673-.911 1.244-.911a1.3 1.3 0 0 1 1.244.91.624.624 0 0 0 .98.305c.233-.181.51-.277.801-.277.72 0 1.304.585 1.304 1.305 0 .54-.34 1.03-.847 1.22z" fill="#003A4E"/>
</svg>
