<svg width="64" height="64" viewBox="0 0 64 64" fill="none" xmlns="http://www.w3.org/2000/svg">
    <path d="M49.367 23.692h-2.296v-6.764h1.253v-3.966a2.299 2.299 0 0 0-2.296-2.296h-7.515a2.299 2.299 0 0 0-2.296 2.296v3.966h1.252v6.764h-2.296a3.97 3.97 0 0 0-3.966 3.965v6.054h-2.171v-2.714a2.299 2.299 0 0 0-2.296-2.296h-6.68a2.299 2.299 0 0 0-2.296 2.296v2.714h-3.131a3.97 3.97 0 0 0-3.966 3.966v11.69a3.97 3.97 0 0 0 3.966 3.966h17.534c1.13 0 2.17-.477 2.902-1.261.256.733.954 1.26 1.774 1.26a1.88 1.88 0 0 0 1.878-1.878v-.626h7.098v.626a1.88 1.88 0 0 0 1.878 1.879 1.88 1.88 0 0 0 1.88-1.879v-.632a3.971 3.971 0 0 0 3.756-3.96V27.657a3.97 3.97 0 0 0-3.966-3.965zM37.47 12.962c0-.575.468-1.043 1.044-1.043h7.515c.575 0 1.043.468 1.043 1.043v2.714H45.82V13.17H38.72v2.505H37.47v-2.714zm8.35 3.966v6.764H38.72v-6.764h1.253v-2.505h4.592v2.505h1.253zm-26.803 14.07c0-.576.469-1.044 1.044-1.044h6.68c.575 0 1.044.468 1.044 1.043v2.714H26.53v-2.505H20.27v2.505h-1.253v-2.714zm6.263 1.46v1.253H21.52v-1.252h3.758zm6.888 19.622H14.633a2.717 2.717 0 0 1-2.714-2.713v-11.69a2.717 2.717 0 0 1 2.714-2.713h16.574v11.898a3.972 3.972 0 0 0 3.285 3.906 2.714 2.714 0 0 1-2.325 1.312zm5.302-.626a.627.627 0 0 1-1.252 0v-.626h1.252v.626zm10.855 0a.627.627 0 0 1-1.253 0v-.626h1.253v.626zm3.757-4.592a2.717 2.717 0 0 1-2.714 2.713H35.173a2.717 2.717 0 0 1-2.714-2.713V27.657a2.717 2.717 0 0 1 2.714-2.713h14.194a2.717 2.717 0 0 1 2.714 2.713v19.205z" fill="#003A4E"/>
    <path d="M34.339 46.236h15.864v1.253H34.339v-1.253zM34.339 27.031h15.864v1.253H34.339V27.03zM46.913 32.375a3.3 3.3 0 0 0-2.305.936 3.3 3.3 0 0 0-2.305-.936h-.006a3.3 3.3 0 0 0-2.338.962 3.3 3.3 0 0 0-2.331-.962h-.007c-.886 0-1.719.344-2.346.97a3.333 3.333 0 0 0-.01 4.705l4.668 4.69 2.338-2.35 2.337 2.35 4.668-4.69a3.333 3.333 0 0 0-.01-4.705 3.297 3.297 0 0 0-2.352-.97zm-6.98 8.59-3.78-3.798a2.079 2.079 0 0 1 .006-2.935c.391-.39.91-.605 1.462-.605h.004a2.057 2.057 0 0 1 1.464.61l.153.155a3.334 3.334 0 0 0 .7 3.658l1.445 1.453-1.454 1.461zm8.455-3.798-3.78 3.797-3.779-3.797a2.079 2.079 0 0 1 .006-2.935c.39-.39.91-.605 1.462-.605h.004a2.057 2.057 0 0 1 1.464.61l.843.849.844-.848c.39-.393.91-.61 1.464-.61h.004c.552 0 1.07.214 1.462.604.81.807.812 2.124.006 2.935zM25.519 38.72h-.007a3.078 3.078 0 0 0-2.112.838 3.078 3.078 0 0 0-2.113-.837h-.006c-.826 0-1.603.32-2.188.903a3.08 3.08 0 0 0-.912 2.19 3.08 3.08 0 0 0 .904 2.194l4.315 4.331 4.315-4.331a3.08 3.08 0 0 0 .903-2.194 3.08 3.08 0 0 0-.912-2.19 3.08 3.08 0 0 0-2.187-.903zm1.308 4.404-3.427 3.44-3.428-3.44a1.836 1.836 0 0 1-.539-1.307c.002-.494.195-.957.544-1.305a1.835 1.835 0 0 1 1.304-.539h.003c.494.001.957.194 1.305.544l.81.813.81-.813c.349-.35.813-.543 1.306-.544.496 0 .958.19 1.307.539.35.348.543.811.544 1.305 0 .493-.19.958-.539 1.307zM18.64 20.869l4.316-4.332a3.08 3.08 0 0 0 .903-2.193 3.08 3.08 0 0 0-.912-2.19 3.08 3.08 0 0 0-2.187-.904h-.007a3.078 3.078 0 0 0-2.112.837 3.078 3.078 0 0 0-2.113-.837h-.006a3.08 3.08 0 0 0-2.188.904 3.08 3.08 0 0 0-.912 2.19 3.08 3.08 0 0 0 .904 2.193l4.315 4.332zm-3.422-7.828a1.835 1.835 0 0 1 1.304-.539h.003c.494.001.957.194 1.305.544l.81.813.81-.813c.349-.35.813-.543 1.306-.544h.004c.492 0 .954.192 1.303.539.35.348.543.812.544 1.305 0 .493-.19.958-.539 1.307l-3.427 3.441-3.428-3.44a1.836 1.836 0 0 1-.538-1.308c0-.493.194-.957.543-1.305zM22.607 21.553c-.002.648.25 1.258.707 1.716l3.259 3.272 3.259-3.271a2.41 2.41 0 0 0 .707-1.717 2.41 2.41 0 0 0-.714-1.713 2.409 2.409 0 0 0-1.711-.707h-.005a2.407 2.407 0 0 0-1.536.552 2.407 2.407 0 0 0-1.537-.552h-.004a2.41 2.41 0 0 0-1.712.707 2.409 2.409 0 0 0-.713 1.713zm1.597-.826c.221-.22.515-.342.828-.342h.002c.313 0 .608.123.829.345l.71.713.71-.713c.22-.221.515-.344.828-.345h.003c.312 0 .606.122.827.342.222.221.345.515.345.829.001.313-.12.608-.341.83l-2.372 2.38-2.372-2.38a1.165 1.165 0 0 1-.342-.83c0-.313.123-.608.345-.829zM14.466 30.698l2.907-2.919a2.203 2.203 0 0 0-.006-3.111 2.204 2.204 0 0 0-2.901-.18 2.204 2.204 0 0 0-2.901.18 2.203 2.203 0 0 0-.006 3.111l2.907 2.919zm-2.017-5.143a.945.945 0 0 1 1.34.003l.677.68.677-.68a.949.949 0 0 1 1.343 1.338l-2.02 2.027-2.02-2.027a.949.949 0 0 1 .003-1.34z" fill="#003A4E"/>
</svg>
