<svg width="65" height="64" viewBox="0 0 65 64" fill="none" xmlns="http://www.w3.org/2000/svg">
    <path d="M32.816 50.56c-4.087.013-5.883-5.07-2.769-7.669.432-.3.729-.786.781-1.306a2.736 2.736 0 0 0-.37-1.633.625.625 0 0 1 .808-.886c1.549.706 3.296 1.865 3.379 3.764.3-.271.728-.139.978.135 3.005 2.601 1.172 7.603-2.806 7.595zm-1.99-6.69c-2.076 1.727-1.063 5.166 1.65 5.422 2.75.303 4.413-2.909 2.687-5.02-.307.393-1.648 1.631-2.252.835a.625.625 0 0 1 .023-.74c.939-1.224.359-2.679-.864-3.427.139 1.12-.314 2.266-1.244 2.93z" fill="#003A4E"/>
    <path d="m40.965 55.3-6.503-2.621 6.503-2.623a.625.625 0 1 0-.468-1.159l-7.706 3.108-7.706-3.108a.624.624 0 1 0-.468 1.16l6.503 2.622-6.503 2.622a.625.625 0 1 0 .468 1.159l7.706-3.108 7.707 3.108a.622.622 0 0 0 .813-.346.625.625 0 0 0-.346-.813zM32.791 27.91a.625.625 0 0 1-.625-.625v-17.12a.625.625 0 1 1 1.25 0v17.12c0 .345-.28.625-.625.625z" fill="#003A4E"/>
    <path d="M53.458 36.877a.625.625 0 0 0-.625.624v8.14h-9.015c-5.685-6.147-9.19-12.364-10.414-18.48a.625.625 0 0 0-1.226 0c-1.223 6.117-4.729 12.333-10.413 18.48h-9.016v-8.14a.625.625 0 1 0-1.25 0v8.765c0 .345.28.625.625.625h14.358a.625.625 0 1 0 0-1.25h-3.025c4.657-5.222 7.787-10.508 9.334-15.758 1.547 5.25 4.677 10.536 9.334 15.758H39.1a.625.625 0 1 0 0 1.25h14.359c.345 0 .625-.28.625-.625v-8.764a.625.625 0 0 0-.625-.626z" fill="#003A4E"/>
    <path d="M24.347 33.04h-3.839a.625.625 0 0 0-.625.624v3.84c0 .344.28.624.625.624h3.84c.345 0 .624-.28.624-.625v-3.839a.625.625 0 0 0-.625-.625zm-.625 3.838h-2.589V34.29h2.59v2.59zM41.235 38.128h3.839c.345 0 .625-.28.625-.625v-3.839a.625.625 0 0 0-.625-.625h-3.84a.625.625 0 0 0-.624.625v3.84c0 .344.28.624.625.624zm.625-3.839h2.589v2.59h-2.59v-2.59zM48.483 19.88h6.507a3.38 3.38 0 0 0 3.375-3.376 3.359 3.359 0 0 0-2.508-3.263 4.327 4.327 0 0 0-4.298-3.868 4.327 4.327 0 0 0-4.308 3.988 3.357 3.357 0 0 0-2.143 3.143 3.38 3.38 0 0 0 3.375 3.375zm-.478-5.447a.625.625 0 0 0 .485-.63 3.075 3.075 0 0 1 3.07-3.18 3.075 3.075 0 0 1 3.07 3.071v.06a.625.625 0 0 0 .566.635 2.115 2.115 0 0 1 1.92 2.115 2.127 2.127 0 0 1-2.126 2.125h-6.507a2.127 2.127 0 0 1-2.125-2.125c0-.997.677-1.849 1.647-2.071zM59.275 24.356a3.08 3.08 0 0 0-3.039-2.61 3.079 3.079 0 0 0-3.052 2.707 2.45 2.45 0 0 0 1.015 4.676h4.31a2.45 2.45 0 0 0 2.448-2.447 2.436 2.436 0 0 0-1.682-2.326zm-.766 3.523H54.2a1.199 1.199 0 0 1-.27-2.364.625.625 0 0 0 .484-.63l-.001-.065c0-1.006.818-1.824 1.824-1.824 1.006 0 1.824.818 1.824 1.824v.039c-.005.325.241.6.566.631a1.192 1.192 0 0 1 1.08 1.192c0 .66-.536 1.197-1.197 1.197zM12.052 20.54l.703-1.172c.69-1.223 2.512-1.449 3.479-.429a.625.625 0 0 0 .884-.883c-1.679-1.703-4.553-1.18-5.602.947-1.049-2.127-3.924-2.65-5.601-.947a.625.625 0 0 0 .883.883 2.21 2.21 0 0 1 1.844-.634 2.21 2.21 0 0 1 1.635 1.063l.703 1.171c.223.4.85.4 1.072 0zM14.993 12.084c.966-1.02 2.789-.795 3.479.428l.702 1.172a.625.625 0 0 0 1.072 0l.703-1.172c.69-1.223 2.513-1.448 3.48-.428.587.57 1.455-.293.883-.884-1.68-1.702-4.552-1.179-5.602.947-1.049-2.126-3.924-2.649-5.601-.947-.57.59.292 1.455.884.884z" fill="#003A4E"/>
    <path d="M60.314 46.892a.625.625 0 0 1-.498-.247L32.79 11.032 5.767 46.645a.625.625 0 1 1-.996-.756L32.293 9.62a.625.625 0 0 1 .996 0l27.523 36.27a.625.625 0 0 1-.498 1.002z" fill="#003A4E"/>
</svg>
