<svg width="65" height="64" viewBox="0 0 65 64" fill="none" xmlns="http://www.w3.org/2000/svg">
    <path d="M32.4 5.934c-4.6 0-8.342 3.742-8.342 8.342 0 4.6 3.742 8.343 8.342 8.343 4.6 0 8.343-3.743 8.343-8.343S37 5.934 32.4 5.934zm-4.942 13.422c-.711-3.057.772-6.337 3.645-8.077.386.826.616 1.727.66 2.658a8.387 8.387 0 0 0-3.769 5.891 7.239 7.239 0 0 1-.536-.472zm3.01-11.903c3.109.906 5.272 3.85 5.274 7.208a7.092 7.092 0 0 1-2.73-.766 8.385 8.385 0 0 0-3.22-6.212 6.99 6.99 0 0 1 .676-.23zm1.956 7.544a8.353 8.353 0 0 0 3.835.933 8.383 8.383 0 0 0 3.157-.616c-.035.236-.081.469-.139.697-2.298 2.166-5.895 2.527-8.82.88a7.078 7.078 0 0 1 1.967-1.894zm7.06-1.09a7.09 7.09 0 0 1-2.492.733c-.01-3.088-1.593-5.879-4.054-7.434 3.539.267 6.362 3.14 6.545 6.7zM28.542 8.329a7.098 7.098 0 0 1 1.931 1.866c-2.658 1.6-4.292 4.351-4.435 7.214a7.047 7.047 0 0 1-.732-3.133 7.092 7.092 0 0 1 3.236-5.947zm3.857 13.04a7.047 7.047 0 0 1-3.222-.777 7.094 7.094 0 0 1 .655-2.616 9.177 9.177 0 0 0 4.508 1.195 8.628 8.628 0 0 0 3.945-.941 7.091 7.091 0 0 1-5.886 3.139zM51.712 58.066c-1.848 0-2.797-.842-3.635-1.584-.768-.68-1.432-1.27-2.804-1.27-1.373 0-2.036.59-2.805 1.27-.837.743-1.786 1.584-3.633 1.584-1.846 0-2.796-.842-3.633-1.584-.768-.68-1.432-1.27-2.804-1.27-1.373 0-2.036.59-2.805 1.27-.837.743-1.786 1.584-3.633 1.584-1.846 0-2.796-.842-3.633-1.584-.768-.68-1.432-1.27-2.804-1.27-1.372 0-2.035.59-2.804 1.27-.837.743-1.786 1.584-3.633 1.584-1.846 0-2.795-.842-3.632-1.584-.768-.681-1.432-1.27-2.804-1.27a.625.625 0 1 1 0-1.25c1.847 0 2.796.842 3.633 1.585.769.68 1.432 1.27 2.804 1.27 1.372 0 2.035-.59 2.803-1.27.838-.743 1.787-1.584 3.633-1.584 1.847 0 2.796.842 3.634 1.584.768.681 1.431 1.27 2.803 1.27 1.372 0 2.036-.59 2.805-1.27.837-.743 1.787-1.584 3.633-1.584s2.796.842 3.633 1.584c.769.681 1.432 1.27 2.804 1.27 1.373 0 2.036-.59 2.805-1.27.837-.743 1.786-1.584 3.633-1.584s2.796.842 3.634 1.584c.768.681 1.432 1.27 2.805 1.27 1.372 0 2.036-.589 2.804-1.27.838-.742 1.788-1.584 3.634-1.584a.625.625 0 1 1 0 1.25c-1.372 0-2.036.589-2.804 1.27-.838.741-1.788 1.583-3.634 1.583zM53.687 31.322H11.113a.625.625 0 1 1 0-1.25h42.574a.625.625 0 1 1 0 1.25zM53.687 36.941H11.113a.625.625 0 1 1 0-1.25h42.574a.625.625 0 1 1 0 1.25z" fill="#003A4E"/>
    <path d="M17.686 41.983a.625.625 0 0 1-.625-.625V25.656a.625.625 0 1 1 1.25 0v15.702c0 .345-.28.625-.625.625zM24.991 41.983a.625.625 0 0 1-.625-.625V25.656a.625.625 0 1 1 1.25 0v15.702c0 .345-.28.625-.625.625zM32.295 41.983a.625.625 0 0 1-.625-.625V25.656a.625.625 0 1 1 1.25 0v15.702c0 .345-.28.625-.625.625zM39.6 41.983a.625.625 0 0 1-.626-.625V25.656a.625.625 0 1 1 1.25 0v15.702c0 .345-.28.625-.625.625zM46.904 41.983a.625.625 0 0 1-.625-.625V25.656a.625.625 0 1 1 1.25 0v15.702c0 .345-.28.625-.625.625zM58.213 50.234a256.898 256.898 0 0 0-51.626 0 .625.625 0 1 0 .126 1.243 255.65 255.65 0 0 1 51.374 0 .625.625 0 1 0 .126-1.244z" fill="#003A4E"/>
    <path d="M8.485 48.943c.345 0 .625-.28.625-.625V23.386a.69.69 0 0 1 1.378 0v24.451a.625.625 0 1 0 1.25 0v-5.855h41.324v5.855a.625.625 0 1 0 1.25 0v-24.45a.69.69 0 0 1 1.378 0v24.93a.625.625 0 1 0 1.25 0v-24.93c0-1.07-.87-1.94-1.939-1.94-1.07 0-1.939.87-1.939 1.94v1.643H11.738v-1.644c0-1.069-.87-1.939-1.939-1.939a1.94 1.94 0 0 0-1.939 1.94v24.93c0 .346.28.626.625.626zM53.062 26.28v14.45H11.738v-14.45h41.324z" fill="#003A4E"/>
</svg>
