<svg width="64" height="64" viewBox="0 0 64 64" fill="none" xmlns="http://www.w3.org/2000/svg">
<path d="M42.0837 34.214H30.6467L29.726 30.714H39.3947C40.6125 30.714 41.603 29.7233 41.603 28.5058C41.603 27.288 40.6122 26.2975 39.3947 26.2975H28.564L25.5242 14.7435C25.0937 13.1073 23.6112 11.9643 21.9192 11.9643C20.7542 11.9643 19.6782 12.4935 18.967 13.416C18.2557 14.3385 18.0177 15.514 18.314 16.6405L24.5867 40.483C24.8032 41.3063 25.549 41.881 26.4 41.881H26.8115V46.7943C26.8115 47.1395 27.0912 47.4193 27.4365 47.4193C27.7817 47.4193 28.0615 47.1395 28.0615 46.7943V41.881H42.0615V46.7943C42.0615 47.1395 42.3412 47.4193 42.6865 47.4193C43.0317 47.4193 43.3115 47.1395 43.3115 46.7943V41.6733C44.7657 41.1645 45.8115 39.7788 45.8115 38.1533V37.942C45.8115 35.8863 44.1392 34.214 42.0837 34.214ZM39.3947 27.5475C39.9232 27.5475 40.353 27.9775 40.353 28.5058C40.353 29.0343 39.923 29.464 39.3947 29.464H29.3972L28.893 27.5475H39.3947ZM44.5615 38.153C44.5615 39.5193 43.45 40.6308 42.0837 40.6308H26.4002C26.1165 40.6308 25.868 40.439 25.7957 40.1648L19.5232 16.3223C19.3262 15.5735 19.4842 14.7923 19.957 14.179C20.4297 13.5658 21.145 13.214 21.9195 13.214C23.0442 13.214 24.0295 13.9738 24.3157 15.0615L29.5607 34.9983C29.633 35.2728 29.8812 35.4643 30.165 35.4643H42.0837C43.45 35.4643 44.5615 36.5758 44.5615 37.942V38.153Z" fill="#003A4E"/>
<path d="M42.3845 48.589H27.7387C26.6245 48.589 25.718 49.4955 25.718 50.6098C25.718 51.724 26.6245 52.6305 27.7387 52.6305H42.3845C43.4987 52.6305 44.4052 51.724 44.4052 50.6098C44.4052 49.4958 43.4987 48.589 42.3845 48.589ZM42.3845 51.3808H27.7387C27.3137 51.3808 26.968 51.035 26.968 50.61C26.968 50.185 27.3137 49.8393 27.7387 49.8393H42.3845C42.8095 49.8393 43.1552 50.185 43.1552 50.61C43.1552 51.035 42.8095 51.3808 42.3845 51.3808Z" fill="#003A4E"/>
<path d="M42.6865 39.464H27.08C26.796 39.464 26.5477 39.2725 26.4755 38.998L20.315 15.5815C20.2272 15.2478 20.4267 14.9058 20.7605 14.818C21.0945 14.73 21.436 14.9295 21.524 15.2633L27.5617 38.214H42.6865C43.0317 38.214 43.3115 38.4938 43.3115 38.839C43.3115 39.1843 43.0317 39.464 42.6865 39.464Z" fill="#003A4E"/>
<path d="M37.4995 24.464H32.6237C32.2785 24.464 31.9987 24.1843 31.9987 23.839V17.5365H30.1445C29.8917 17.5365 29.6637 17.3843 29.567 17.1505C29.4702 16.917 29.5237 16.6483 29.7025 16.4695L34.6197 11.5523C34.737 11.435 34.8957 11.3693 35.0617 11.3693C35.2275 11.3693 35.3865 11.435 35.5037 11.5523L40.421 16.4695C40.5997 16.6483 40.6532 16.917 40.5565 17.1505C40.4597 17.3843 40.232 17.5365 39.979 17.5365H38.1247V23.839C38.1245 24.1843 37.8445 24.464 37.4995 24.464ZM33.2485 23.214H36.8742V16.9115C36.8742 16.5663 37.154 16.2865 37.4992 16.2865H38.4697L35.0615 12.878L31.653 16.2865H32.6235C32.9687 16.2865 33.2485 16.5663 33.2485 16.9115V23.214Z" fill="#003A4E"/>
</svg>
