<svg width="1440" height="4070" viewBox="0 0 1440 4070" fill="none" xmlns="http://www.w3.org/2000/svg">
    <g clip-path="url(#ql6ja44kha)">
        <g clip-path="url(#8rurezcmjb)">
            <g clip-path="url(#p8u5ifh5oc)">
                <path d="M1494.08 1545.5c33.95-27.51 72.12-89.37 57.28-148.75-20.76-82.92-109.74-104.29-166.05-185.78-88.49-128.06 13.1-226.718 36.04-310.691 3.83-14.032 6.78-28.017 8.84-41.814-98.09 5.631-193.46 17.771-284.47 56.003-73.15 30.723-139.08 81.423-164.963 145.642-13.187 32.72-15.971 68.95-4.021 107.83 56.804 184.73 275.834 140.64 415.114 225.67 63.14 38.53 82.87 87.35 102.16 151.81" fill="url(#zn1jjqdjbd)"/>
                <path d="M980.805 1060.18c-13.188 32.73-15.972 68.96-4.021 107.83 56.806 184.74 275.836 140.65 415.116 225.67 63.14 38.53 82.87 87.36 102.16 151.82-116.76 94.64-289.44 73.09-407.67-7.12-49.09-33.28-90.883-76.9-119.375-127.85-35.981-64.34-43.275-140.44-31.959-211.81 7.928-50.03 24.73-98.71 48.028-144.04" fill="url(#t13or86nle)"/>
                <path d="M1478.74 89.33c90.08 8.291 178.16 22.37 267.4 36.371 71.13 11.169 143.66 19.163 215.71 12.202 62.6-6.054 120.66-25.045 175.18-54.83-14.52 57.317-40.8 112.053-77.37 159.468-32.2 41.767-63.88 73.382-111.37 107.923-43.31 31.489-100.8 51.56-152.75 66.593-202.99 58.772-463.72 24.357-627.32-112.303-143.73-120.047-196.614-319.28-170.157-500.491 11.687-80.016 37.107-160.657 22.097-240.156-14.69-77.763-66.788-144.56-126.523-198.889C748.899-766.42 549.262-840.679 350.016-837.003c104.279-5.975 187.621 87.916 218.702 183.746 31.08 95.831 28.426 199.421 59.344 295.299 51.676 160.281 193.89 282.58 353.476 350.722 170.102 72.648 314.682 78.514 497.192 96.55" fill="url(#jfvn6ebwcf)"/>
                <path d="M1558.53 840.789c34.13-11.153 64.46-31.881 82.19-72.866 46.97-108.627-134.61-258.208-237.42-362.424-30.01-30.41-59.82-62.37-82.87-98.349-.64-.954-1.32-1.893-1.94-2.863-7.38-11.341-13.95-23.308-18.99-35.87-.76-1.893-1.48-3.801-2.16-5.725-.41-1.127-.78-2.253-1.16-3.395-.55-1.705-1.1-3.426-1.58-5.162-3.42-11.905-5.27-24.326-4.93-37.263.08-8.056.83-16.065 2.46-23.856 3.86-18.443 12.6-35.385 23.62-50.825-9.44 12.108-21.23 27.298-24.5 31.522-16.87 21.759-31 46.21-41.39 71.818-12.63 31.146-18.3 63.871-17.94 97.254.41 39.625 6.47 79.03 26.25 114.102 37.49 66.453 95.4 120.688 132.64 187.673 19.8 35.604 35.05 73.899 41.04 114.008 8.76 58.741-1.63 99.883-1.63 99.883 15.7-2.003 33.35-2.988 51.68-4.49 24.84-2.925 50.81-7.133 76.65-13.203l-.02.031z" fill="url(#uu84z18r6g)"/>
                <path d="M1327.99 126.578a234.734 234.734 0 0 0-12.26 15.628c2.07-2.644 4.01-5.147 5.74-7.353 2.06-2.753 4.21-5.506 6.51-8.291l.01.016z" fill="url(#nyzk8zxsoh)"/>
                <path d="M1294.6 254.148c.49 1.737 1.03 3.442 1.58 5.163-.55-1.705-1.09-3.426-1.58-5.163z" fill="url(#7kzx3onuei)"/>
                <path d="M1294.6 254.148c.49 1.737 1.03 3.442 1.58 5.163-.55-1.705-1.09-3.426-1.58-5.163z" fill="url(#25t0uensfj)"/>
                <path d="M1328 126.578c-2.32 2.785-4.45 5.538-6.52 8.291 3.16-4.036 5.57-7.118 6.52-8.291z" fill="url(#bqo2pjmn7k)"/>
                <path d="M1328 126.578c-2.32 2.785-4.45 5.538-6.52 8.291 3.16-4.036 5.57-7.118 6.52-8.291z" fill="url(#4ayuruipdl)"/>
                <path d="M1297.34 262.691c.68 1.925 1.38 3.833 2.16 5.726-.76-1.893-1.48-3.801-2.16-5.726z" fill="url(#5j6ofsbalm)"/>
                <path d="M1297.34 262.691c.68 1.925 1.38 3.833 2.16 5.726-.76-1.893-1.48-3.801-2.16-5.726z" fill="url(#talxxnz2ln)"/>
                <path d="M1289.66 216.887c.65-25.373 9.72-52.718 31.81-82.033-1.73 2.205-3.68 4.708-5.73 7.352-11.01 15.44-19.77 32.382-23.63 50.825-1.62 7.79-2.37 15.8-2.45 23.856z" fill="url(#r5q008md3o)"/>
                <path d="M2066.83-650.987c-20.47-87.618-46.06-176.894-57.95-266.984-80.51 2.19-165.82-2.19-245.94 12.093-155.79 27.782-251.26 137.457-295.84 260.585-37.35 103.168 2.03 207.086 36.62 305.404 41.11 116.903 49.21 217.02-30.06 318.06-29.09 37.074-64.19 67.485-98.16 100.023-16.25 15.721-32.84 31.239-47.49 48.384-4.3 5.022-8.4 10.247-12.26 15.628-11 15.44-19.76 32.382-23.62 50.825-1.63 7.791-2.38 15.8-2.46 23.856-.33 12.937 1.51 25.358 4.93 37.262.51 1.737 1.03 3.458 1.58 5.163.38 1.142.77 2.268 1.16 3.394.68 1.925 1.4 3.833 2.16 5.726 5.03 12.577 11.61 24.529 18.99 35.87.63.97 1.3 1.908 1.93 2.863 23.6 35.604 52.77 67.782 82.91 98.349 102.81 104.215 284.39 253.781 237.42 362.424-17.71 40.969-48.03 61.697-82.14 72.85 113.87-26.765 225.01-89.198 223.84-232.256-1.05-129.025-114.95-190.785-248.92-298.818-35.45-28.58-71.3-66.499-83.49-110.519-5.62-20.258-5.2-42.628 4.59-61.369 14.98-28.659 46.68-42.05 76-53.422 118.88-46.054 241.56-87.086 354.52-145.56 21.28-11.013 144.54-77.075 197.66-194.587 52.72-116.59 11.61-276.934-16.02-395.228l.04-.016z" fill="url(#frnun78nyp)"/>
                <path d="M245.057 505.615c-25.024-90.183-75.218-166.037-147.05-227.766-133.813-115.025-332.311-114.712-454.418-239.03-102.44-104.293-139.642-229.611-89.887-363.596 37.348-100.587 130.492-218.365 161.263-317.59 31.162-100.461 16.216-212.405-10.664-295.721 38.097 111.224 155.727 149.425 228.813 305.06 44.87 95.549 45.537 209.839 13.79 310.128C-85.66-220.077-143.88-152.592-205.634-38.615c-65.059 120.078-106.608 281.47 7.636 373.75 74.453 60.133 127.04 67.798 242.977 96.3 52.066 12.796 141.547 34.853 199.181 73.695.619.407.245.125.896.485z" fill="url(#e681rwtt3q)"/>
                <path d="M1494.1 1545.19c-16.75-39.53-66.16-93.53-129.53-98.3-88.49-6.66-137.13 68.05-235.19 94.33-154.104 41.28-220.367-82.04-296.383-128.95a399.646 399.646 0 0 0-38.651-21.01c-24.731 91.39-42.2 182.28-32.48 277.26 7.814 76.34 37.625 152.26 93.175 195.75 28.313 22.16 63.317 35.9 105.501 36.99 200.398 5.18 224.448-208.58 351.648-309.59 57.66-45.79 112.08-48.73 181.85-46.45" fill="url(#spuyzq566r)"/>
                <path d="M855.089 1864.25c28.312 22.17 63.316 35.9 105.5 37 200.401 5.17 224.451-208.59 351.651-309.6 57.65-45.79 112.08-48.73 181.84-46.44 57.61 135.95-17.11 287.07-133.01 370.33-48.13 34.58-104.22 59.28-163.45 69.57-74.79 13-152.39-3.85-219.529-36.25-47.068-22.71-90.066-53.1-127.724-88.4" fill="url(#dxuvqltr8s)"/>
                <path d="M47.995 1109.23c36.046-79.77 77.188-155.904 118.639-233.119C199.668 814.57 230 750.761 245.369 682.76c13.35-59.07 12.487-117.998-.147-177.02 52.246 30.99 98.305 71.912 133.944 119.984 31.389 42.347 52.897 81.064 72.401 135.127 17.795 49.308 19.879 108.032 18.723 160.171-4.558 203.658-119.193 431.268-305.024 538.538-163.249 94.23-376.79 81-547.968.83-75.593-35.4-147.554-83.55-230.88-94.41-81.519-10.61-163.722 16.35-235.96 54.16-175.018 91.57-310.218 251.06-368.148 434.27 26.31-97.14 145-144.28 249.459-143.07 104.459 1.2 206.183 35.65 310.625 37.02 174.63 2.3 339.621-89.85 456.388-214.62 124.468-133 174.955-263.29 249.213-424.5" fill="url(#u8akvvcqot)"/>
                <path d="M816.477 1268.52c-.489-34.63-11.625-68.75-46.727-97.63-93.013-76.49-297.176 43.21-432.096 104.97-39.368 18.02-80.217 35.4-122.954 45.33-1.156.29-2.28.62-3.436.9-13.497 3.23-27.384 5.55-41.37 6.27-2.1.12-4.216.17-6.333.2-1.237.02-2.475.02-3.712 0-1.872-.01-3.728-.04-5.601-.14-12.845-.55-25.707-2.7-38.406-6.99-7.946-2.57-15.646-5.73-22.859-9.62-17.062-9.23-31.13-22.46-43.014-37.29 9.068 12.37 20.465 27.84 23.623 32.13 16.33 22.15 36.16 42.59 58.303 60 26.928 21.17 57.569 36.47 90.717 46.46 39.351 11.86 80.216 18.53 121.049 11.28 77.367-13.73 148.955-49.88 226.745-63.21 41.354-7.09 83.994-9.2 125.543-2.27 60.842 10.15 98.369 32.35 98.369 32.35 2.882-14.95 7.343-31.39 11.527-48.62 4.787-23.6 8.629-48.63 10.615-74.13l.017.01z" fill="url(#apjydcqbzu)"/>
                <path d="M38.273 1258.48a226.846 226.846 0 0 0 11.69 16.03c-1.986-2.7-3.842-5.25-5.503-7.5a212.06 212.06 0 0 1-6.187-8.53z" fill="url(#zva9dy68cv)"/>
                <path d="M154.227 1328.42c1.872.1 3.728.13 5.6.14-1.872 0-3.728-.06-5.6-.14z" fill="url(#t6ol3z92iw)"/>
                <path d="M154.227 1328.42c1.872.1 3.728.13 5.6.14-1.872 0-3.728-.06-5.6-.14z" fill="url(#v8odvzva5x)"/>
                <path d="M38.273 1258.48c2.036 2.97 4.103 5.77 6.187 8.53-3.028-4.15-5.324-7.29-6.187-8.53z" fill="url(#chwmzvup5y)"/>
                <path d="M38.273 1258.48c2.036 2.97 4.103 5.77 6.187 8.53-3.028-4.15-5.324-7.29-6.187-8.53z" fill="url(#no2vjngs3z)"/>
                <path d="M163.539 1328.56a147.9 147.9 0 0 0 6.333-.2c-2.116.11-4.216.17-6.333.2z" fill="url(#h1v60geynA)"/>
                <path d="M163.539 1328.56a147.9 147.9 0 0 0 6.333-.2c-2.116.11-4.216.17-6.333.2z" fill="url(#5jy427t91B)"/>
                <path d="M115.82 1321.43c-24.91-8.43-49.184-25.17-71.36-54.42 1.645 2.25 3.518 4.8 5.504 7.51 11.885 14.83 25.952 28.06 43.014 37.29 7.213 3.9 14.897 7.06 22.859 9.62h-.017z" fill="url(#3jwyflth3C)"/>
                <path d="M-503.051 343.052c-93.046-8.385-189.331-12.577-282.182-29.55-22.712 74.243-53.418 150.864-64.033 228.47C-869.91 692.93-790.85 814.056-682.76 892.835c90.571 66.015 205.612 62.136 313.604 60.915 128.408-1.439 230.017 22.089 305.528 125.76 27.71 38.04 46.954 79.51 68.673 120.61 10.534 19.69 20.775 39.67 33.213 58.35a229.145 229.145 0 0 0 11.69 16.03c11.885 14.83 25.952 28.06 43.015 37.29 7.212 3.9 14.896 7.06 22.858 9.62 12.699 4.31 25.561 6.45 38.407 7 1.872.08 3.728.12 5.6.14h3.712c2.117-.03 4.217-.1 6.334-.21 14.001-.7 27.873-3.03 41.37-6.27 1.156-.28 2.279-.61 3.435-.89 42.542-10.56 83.407-27.27 122.97-45.38 134.92-61.76 339.084-181.46 432.097-104.97 35.085 28.85 46.222 62.95 46.726 97.57 8.71-112.34-18.772-233.16-160.725-276.308-128.034-38.905-224.368 46.068-372.688 135.128-39.253 23.56-87.852 44.6-135.197 42.14-21.784-1.12-43.796-8.41-59.328-23.15-23.738-22.54-27.206-55.64-29.387-85.94-8.857-122.867-11.543-247.653-34.532-368.951-4.33-22.855-31.634-155.901-131.534-240.766-99.118-84.192-270.524-96.191-396.148-107.501h.016z" fill="url(#58wqr7kufD)"/>
                <path d="M78.838 2366.3c-97.002-4.99-187.589 17.43-270.898 63.98-155.207 86.75-216.244 268.22-377.019 341.39-134.887 61.38-270.426 56.64-387.666-30.23-88.035-65.21-175.815-186.71-264.515-245.5-89.81-59.52-205.24-80.45-296.01-81.64 121.87-.46 196.03-96.13 372.68-114.83 108.44-11.46 221.759 23.23 311.222 83.24 91.727 61.53 140.521 135.58 234.267 227.24 98.744 96.55 245.664 184.4 372.297 108.51 82.528-49.44 106.38-95.14 170.397-192.27 28.752-43.63 78.246-118.57 134.48-159.23.603-.44.196-.19.75-.67" fill="url(#p7vhz87sxE)"/>
                <path d="M1493.82 1546.18c-44.3 3.08-113.02 31.55-137.33 87.99-33.93 78.81 24.98 146.34 20.68 244.08-6.76 153.57-149.3 176.02-219.23 230.99a385.572 385.572 0 0 0-32.74 28.83c82.81 50.84 167.39 94.88 264.41 115.35 77.97 16.46 162.32 12.68 222.54-24.65 30.69-19.02 55.11-46.76 69.23-84.97 67.04-181.53-137.1-269.57-197.78-417.01-27.5-66.83-13.62-117.46 10.22-180.52" fill="url(#zhsd9fq1xF)"/>
                <path d="M615.425 2732.9c-67.811-57.58-130.46-118.71-194.086-180.44-50.715-49.21-104.491-96.64-167.059-131.7-54.346-30.46-112.941-47.87-175.264-54.58 46.807-38.17 101.56-67.61 160.139-85.32 51.611-15.6 96.579-23.29 156.135-24.4 54.313-1.02 113.087 15.2 164.323 32.38 200.175 67.09 390.043 242.19 438.805 445.14 42.832 178.29-36.258 369.34-168.524 501-58.4 58.13-128.294 109.01-164.78 181.8-35.688 71.21-34.402 154.67-19.309 232.35 36.567 188.24 152.65 361.06 316.095 470.61-88.015-54.04-98.012-177.08-64.538-272.16 33.474-95.08 99.005-177.39 132.638-272.41 56.24-158.86 16.01-338.11-71.405-483.38-93.176-154.83-206.557-241.23-343.17-358.9" fill="url(#n28sryt05G)"/>
                <path d="M1010.55 2079.91c-34.43-10.25-71.648-10.62-111.064 12.53-104.459 61.35-49.055 284.92-29.631 427.29 5.665 41.55 10.24 84.24 6.887 126.37-.066 1.14-.098 2.28-.179 3.41-.961 13.34-2.964 26.74-6.578 39.75-.537 1.96-1.124 3.91-1.758 5.85a127.89 127.89 0 0 1-1.14 3.4c-.602 1.7-1.205 3.39-1.872 5.06-4.51 11.56-10.615 22.66-18.805 32.93-4.998 6.48-10.501 12.53-16.59 17.91-14.409 12.75-31.846 21.51-50.211 27.79 15.044-4.48 33.881-10.09 39.107-11.66 26.962-8.07 53.337-19.88 77.416-34.72 29.273-18.07 53.874-41.35 74.013-68.55 23.901-32.29 43.115-67.58 48.565-107.13 10.32-74.93-3.35-151.52 7.51-226.73 5.76-39.99 16.85-79.6 36.55-115.42 28.85-52.47 62.42-79.89 62.42-79.89-13.92-7.24-28.8-16.41-44.56-25.56-21.88-11.67-45.47-22.92-70.09-32.6l.01-.03z" fill="url(#udo8k4payH)"/>
                <path d="M760.148 2787.92c6.545-1.64 13.058-3.53 19.472-5.72-3.288.97-6.382 1.89-9.133 2.7-3.354 1.05-6.773 2.08-10.339 3.02z" fill="url(#jrzfbje7tI)"/>
                <path d="M865.211 2703.57c.667-1.67 1.27-3.37 1.872-5.06a135.96 135.96 0 0 1-1.872 5.06z" fill="url(#wy0ls7jy4J)"/>
                <path d="M865.211 2703.57c.667-1.67 1.27-3.37 1.872-5.06a135.96 135.96 0 0 1-1.872 5.06z" fill="url(#g65rrxo5aK)"/>
                <path d="M760.148 2787.92c3.566-.95 6.985-1.97 10.339-3.02-5.031 1.49-8.857 2.61-10.339 3.02z" fill="url(#quo8udtunL)"/>
                <path d="M760.148 2787.92c3.566-.95 6.985-1.97 10.339-3.02-5.031 1.49-8.857 2.61-10.339 3.02z" fill="url(#htwj10qo1M)"/>
                <path d="M868.227 2695.09z" fill="url(#cmjnqr6ubN)"/>
                <path d="M868.227 2695.09z" fill="url(#dw6is7h2eO)"/>
                <path d="M846.426 2736.5c-16.053 20.16-40.116 37.17-75.918 48.4 2.735-.81 5.845-1.74 9.133-2.71 18.349-6.27 35.802-15.03 50.211-27.78 6.089-5.38 11.592-11.43 16.59-17.91h-.016z" fill="url(#32i1rcee7P)"/>
                <path d="M-313.238 2999.7c-37.055 82.44-70.952 169.12-116.457 248.73 66.475 43.69 132.82 95.42 206.361 129.12 143.044 65.5 287.359 30.71 398.753-43.74 93.339-62.37 125.038-168.7 157.209-267.75 38.244-117.79 92.948-203.36 218.898-240.34 46.222-13.57 93.225-18.34 140.602-25.49 22.761-3.53 45.685-6.72 68.022-12.32 6.545-1.65 13.057-3.54 19.472-5.73 18.349-6.27 35.802-15.03 50.211-27.78 6.089-5.38 11.592-11.44 16.59-17.91 8.173-10.28 14.278-21.37 18.804-32.93.652-1.68 1.287-3.38 1.873-5.07.39-1.13.765-2.25 1.139-3.4.619-1.94 1.205-3.89 1.759-5.85 3.63-13.01 5.617-26.4 6.577-39.75.082-1.14.114-2.26.179-3.41 2.687-42.12-1.221-84.64-6.919-126.38-19.439-142.37-74.827-365.94 29.631-427.29 39.4-23.14 76.586-22.8 111.024-12.55-108.5-42.66-236.599-54.91-323.181 61.49-78.084 104.97-23.721 219.26 18.577 382.33 11.201 43.14 16.997 94.06-.049 136.56-7.848 19.57-21.866 37.42-41.256 47.06-29.648 14.73-63.496 7.66-94.153.29-124.354-29.88-248.708-65.98-375.862-82.45-23.966-3.1-164.096-19.27-278.958 45.79-113.967 64.56-178.798 217.48-228.829 328.79l-.017-.02z" fill="url(#vr8s8a4ovQ)"/>
                <path d="M1868.35 3091.9c-34.92 87.09-40.72 176.8-20.38 267.31 37.88 168.64 198.67 280.49 221.4 450.01 19.08 142.23-27.5 264.63-149.7 344.92-91.76 60.29-239.15 102.97-324.76 165.85-86.66 63.67-143.06 162.68-172.28 245.26 37.21-111.51-34.59-208.84 1.51-376.02 22.16-102.63 91.53-195.48 178.57-258.68 89.25-64.81 177.62-86.5 297.32-143.84 126.08-60.39 258.43-167.5 222.47-306.68-23.45-90.7-61.3-126.6-137.66-215.13-34.3-39.76-93.19-108.14-116.05-172.11-.25-.68-.11-.23-.42-.89" fill="url(#dig7dg9rjR)"/>
                <path d="M1815.76 927.104c-36.47-1.94-73.19 6.711-107.98 29.644-165.3 108.982-53.99 295.522-95.09 449.052-18.65 69.6-60.86 102.72-118.71 140.28-129.77-77.45-161.78-241.91-118.93-374.74 17.78-55.14 48.04-106.81 89.67-148.59 52.56-52.767 125.64-82.943 199.79-94.66 51.97-8.213 105.34-7.9 157.4-.626" fill="url(#6dzritmyqS)"/>
            </g>
        </g>
    </g>
    <defs>
        <linearGradient id="zn1jjqdjbd" x1="1252.06" y1="826.991" x2="1265.68" y2="1493" gradientUnits="userSpaceOnUse">
            <stop stop-color="#fff"/>
            <stop offset="1" stop-color="#fff" stop-opacity="0"/>
        </linearGradient>
        <linearGradient id="t13or86nle" x1="1036.52" y1="1331.33" x2="1600.43" y2="1331.33" gradientUnits="userSpaceOnUse">
            <stop stop-color="#fff"/>
            <stop offset="1" stop-color="#fff" stop-opacity="0"/>
        </linearGradient>
        <linearGradient id="jfvn6ebwcf" x1="2963.96" y1="992.542" x2="438.332" y2="-666.566" gradientUnits="userSpaceOnUse">
            <stop stop-color="#fff"/>
            <stop offset="1" stop-color="#fff" stop-opacity="0"/>
        </linearGradient>
        <linearGradient id="uu84z18r6g" x1="1231.89" y1="500.344" x2="1648.34" y2="500.344" gradientUnits="userSpaceOnUse">
            <stop stop-color="#fff"/>
            <stop offset="1" stop-color="#fff" stop-opacity="0"/>
        </linearGradient>
        <linearGradient id="nyzk8zxsoh" x1="1289.55" y1="134.384" x2="2108.28" y2="134.384" gradientUnits="userSpaceOnUse">
            <stop stop-color="#fff"/>
            <stop offset="1" stop-color="#fff" stop-opacity="0"/>
        </linearGradient>
        <linearGradient id="7kzx3onuei" x1="1231.88" y1="256.73" x2="1648.42" y2="256.73" gradientUnits="userSpaceOnUse">
            <stop stop-color="#fff"/>
            <stop offset="1" stop-color="#fff" stop-opacity="0"/>
        </linearGradient>
        <linearGradient id="25t0uensfj" x1="1289.55" y1="256.73" x2="2108.37" y2="256.73" gradientUnits="userSpaceOnUse">
            <stop stop-color="#fff"/>
            <stop offset="1" stop-color="#fff" stop-opacity="0"/>
        </linearGradient>
        <linearGradient id="bqo2pjmn7k" x1="1231.89" y1="130.724" x2="1648.39" y2="130.724" gradientUnits="userSpaceOnUse">
            <stop stop-color="#fff"/>
            <stop offset="1" stop-color="#fff" stop-opacity="0"/>
        </linearGradient>
        <linearGradient id="4ayuruipdl" x1="1289.56" y1="130.724" x2="2108.29" y2="130.724" gradientUnits="userSpaceOnUse">
            <stop stop-color="#fff"/>
            <stop offset="1" stop-color="#fff" stop-opacity="0"/>
        </linearGradient>
        <linearGradient id="5j6ofsbalm" x1="1231.89" y1="265.554" x2="1648.37" y2="265.554" gradientUnits="userSpaceOnUse">
            <stop stop-color="#fff"/>
            <stop offset="1" stop-color="#fff" stop-opacity="0"/>
        </linearGradient>
        <linearGradient id="talxxnz2ln" x1="1289.55" y1="265.554" x2="2108.26" y2="265.554" gradientUnits="userSpaceOnUse">
            <stop stop-color="#fff"/>
            <stop offset="1" stop-color="#fff" stop-opacity="0"/>
        </linearGradient>
        <linearGradient id="r5q008md3o" x1="1231.89" y1="175.87" x2="1648.39" y2="175.87" gradientUnits="userSpaceOnUse">
            <stop stop-color="#fff"/>
            <stop offset="1" stop-color="#fff" stop-opacity="0"/>
        </linearGradient>
        <linearGradient id="frnun78nyp" x1="1184.59" y1="-57.058" x2="2147.38" y2="-24.934" gradientUnits="userSpaceOnUse">
            <stop stop-color="#fff"/>
            <stop offset="1" stop-color="#fff" stop-opacity="0"/>
        </linearGradient>
        <linearGradient id="e681rwtt3q" x1="324.695" y1="461.333" x2="-443.78" y2="-655.191" gradientUnits="userSpaceOnUse">
            <stop stop-color="#fff"/>
            <stop offset="1" stop-color="#fff" stop-opacity="0"/>
        </linearGradient>
        <linearGradient id="spuyzq566r" x1="708.09" y1="1544.31" x2="1367.28" y2="1751.19" gradientUnits="userSpaceOnUse">
            <stop stop-color="#fff"/>
            <stop offset="1" stop-color="#fff" stop-opacity="0"/>
        </linearGradient>
        <linearGradient id="dxuvqltr8s" x1="1140.69" y1="1897.12" x2="1302.75" y2="1378.01" gradientUnits="userSpaceOnUse">
            <stop stop-color="#fff"/>
            <stop offset="1" stop-color="#fff" stop-opacity="0"/>
        </linearGradient>
        <linearGradient id="u8akvvcqot" x1="1400.96" y1="31.123" x2="-872.722" y2="1998.56" gradientUnits="userSpaceOnUse">
            <stop stop-color="#fff"/>
            <stop offset="1" stop-color="#fff" stop-opacity="0"/>
        </linearGradient>
        <linearGradient id="apjydcqbzu" x1="378.537" y1="1461.8" x2="498.222" y2="1078.43" gradientUnits="userSpaceOnUse">
            <stop stop-color="#fff"/>
            <stop offset="1" stop-color="#fff" stop-opacity="0"/>
        </linearGradient>
        <linearGradient id="zva9dy68cv" x1="34.132" y1="1296.02" x2="269.43" y2="542.326" gradientUnits="userSpaceOnUse">
            <stop stop-color="#fff"/>
            <stop offset="1" stop-color="#fff" stop-opacity="0"/>
        </linearGradient>
        <linearGradient id="t6ol3z92iw" x1="137.398" y1="1386.35" x2="256.455" y2="1003.87" gradientUnits="userSpaceOnUse">
            <stop stop-color="#fff"/>
            <stop offset="1" stop-color="#fff" stop-opacity="0"/>
        </linearGradient>
        <linearGradient id="v8odvzva5x" x1="155.217" y1="1333.81" x2="389.256" y2="581.944" gradientUnits="userSpaceOnUse">
            <stop stop-color="#fff"/>
            <stop offset="1" stop-color="#fff" stop-opacity="0"/>
        </linearGradient>
        <linearGradient id="chwmzvup5y" x1="12.673" y1="1347.58" x2="132.375" y2="964.166" gradientUnits="userSpaceOnUse">
            <stop stop-color="#fff"/>
            <stop offset="1" stop-color="#fff" stop-opacity="0"/>
        </linearGradient>
        <linearGradient id="no2vjngs3z" x1="30.493" y1="1294.88" x2="265.798" y2="541.182" gradientUnits="userSpaceOnUse">
            <stop stop-color="#fff"/>
            <stop offset="1" stop-color="#fff" stop-opacity="0"/>
        </linearGradient>
        <linearGradient id="h1v60geynA" x1="146.146" y1="1389.1" x2="265.292" y2="1006.48" gradientUnits="userSpaceOnUse">
            <stop stop-color="#fff"/>
            <stop offset="1" stop-color="#fff" stop-opacity="0"/>
        </linearGradient>
        <linearGradient id="5jy427t91B" x1="163.966" y1="1336.53" x2="398.178" y2="584.409" gradientUnits="userSpaceOnUse">
            <stop stop-color="#fff"/>
            <stop offset="1" stop-color="#fff" stop-opacity="0"/>
        </linearGradient>
        <linearGradient id="3jwyflth3C" x1="57.376" y1="1361.54" x2="177.074" y2="978.127" gradientUnits="userSpaceOnUse">
            <stop stop-color="#fff"/>
            <stop offset="1" stop-color="#fff" stop-opacity="0"/>
        </linearGradient>
        <linearGradient id="58wqr7kufD" x1="-187.813" y1="1332.77" x2="116.676" y2="454.291" gradientUnits="userSpaceOnUse">
            <stop stop-color="#fff"/>
            <stop offset="1" stop-color="#fff" stop-opacity="0"/>
        </linearGradient>
        <linearGradient id="p7vhz87sxE" x1="59.629" y1="2279.84" x2="-1257.25" y2="2715" gradientUnits="userSpaceOnUse">
            <stop stop-color="#fff"/>
            <stop offset="1" stop-color="#fff" stop-opacity="0"/>
        </linearGradient>
        <linearGradient id="zhsd9fq1xF" x1="1250.06" y1="2264.15" x2="1624.52" y2="1703.01" gradientUnits="userSpaceOnUse">
            <stop stop-color="#fff"/>
            <stop offset="1" stop-color="#fff" stop-opacity="0"/>
        </linearGradient>
        <linearGradient id="n28sryt05G" x1="-33.62" y1="1163.4" x2="1023.03" y2="3921.17" gradientUnits="userSpaceOnUse">
            <stop stop-color="#fff"/>
            <stop offset="1" stop-color="#fff" stop-opacity="0"/>
        </linearGradient>
        <linearGradient id="udo8k4payH" x1="1066.56" y1="2539.8" x2="739.054" y2="2292.16" gradientUnits="userSpaceOnUse">
            <stop stop-color="#fff"/>
            <stop offset="1" stop-color="#fff" stop-opacity="0"/>
        </linearGradient>
        <linearGradient id="jrzfbje7tI" x1="796.034" y1="2803.29" x2="152.148" y2="2316.43" gradientUnits="userSpaceOnUse">
            <stop stop-color="#fff"/>
            <stop offset="1" stop-color="#fff" stop-opacity="0"/>
        </linearGradient>
        <linearGradient id="wy0ls7jy4J" x1="917.526" y1="2736.89" x2="589.983" y2="2489.21" gradientUnits="userSpaceOnUse">
            <stop stop-color="#fff"/>
            <stop offset="1" stop-color="#fff" stop-opacity="0"/>
        </linearGradient>
        <linearGradient id="g65rrxo5aK" x1="870.871" y1="2704.32" x2="227.002" y2="2217.44" gradientUnits="userSpaceOnUse">
            <stop stop-color="#fff"/>
            <stop offset="1" stop-color="#fff" stop-opacity="0"/>
        </linearGradient>
        <linearGradient id="quo8udtunL" x1="840.439" y1="2838.83" x2="512.906" y2="2591.16" gradientUnits="userSpaceOnUse">
            <stop stop-color="#fff"/>
            <stop offset="1" stop-color="#fff" stop-opacity="0"/>
        </linearGradient>
        <linearGradient id="htwj10qo1M" x1="793.785" y1="2806.26" x2="149.936" y2="2319.39" gradientUnits="userSpaceOnUse">
            <stop stop-color="#fff"/>
            <stop offset="1" stop-color="#fff" stop-opacity="0"/>
        </linearGradient>
        <linearGradient id="cmjnqr6ubN" x1="922.939" y1="2729.74" x2="595.392" y2="2482.04" gradientUnits="userSpaceOnUse">
            <stop stop-color="#fff"/>
            <stop offset="1" stop-color="#fff" stop-opacity="0"/>
        </linearGradient>
        <linearGradient id="dw6is7h2eO" x1="876.282" y1="2697.17" x2="232.404" y2="2210.26" gradientUnits="userSpaceOnUse">
            <stop stop-color="#fff"/>
            <stop offset="1" stop-color="#fff" stop-opacity="0"/>
        </linearGradient>
        <linearGradient id="32i1rcee7P" x1="868.071" y1="2802.29" x2="540.529" y2="2554.62" gradientUnits="userSpaceOnUse">
            <stop stop-color="#fff"/>
            <stop offset="1" stop-color="#fff" stop-opacity="0"/>
        </linearGradient>
        <linearGradient id="vr8s8a4ovQ" x1="763.829" y1="3017.46" x2="26.085" y2="2421.1" gradientUnits="userSpaceOnUse">
            <stop stop-color="#fff"/>
            <stop offset="1" stop-color="#fff" stop-opacity="0"/>
        </linearGradient>
        <linearGradient id="dig7dg9rjR" x1="1776.84" y1="3082.73" x2="1768.22" y2="4420.38" gradientUnits="userSpaceOnUse">
            <stop stop-color="#fff"/>
            <stop offset="1" stop-color="#fff" stop-opacity="0"/>
        </linearGradient>
        <linearGradient id="6dzritmyqS" x1="1564.6" y1="1061.79" x2="1726.67" y2="1580.9" gradientUnits="userSpaceOnUse">
            <stop stop-color="#fff"/>
            <stop offset="1" stop-color="#fff" stop-opacity="0"/>
        </linearGradient>
        <clipPath id="ql6ja44kha">
            <path fill="#fff" transform="matrix(1 0 0 -1 0 4070)" d="M0 0h1440v4070H0z"/>
        </clipPath>
        <clipPath id="8rurezcmjb">
            <path fill="#fff" transform="translate(0 -326)" d="M0 0h1440v4364H0z"/>
        </clipPath>
        <clipPath id="p8u5ifh5oc">
            <path fill="#fff" transform="translate(-1518 -1536)" d="M0 0h6408v6207H0z"/>
        </clipPath>
    </defs>
</svg>
