<svg width="64" height="64" viewBox="0 0 64 64" fill="none" xmlns="http://www.w3.org/2000/svg">
<path d="M49.7917 57.4168H14.2082C13.9737 57.4168 13.7587 57.2855 13.6519 57.0768C13.5449 56.868 13.5639 56.617 13.7007 56.4265L16.7007 52.2598C16.8184 52.0968 17.0072 52 17.2079 52H30.0657C30.4109 52 30.6907 52.2798 30.6907 52.625C30.6907 52.9702 30.4109 53.25 30.0657 53.25H17.5282L15.4284 56.1668H48.5714L46.4717 53.25H33.9342C33.5889 53.25 33.3092 52.9702 33.3092 52.625C33.3092 52.2798 33.5889 52 33.9342 52H46.7919C46.9929 52 47.1817 52.0968 47.2992 52.2598L50.2992 56.4265C50.4362 56.617 50.4549 56.868 50.3479 57.0768C50.2412 57.2853 50.0262 57.4168 49.7917 57.4168Z" fill="#003A4E"/>
<path d="M57.2469 59.2043L49.7469 49.371C49.6284 49.216 49.4447 49.125 49.2499 49.125H36.7977C41.0734 41.8483 46.9999 30.385 46.9999 22.75C46.9999 14.479 40.2709 7.75 31.9999 7.75C23.7289 7.75 16.9999 14.479 16.9999 22.75C16.9999 30.385 22.9264 41.8483 27.2022 49.125H14.7499C14.5552 49.125 14.3712 49.216 14.2529 49.371L6.75293 59.2043C6.60893 59.3932 6.58443 59.6475 6.68993 59.8605C6.79518 60.0735 7.01243 60.2082 7.24993 60.2082H56.7499C56.9874 60.2082 57.2047 60.0735 57.3099 59.8605C57.4154 59.6475 57.3909 59.3932 57.2469 59.2043ZM31.9999 9C39.5817 9 45.7499 15.1683 45.7499 22.75C45.7499 32.812 34.5627 50.5578 31.9999 54.4902C29.4372 50.5583 18.2499 32.8148 18.2499 22.75C18.2499 15.1683 24.4182 9 31.9999 9ZM8.51268 58.9582L15.0592 50.375H27.9444C29.8559 53.559 31.3002 55.706 31.4822 55.9753C31.5984 56.1473 31.7922 56.25 31.9997 56.25C32.2072 56.25 32.4009 56.147 32.5172 55.9753C32.6994 55.706 34.1437 53.559 36.0549 50.375H48.9402L55.4869 58.9582H8.51268Z" fill="#003A4E"/>
<path d="M34.4879 33.7918H29.5119C28.9784 33.7918 28.5127 33.489 28.2962 33.0013C28.0799 32.5135 28.1674 31.965 28.5254 31.5693L30.1252 29.8005L29.6999 26.98L24.0482 28.6873C23.3837 28.8883 22.6619 28.7675 22.1197 28.3647C21.6459 28.013 21.3747 27.4907 21.3747 26.9317C21.3747 26.396 21.6284 25.8875 22.0707 25.5365L29.5487 19.607V17.17C29.5487 15.901 29.8412 14.648 30.3942 13.5468L30.5264 13.2837C30.8079 12.7235 31.3727 12.3752 32.0002 12.3752C32.6277 12.3752 33.1924 12.7235 33.4739 13.284L33.6059 13.5468C34.1592 14.6477 34.4517 15.9008 34.4517 17.17V19.607L41.9297 25.5365C42.3722 25.8875 42.6257 26.3962 42.6257 26.9317C42.6257 27.4907 42.3542 28.013 41.8807 28.3647C41.3382 28.7675 40.6169 28.8888 39.9522 28.6873L34.3004 26.98L33.8752 29.8005L35.4749 31.5693C35.8329 31.965 35.9204 32.5135 35.7042 33.0013C35.4872 33.4888 35.0214 33.7918 34.4879 33.7918ZM30.2102 25.5478C30.3272 25.5478 30.4434 25.5805 30.5442 25.6445C30.6974 25.7415 30.8012 25.9 30.8282 26.0795L31.4054 29.9067C31.4334 30.092 31.3769 30.2803 31.2512 30.419L29.4529 32.4072C29.4414 32.4198 29.4177 32.446 29.4389 32.4938C29.4602 32.5413 29.4954 32.5412 29.5122 32.5412H34.4882C34.5049 32.5412 34.5402 32.5413 34.5614 32.4938C34.5827 32.446 34.5589 32.4198 34.5474 32.4072L32.7492 30.419C32.6234 30.28 32.5669 30.092 32.5949 29.9067L33.1722 26.0795C33.1989 25.9 33.3029 25.7413 33.4562 25.6445C33.6092 25.5473 33.7974 25.5217 33.9709 25.5745L40.3137 27.4905C40.5974 27.5757 40.9124 27.5265 41.1357 27.3608C41.2252 27.294 41.3759 27.1497 41.3759 26.9315C41.3759 26.7798 41.2947 26.628 41.1529 26.5155L33.4384 20.3985C33.2889 20.28 33.2019 20.0995 33.2019 19.9088V17.1698C33.2019 16.0942 32.9554 15.0355 32.4892 14.1075L32.3572 13.8448C32.2577 13.6465 32.0744 13.625 32.0004 13.625C31.9264 13.625 31.7434 13.6465 31.6434 13.845L31.5114 14.1077C31.0454 15.0355 30.7989 16.0945 30.7989 17.1698V19.9088C30.7989 20.0995 30.7117 20.28 30.5624 20.3985L22.8474 26.5158C22.7059 26.628 22.6244 26.7798 22.6244 26.9315C22.6244 27.15 22.7752 27.2943 22.8647 27.3608C23.0879 27.5265 23.4024 27.576 23.6867 27.4905L30.0294 25.5745C30.0884 25.5567 30.1497 25.5478 30.2102 25.5478Z" fill="#003A4E"/>
</svg>
