<svg width="81" height="80" viewBox="0 0 81 80" fill="none" xmlns="http://www.w3.org/2000/svg">
<g id="baggage (2) 1">
<path id="Vector" d="M69.6613 14.6102H63.1401V5.29688C63.1401 5.04823 63.0413 4.80978 62.8655 4.63396C62.6897 4.45815 62.4512 4.35938 62.2026 4.35938H58.4776V3.125C58.4771 2.71074 58.3124 2.31358 58.0194 2.02065C57.7265 1.72772 57.3293 1.56295 56.9151 1.5625H46.9776C46.5633 1.563 46.1662 1.72778 45.8733 2.02069C45.5804 2.31361 45.4156 2.71075 45.4151 3.125V4.35938H41.6905C41.4419 4.35938 41.2035 4.45815 41.0276 4.63396C40.8518 4.80978 40.753 5.04823 40.753 5.29688V14.6094H34.2318C32.9944 14.6107 31.8082 15.1028 30.9332 15.9778C30.0583 16.8527 29.5662 18.0391 29.5649 19.2764V41.5092H22.6449C20.5062 41.5092 18.7663 43.3133 18.7663 45.5306V47.0087H10.8805C8.7418 47.0087 7.00195 48.8127 7.00195 51.0302V74.4161C7.00195 76.6334 8.7418 78.4375 10.8805 78.4375H43.5265C45.6652 78.4375 47.4052 76.6334 47.4052 74.4161V72.4266H64.0615V75.032C64.0615 75.2807 64.1603 75.5191 64.3361 75.6949C64.5119 75.8708 64.7503 75.9695 64.999 75.9695H70.5927C70.8414 75.9695 71.0798 75.8708 71.2556 75.6949C71.4315 75.5191 71.5302 75.2807 71.5302 75.032V72.0344C72.361 71.6702 73.0678 71.0721 73.5645 70.313C74.0611 69.554 74.3261 68.6668 74.3271 67.7597V19.2772C74.3258 18.04 73.8339 16.8539 72.9592 15.979C72.0845 15.104 70.8985 14.6118 69.6613 14.6102ZM47.2901 3.4375H56.6026V7.15625H47.2901V3.4375ZM42.628 6.23438H45.4151V7.46875C45.4156 7.883 45.5804 8.28014 45.8733 8.57306C46.1662 8.86597 46.5633 9.03075 46.9776 9.03125H56.9151C57.3293 9.0308 57.7265 8.86603 58.0194 8.5731C58.3124 8.28017 58.4771 7.88301 58.4776 7.46875V6.23438H61.2651V14.6094H42.628V6.23438ZM20.6413 45.5312C20.6413 44.3477 21.5402 43.3848 22.6449 43.3848H31.7621C32.867 43.3848 33.7659 44.3477 33.7659 45.5312V47.0094H20.6409L20.6413 45.5312ZM45.5302 74.4161C45.5302 75.5995 44.6313 76.5625 43.5265 76.5625H10.8805C9.77586 76.5625 8.87695 75.5995 8.87695 74.4161V67.5781C9.47667 67.9567 10.1714 68.1575 10.8805 68.1575H22.9348V69.7111C22.9348 70.8432 23.3845 71.929 24.1851 72.7296C24.9856 73.5301 26.0714 73.9798 27.2035 73.9798C28.3357 73.9798 29.4214 73.5301 30.222 72.7296C31.0225 71.929 31.4723 70.8432 31.4723 69.7111V68.1577H43.5265C44.2357 68.1577 44.9305 67.9568 45.5302 67.5783V74.4161ZM24.8098 69.7114V64.8677H29.5973V69.7114C29.5973 70.0258 29.5353 70.337 29.4151 70.6275C29.2948 70.9179 29.1184 71.1818 28.8962 71.404C28.6739 71.6263 28.41 71.8026 28.1196 71.9229C27.8291 72.0432 27.5179 72.1052 27.2035 72.1052C26.8892 72.1052 26.5779 72.0432 26.2875 71.9229C25.997 71.8026 25.7332 71.6263 25.5109 71.404C25.2886 71.1818 25.1123 70.9179 24.992 70.6275C24.8717 70.337 24.8098 70.0258 24.8098 69.7114ZM45.5302 64.1366C45.5302 65.32 44.6313 66.283 43.5265 66.283H31.4723V63.9309C31.4723 63.6823 31.3735 63.4438 31.1977 63.268C31.0219 63.0922 30.7834 62.9934 30.5348 62.9934H23.8723C23.6236 62.9934 23.3852 63.0922 23.2094 63.268C23.0335 63.4438 22.9348 63.6823 22.9348 63.9309V66.2828H10.8805C9.77586 66.2828 8.87695 65.32 8.87695 64.1364V51.0302C8.87695 49.8466 9.77586 48.8837 10.8805 48.8837H43.5265C44.6313 48.8837 45.5302 49.8467 45.5302 51.0302V64.1366ZM64.0615 70.5516H47.4052V51.0302C47.4052 48.8128 45.6652 47.0087 43.5265 47.0087H39.831V42.5861C39.8318 41.8459 40.1263 41.1362 40.6497 40.6127C41.1731 40.0893 41.8828 39.7949 42.623 39.7941H61.2701C62.0103 39.7949 62.72 40.0893 63.2434 40.6128C63.7668 41.1362 64.0612 41.8459 64.062 42.5861L64.0615 70.5516ZM69.6552 74.0945H65.9365V72.4266H69.6552V74.0945ZM72.4521 67.7597C72.4513 68.4999 72.1569 69.2095 71.6335 69.7329C71.1101 70.2563 70.4004 70.5507 69.6602 70.5516H65.937V42.5861C65.9357 41.3487 65.4436 40.1624 64.5686 39.2875C63.6937 38.4125 62.5074 37.9204 61.2701 37.9191H42.623C41.3857 37.9203 40.1993 38.4125 39.3244 39.2874C38.4494 40.1624 37.9573 41.3487 37.956 42.5861V47.0087H35.6409V45.5312C35.6409 43.3139 33.9009 41.5098 31.7621 41.5098H31.4399V19.2772C31.4407 18.537 31.7352 17.8273 32.2585 17.3039C32.7819 16.7805 33.4916 16.486 34.2318 16.4852H69.6613C70.4016 16.486 71.1112 16.7804 71.6346 17.3038C72.158 17.8273 72.4524 18.537 72.4532 19.2772L72.4521 67.7597Z" fill="#394B6D"/>
<path id="Vector_2" d="M63.1355 21.6035H40.7594C40.0164 21.6044 39.3042 21.8999 38.7788 22.4252C38.2535 22.9505 37.9579 23.6628 37.957 24.4057V31.8646C37.9579 32.6076 38.2534 33.3198 38.7788 33.8452C39.3041 34.3705 40.0164 34.666 40.7594 34.6668H63.1359C63.8788 34.6659 64.5911 34.3704 65.1164 33.8451C65.6417 33.3198 65.9371 32.6075 65.938 31.8646V24.4057C65.9371 23.6627 65.6415 22.9504 65.1162 22.4251C64.5908 21.8998 63.8784 21.6043 63.1355 21.6035ZM64.0625 31.8646C64.0622 32.1104 63.9645 32.346 63.7907 32.5199C63.6169 32.6937 63.3813 32.7915 63.1355 32.7918H40.7594C40.5135 32.7916 40.2778 32.6938 40.104 32.52C39.9301 32.3461 39.8323 32.1105 39.832 31.8646V24.4057C39.8323 24.1599 39.9301 23.9242 40.104 23.7503C40.2778 23.5765 40.5135 23.4788 40.7594 23.4785H63.1359C63.3817 23.4788 63.6174 23.5766 63.7911 23.7505C63.9649 23.9243 64.0627 24.1599 64.063 24.4057L64.0625 31.8646Z" fill="#394B6D"/>
</g>
</svg>
