<?xml version="1.0" encoding="utf-8"?>
<!-- Generator: Adobe Illustrator 27.9.0, SVG Export Plug-In . SVG Version: 6.00 Build 0)  -->
<svg version="1.1" id="Layer_1" xmlns="http://www.w3.org/2000/svg" xmlns:xlink="http://www.w3.org/1999/xlink" x="0px" y="0px"
	 viewBox="0 0 208 50" style="enable-background:new 0 0 208 50;" xml:space="preserve">
<style type="text/css">
	.st0{fill:#BD8839;}
</style>
<g>
	<g>
		<path class="st0" d="M43.5,29.6c-0.7-0.5-1.5-0.8-2.3-0.8c-1.6,0-2.6,1.4-2.6,3.8c0,2.3,1.1,3.8,2.8,3.8c0.9,0,1.6-0.4,2.4-1.3
			l-0.3,1.1c-0.7,0.6-1.6,0.9-2.5,0.9c-2.2,0-3.9-1.9-3.9-4.4c0-2.6,1.8-4.5,4.1-4.5c0.3,0,0.8,0.1,1.3,0.1c0.2,0,0.3,0,0.4,0.1
			l0.2,0c0.1,0,0.1,0,0.2,0c0,0,0.1,0,0.1,0L43.5,29.6z"/>
		<path class="st0" d="M44.6,34c0-1.9,1.2-3.2,2.9-3.2c1.8,0,2.8,1.2,2.8,3.1c0,1.9-1.2,3.3-2.9,3.3c-1.6,0-2.7-1.1-2.8-2.8
			C44.6,34.2,44.6,34.1,44.6,34z M45.9,33.3c0,0.1,0,0.2,0,0.3c0,1.8,0.7,3,1.6,3c0.9,0,1.4-0.9,1.4-2.5c0-1.7-0.6-2.8-1.6-2.8
			C46.5,31.3,46,32,45.9,33.3z"/>
		<path class="st0" d="M51.4,37c0.1-0.3,0.1-0.4,0.1-0.8c0-0.2,0-0.4,0-0.4v-0.2v-3.3v-0.2c0-0.1,0-0.2,0-0.4v-0.4
			c0-0.1,0-0.2,0-0.4h1.3v0.7c0.5-0.6,1.2-0.9,1.9-0.9c0.6,0,1.1,0.2,1.4,0.6c0.3,0.3,0.3,0.6,0.3,1.4c0,0.2,0,0.4,0,0.6
			c0,0.2,0,0.6,0,1.3v0.9v0.1c0,0,0,0.2,0,0.5c0,0.5,0,0.5,0.1,0.8h-1.3v-1.3v-1v-1.2c0-0.6,0-0.9,0-1s0-0.1,0-0.2
			c-0.1-0.4-0.5-0.6-1-0.6c-0.4,0-0.8,0.2-1.1,0.5c-0.3,0.3-0.3,0.4-0.3,1.4v1.3v0.3v0.5v0.1v0.1v0.3c0,0.4,0,0.5,0.1,0.8H51.4z"/>
		<path class="st0" d="M61.4,29.7v-0.1l0-0.4v-0.4c0-0.1,0-0.2,0-0.4h1.2v7.3c0,0,0,0.1,0,0.2v0.4c0,0.4,0,0.5,0.1,0.8h-1.3v-0.9
			c-0.4,0.7-0.9,1-1.6,1c-1.3,0-2.2-1.2-2.2-3c0-2,1.1-3.3,2.7-3.3c0.4,0,0.7,0.1,1.2,0.3V29.7z M58.9,33.8l0,0.1
			c-0.1,1.5,0.5,2.3,1.4,2.3c0.4,0,0.8-0.3,1-0.6c0.2-0.3,0.2-0.6,0.2-1.2v-0.1v-1.1v-0.4c0-0.7,0-0.9-0.2-1.1
			c-0.2-0.3-0.5-0.4-0.9-0.4C59.4,31.3,59,32.2,58.9,33.8z"/>
		<path class="st0" d="M68.5,36.2c-0.6,0.6-1.3,0.9-2,0.9c-1.6,0-2.7-1.2-2.7-3c0-1.9,1.1-3.2,2.7-3.2c1.2,0,2.2,1,2.2,2
			c0,0.2-0.1,0.3-0.4,0.3h-0.3h-2.9c0,0.3-0.1,0.5-0.1,0.7c0,1.5,0.6,2.4,1.8,2.4c0.6,0,1.3-0.3,1.8-0.8L68.5,36.2z M65.3,32.7h1.5
			c0.5,0,0.7-0.1,0.7-0.5c0-0.5-0.4-0.9-0.9-0.9C65.9,31.3,65.4,31.8,65.3,32.7z M66.4,30.6l0.5-1.7h1.4L66.4,30.6z"/>
		<path class="st0" d="M74.6,28.4l4.8,6.5v-4.7V30v-0.2v-0.3c0-0.5,0-0.7-0.1-1.1h1c-0.1,0.5-0.1,0.8-0.1,1.1v0V30v0.2V37h-0.9
			l-5.2-7v5.2v0.2v0.2l0,0.4c0,0.4,0,0.6,0.1,1.1h-1c0.1-0.5,0.2-0.7,0.2-1.4v-0.2l0-0.2V30c0-0.5,0-0.6-0.1-1.1
			c0-0.3-0.1-0.4-0.2-0.6H74.6z"/>
		<path class="st0" d="M84.6,36.2c-0.4,0.6-1,0.9-1.7,0.9c-0.9,0-1.5-0.6-1.5-1.4c0-0.6,0.4-1.1,1.2-1.5l0.8-0.4
			c0.5-0.3,0.9-0.5,1-0.7c0.1-0.1,0.1-0.3,0.1-0.6c0-0.3,0-0.6,0-0.8c-0.1-0.4-0.4-0.6-0.9-0.6c-0.4,0-0.8,0.2-0.8,0.5l-0.1,0.4
			c-0.1,0.3-0.3,0.5-0.6,0.5c-0.3,0-0.6-0.2-0.6-0.5c0-0.7,1.1-1.3,2.3-1.3c0.5,0,0.9,0.1,1.3,0.2c0.5,0.2,0.7,0.5,0.7,1.3v0.1v0.3
			v2.9v0v0.1c0,0,0,0.2,0,0.4c0,0.4,0,0.5,0.1,0.8h-1.3L84.6,36.2z M84.6,33.6c-0.3,0.2-0.5,0.3-0.9,0.6c-0.6,0.3-0.8,0.5-0.9,0.8
			c-0.1,0.2-0.1,0.4-0.1,0.5c0,0.5,0.3,0.9,0.8,0.9c0.4,0,0.8-0.2,1-0.6c0.1-0.2,0.1-0.2,0.1-0.6V33.6z"/>
		<path class="st0" d="M86.8,35.9c0.2,0.1,0.2,0.2,0.4,0.3c0.4,0.3,1.1,0.5,1.5,0.5c0.6,0,1-0.4,1-0.9c0-0.2,0-0.3-0.1-0.5
			c-0.1-0.1-0.1-0.2-0.3-0.3c-0.2-0.2-0.3-0.3-1-0.7c-1.1-0.6-1.4-1.1-1.4-1.8c0-1,0.9-1.7,2.1-1.7c0.3,0,0.4,0,0.9,0.1
			c0.3,0,0.4,0.1,0.5,0.1c0.1,0,0.1,0,0.2,0l0.2,0.9c-0.5-0.3-1.2-0.6-1.6-0.6c-0.5,0-0.9,0.3-0.9,0.8c0,0.4,0.3,0.8,1.2,1.3
			c0.8,0.4,0.9,0.5,1.1,0.8c0.3,0.3,0.4,0.7,0.4,1.1c0,1.1-0.9,1.9-2.4,1.9c-0.5,0-1-0.1-1.6-0.3L86.8,35.9z"/>
		<path class="st0" d="M91.4,31.5v-0.5h0.7v-1.4l1.2-0.4l0,1.7h1l0,0.5h-1v3.8v0.1v0.2c0,0.1,0,0.2,0,0.3c0,0.3,0.3,0.5,0.6,0.5
			c0.2,0,0.4-0.1,0.6-0.3l0,0.7c-0.3,0.2-0.8,0.4-1.2,0.4c-0.8,0-1.2-0.4-1.2-1.2v0l0-0.6v-3.9H91.4z"/>
		<path class="st0" d="M98.1,28.4h6.9l0.1,0.8c-0.2,0-0.3-0.1-0.4-0.1c-0.5-0.1-1.1-0.2-1.5-0.2h-1v6.7c0,0.5,0,0.9,0.1,1.4h-1.6
			c0.1-0.5,0.2-0.9,0.2-1.4v-6.7h-1c-0.5,0-1.2,0.1-1.9,0.3L98.1,28.4z"/>
		<path class="st0" d="M104.3,37c0.1-0.3,0.1-0.5,0.1-0.8l0-0.4v-0.2v-3.3v-0.2l0-0.4c0-0.2,0-0.3,0-0.4c0-0.1,0-0.2-0.1-0.4h1.3
			v0.9c0.4-0.6,1-1.1,1.5-1.1h0.1c-0.1,0.3-0.1,0.4-0.1,0.7c0,0.3,0,0.4-0.1,0.8c-0.3-0.2-0.5-0.3-0.7-0.3c-0.4,0-0.7,0.5-0.7,1.3
			v2.4v0.1v0.1c0,0.1,0,0.2,0,0.4c0,0.2,0,0.3,0,0.3c0,0.2,0,0.3,0.1,0.5H104.3z"/>
		<path class="st0" d="M110.6,36.2c-0.4,0.6-1,0.9-1.7,0.9c-0.9,0-1.5-0.6-1.5-1.4c0-0.6,0.4-1.1,1.2-1.5l0.8-0.4
			c0.5-0.3,0.9-0.5,1-0.7c0.1-0.1,0.1-0.3,0.1-0.6c0-0.3,0-0.6,0-0.8c-0.1-0.4-0.4-0.6-0.9-0.6c-0.4,0-0.8,0.2-0.8,0.5l-0.1,0.4
			c-0.1,0.3-0.3,0.5-0.6,0.5c-0.3,0-0.6-0.2-0.6-0.5c0-0.7,1.1-1.3,2.3-1.3c0.5,0,0.9,0.1,1.3,0.2c0.5,0.2,0.7,0.5,0.7,1.3v0.1v0.3
			v2.9v0v0.1c0,0,0,0.2,0,0.4c0,0.4,0,0.5,0.1,0.8h-1.3L110.6,36.2z M110.6,33.6c-0.3,0.2-0.5,0.3-0.9,0.6c-0.6,0.3-0.8,0.5-0.9,0.8
			c-0.1,0.2-0.1,0.4-0.1,0.5c0,0.5,0.3,0.9,0.8,0.9c0.4,0,0.8-0.2,1-0.6c0.1-0.2,0.1-0.2,0.1-0.6V33.6z"/>
		<path class="st0" d="M114,30.9v0.2c0,0.2,0,0.3,0.1,0.6c0.1,0.2,0.1,0.3,0.1,0.4l0,0.2l1.3,3.3l1.2-3.3c0.2-0.4,0.2-0.8,0.2-1
			c0-0.1,0-0.2-0.1-0.4h1.1c-0.1,0.3-0.2,0.4-0.3,0.5l-0.1,0.3c-0.1,0.2-0.1,0.3-0.2,0.4l0,0.1l-1.7,4.7h-0.9l-1.8-4.7l-0.1-0.1
			c0-0.1-0.1-0.2-0.2-0.4l-0.1-0.3c-0.1-0.2-0.1-0.3-0.3-0.5H114z"/>
		<path class="st0" d="M122.8,36.2c-0.6,0.6-1.3,0.9-2,0.9c-1.6,0-2.7-1.2-2.7-3c0-1.9,1.1-3.2,2.7-3.2c1.2,0,2.2,1,2.2,2
			c0,0.2-0.1,0.3-0.4,0.3h-0.3h-2.9c0,0.3-0.1,0.5-0.1,0.7c0,1.5,0.6,2.4,1.8,2.4c0.6,0,1.3-0.3,1.8-0.8L122.8,36.2z M119.6,32.7
			h1.5c0.5,0,0.7-0.1,0.7-0.5c0-0.5-0.4-0.9-0.9-0.9C120.2,31.3,119.7,31.8,119.6,32.7z"/>
		<path class="st0" d="M125.4,28.4v7.3c0,0.1,0,0.2,0,0.6c0,0.3,0,0.3,0,0.4c0,0.1,0,0.2,0.1,0.4h-1.4c0-0.2,0.1-0.3,0.1-0.4
			c0,0,0-0.2,0-0.4c0-0.2,0-0.3,0-0.4v-0.2v-5.9v-0.2v0v-0.3c0-0.4,0-0.5-0.1-0.8H125.4z"/>
		<path class="st0" d="M131.2,36.2c-0.6,0.6-1.3,0.9-2,0.9c-1.6,0-2.7-1.2-2.7-3c0-1.9,1.1-3.2,2.7-3.2c1.2,0,2.2,1,2.2,2
			c0,0.2-0.1,0.3-0.4,0.3h-0.3h-2.9c0,0.3-0.1,0.5-0.1,0.7c0,1.5,0.6,2.4,1.8,2.4c0.6,0,1.3-0.3,1.8-0.8L131.2,36.2z M128,32.7h1.5
			c0.5,0,0.7-0.1,0.7-0.5c0-0.5-0.4-0.9-0.9-0.9C128.6,31.3,128.1,31.8,128,32.7z"/>
		<path class="st0" d="M132.5,37c0.1-0.3,0.1-0.5,0.1-0.8l0-0.4v-0.2v-3.3v-0.2l0-0.4c0-0.2,0-0.3,0-0.4c0-0.1,0-0.2-0.1-0.4h1.3
			v0.9c0.4-0.6,1-1.1,1.5-1.1h0.1c-0.1,0.3-0.1,0.4-0.1,0.7c0,0.3,0,0.4-0.1,0.8c-0.3-0.2-0.5-0.3-0.7-0.3c-0.4,0-0.7,0.5-0.7,1.3
			v2.4v0.1v0.1c0,0.1,0,0.2,0,0.4c0,0.2,0,0.3,0,0.3c0,0.2,0,0.3,0.1,0.5H132.5z"/>
		<path class="st0" d="M141.6,28.5c-0.7,1.1-1,2.6-1,4.2s0.4,3.2,1,4.2c0.2,0.3,0.3,0.5,0.7,1c-1.8-0.9-3-3-3-5.2s1.2-4.2,3-5.2
			C141.9,28,141.8,28.2,141.6,28.5z"/>
		<path class="st0" d="M144.5,28.4c0,0.3-0.1,0.4-0.1,0.6c0,0.2,0,0.5,0,0.7V30l0,0.2v4.4c0,1.2,0.6,1.8,1.8,1.8
			c0.7,0,1.3-0.3,1.7-0.7c0.3-0.4,0.4-0.7,0.4-1.5v-4V30v-0.3v-0.2c0-0.4,0-0.7-0.1-1.1h1.6c-0.1,0.4-0.1,0.6-0.1,1.1V30v0.2v5v0.2
			v0.5c0,0.5,0,0.7,0.1,1.1h-1.5v-1c-0.7,0.8-1.7,1.2-2.9,1.2c-0.9,0-1.6-0.3-2-0.8c-0.3-0.4-0.4-0.6-0.4-1.6v-4.6V30l0-0.5
			c0-0.4,0-0.7-0.1-1.1H144.5z"/>
		<path class="st0" d="M150.9,35.7c0.7,0.6,1.5,0.9,2.3,0.9c1,0,1.8-0.6,1.8-1.5c0-0.2,0-0.4-0.1-0.6c-0.2-0.3-0.3-0.5-1-0.9
			l-0.6-0.4l-0.2-0.1l-0.8-0.5c-0.8-0.5-1.3-1.2-1.3-2c0-1.4,1.2-2.3,2.9-2.3c0.4,0,0.9,0,1.4,0.2l0.4,0.1c0.1,0,0.2,0,0.4,0l0.1,1
			c-0.8-0.5-1.4-0.8-2.1-0.8c-0.9,0-1.6,0.6-1.6,1.4c0,0.2,0.1,0.4,0.2,0.6c0.2,0.4,0.6,0.7,1.6,1.2c0.4,0.2,0.7,0.4,0.9,0.5
			c0.3,0.1,0.5,0.3,0.7,0.5c0.4,0.4,0.7,0.9,0.7,1.5c0,1.5-1.4,2.6-3.2,2.6c-0.7,0-1.3-0.2-2.3-0.6L150.9,35.7z"/>
		<path class="st0" d="M156.4,37c0.3-0.4,0.3-0.5,0.6-1.1c0.2-0.4,0.2-0.5,0.3-0.7l0.5-1.1c0.6-1.4,1.1-2.9,1.5-3.8
			c0.3-0.7,0.3-1,0.3-1.3c0-0.2,0-0.4-0.1-0.6h1.5l1.5,3.4l0.4,0.9c0.6,1.4,0.9,2.1,1,2.3c0.4,0.8,0.6,1.3,1.1,2h-1.9
			c0-0.3-0.1-0.4-0.1-0.5c-0.1-0.2-0.2-0.7-0.4-1.1l0-0.1l0-0.1l-0.9-2h-2.7l-0.7,2c-0.2,0.6-0.4,1.1-0.4,1.4c0,0.1,0,0.2,0,0.4
			H156.4z M160,29.7l-1.1,3h2.3L160,29.7z"/>
		<path class="st0" d="M165.1,36.9c0.7-1.1,1-2.6,1-4.2s-0.4-3.2-1-4.2c-0.2-0.3-0.3-0.5-0.7-1c1.8,1,3,3,3,5.2s-1.2,4.2-3,5.2
			C164.7,37.4,164.9,37.2,165.1,36.9z"/>
		<path class="st0" d="M31.5,39.4c0.1,0,0.5,0,0.9,0c0.5,0,0.8-0.1,1-0.1c1.4,0,2.3,0.8,2.3,1.9s-0.8,2.1-2.3,2.4l2,2.6
			c0.2,0.2,0.4,0.5,0.6,0.7c0.3,0.3,0.6,0.5,0.9,0.7c0.2,0.1,0.3,0.2,0.6,0.4h-1c-0.8,0-0.9,0-1.2-0.2c-0.2-0.1-0.6-0.5-0.9-0.8
			l-1.7-2.1l-0.3-0.4c-0.2-0.3-0.3-0.4-0.7-0.6v2.4v0.2v0.3v0.3c0,0.5,0,0.7,0.2,1.1h-1.7c0.1-0.3,0.1-0.4,0.1-0.5c0-0.2,0-0.7,0-1
			v0v-0.2v-5V41c0-0.1,0-0.2,0-0.3c0-0.5,0-0.5,0-0.8c0-0.2-0.1-0.3-0.1-0.6H31.5z M31.8,43.3c0.1,0,0.2,0,0.3,0
			c1.3,0,2.2-0.8,2.2-2c0-1-0.6-1.6-1.5-1.6c-0.2,0-0.6,0-1,0.1V43.3z"/>
		<path class="st0" d="M42,47.2c-0.6,0.6-1.3,0.9-2,0.9c-1.6,0-2.7-1.2-2.7-3c0-1.9,1.1-3.2,2.7-3.2c1.2,0,2.2,1,2.2,2
			c0,0.2-0.1,0.3-0.4,0.3h-0.3h-2.9c0,0.3-0.1,0.5-0.1,0.7c0,1.5,0.6,2.4,1.8,2.4c0.6,0,1.3-0.3,1.8-0.8L42,47.2z M38.7,43.7h1.5
			c0.5,0,0.7-0.1,0.7-0.5c0-0.5-0.4-0.9-0.9-0.9C39.3,42.3,38.9,42.8,38.7,43.7z"/>
		<path class="st0" d="M46.2,47.2c-0.4,0.6-1,0.9-1.7,0.9c-0.9,0-1.5-0.6-1.5-1.4c0-0.6,0.4-1.1,1.2-1.5l0.8-0.4
			c0.5-0.3,0.9-0.5,1-0.7c0.1-0.1,0.1-0.3,0.1-0.6c0-0.3,0-0.6,0-0.8c-0.1-0.4-0.4-0.6-0.9-0.6c-0.4,0-0.8,0.2-0.8,0.5l-0.1,0.4
			c-0.1,0.3-0.3,0.5-0.6,0.5c-0.3,0-0.6-0.2-0.6-0.5c0-0.7,1.1-1.3,2.3-1.3c0.5,0,0.9,0.1,1.3,0.2c0.5,0.2,0.7,0.5,0.7,1.3v0.1v0.3
			v2.9v0v0.1c0,0,0,0.2,0,0.4c0,0.4,0,0.5,0.1,0.8h-1.3L46.2,47.2z M46.2,44.6c-0.3,0.2-0.5,0.3-0.9,0.6c-0.6,0.3-0.8,0.5-0.9,0.8
			c-0.1,0.2-0.1,0.4-0.1,0.5c0,0.5,0.3,0.9,0.8,0.9c0.4,0,0.8-0.2,1-0.6c0.1-0.2,0.1-0.2,0.1-0.6V44.6z"/>
		<path class="st0" d="M52.5,40.7v-0.1l0-0.4v-0.4c0-0.1,0-0.2,0-0.4h1.2v7.3c0,0,0,0.1,0,0.2v0.4c0,0.4,0,0.5,0.1,0.8h-1.3v-0.9
			c-0.4,0.7-0.9,1-1.6,1c-1.3,0-2.2-1.2-2.2-3c0-2,1.1-3.3,2.7-3.3c0.4,0,0.7,0.1,1.2,0.3V40.7z M50,44.8l0,0.1
			c-0.1,1.5,0.5,2.3,1.4,2.3c0.4,0,0.8-0.3,1-0.6c0.2-0.3,0.2-0.6,0.2-1.2v-0.1v-1.1v-0.4c0-0.7,0-0.9-0.2-1.1
			c-0.2-0.3-0.5-0.4-0.9-0.4C50.5,42.3,50.1,43.2,50,44.8z"/>
		<path class="st0" d="M59.6,47.2c-0.6,0.6-1.3,0.9-2,0.9c-1.6,0-2.7-1.2-2.7-3c0-1.9,1.1-3.2,2.7-3.2c1.2,0,2.2,1,2.2,2
			c0,0.2-0.1,0.3-0.4,0.3h-0.3h-2.9c0,0.3-0.1,0.5-0.1,0.7c0,1.5,0.6,2.4,1.8,2.4c0.6,0,1.3-0.3,1.8-0.8L59.6,47.2z M56.4,43.7h1.5
			c0.5,0,0.7-0.1,0.7-0.5c0-0.5-0.4-0.9-0.9-0.9C57,42.3,56.5,42.8,56.4,43.7z"/>
		<path class="st0" d="M60.9,48c0.1-0.3,0.1-0.5,0.1-0.8l0-0.4v-0.2v-3.3v-0.2l0-0.4c0-0.2,0-0.3,0-0.4c0-0.1,0-0.2-0.1-0.4h1.3v0.9
			c0.4-0.6,1-1.1,1.5-1.1h0.1c-0.1,0.3-0.1,0.4-0.1,0.7c0,0.3,0,0.4-0.1,0.8c-0.3-0.2-0.5-0.3-0.7-0.3c-0.4,0-0.7,0.5-0.7,1.3v2.4
			v0.1v0.1c0,0.1,0,0.2,0,0.4c0,0.2,0,0.3,0,0.3c0,0.2,0,0.3,0.1,0.5H60.9z"/>
		<path class="st0" d="M63.9,46.9c0.2,0.1,0.2,0.2,0.4,0.3c0.4,0.3,1.1,0.5,1.5,0.5c0.6,0,1-0.4,1-0.9c0-0.2,0-0.3-0.1-0.5
			c-0.1-0.1-0.1-0.2-0.3-0.3c-0.2-0.2-0.3-0.3-1-0.7c-1.1-0.6-1.4-1.1-1.4-1.8c0-1,0.9-1.7,2.1-1.7c0.3,0,0.4,0,0.9,0.1
			c0.3,0,0.4,0.1,0.5,0.1c0.1,0,0.1,0,0.2,0l0.2,0.9c-0.5-0.3-1.2-0.6-1.6-0.6c-0.5,0-0.9,0.3-0.9,0.8c0,0.4,0.3,0.8,1.2,1.3
			c0.8,0.4,0.9,0.5,1.1,0.8c0.3,0.3,0.4,0.7,0.4,1.1c0,1.1-0.9,1.9-2.4,1.9c-0.5,0-1-0.1-1.6-0.3L63.9,46.9z"/>
		<path class="st0" d="M68.9,41.9c0.1-0.2,0.2-0.4,0.3-0.5c0.1-0.1,0.1-0.2,0.1-0.4c0-0.4-0.2-0.6-0.5-0.9l0.9-1l1,1
			c-0.1,0.6-0.3,0.9-0.6,1.3c-0.2,0.2-0.4,0.4-0.6,0.6c-0.3,0.2-0.4,0.3-0.8,0.5C68.7,42.2,68.8,42,68.9,41.9z"/>
		<path class="st0" d="M81.3,40.6c-0.7-0.5-1.5-0.8-2.3-0.8c-1.6,0-2.6,1.4-2.6,3.8c0,2.3,1.1,3.8,2.8,3.8c0.9,0,1.6-0.4,2.4-1.3
			l-0.3,1.1c-0.7,0.6-1.6,0.9-2.5,0.9c-2.2,0-3.9-1.9-3.9-4.4c0-2.6,1.8-4.5,4.1-4.5c0.3,0,0.8,0.1,1.3,0.1c0.2,0,0.3,0,0.4,0.1
			l0.2,0c0.1,0,0.1,0,0.2,0c0,0,0.1,0,0.1,0L81.3,40.6z"/>
		<path class="st0" d="M82.5,48c0.1-0.3,0.1-0.4,0.1-0.8v-0.4v0v-0.2v-5.9v-0.1v-0.2l0-0.2c0-0.4,0-0.5-0.1-0.8h1.3v3.3
			c0.6-0.6,1.2-0.9,1.9-0.9c1,0,1.7,0.6,1.7,1.4V44v2.7v0v0.1l0,0.4c0,0.4,0,0.5,0.1,0.8h-1.3v-3.9v0l0-0.4c0-0.6-0.4-1-1-1
			c-0.4,0-0.8,0.2-1.1,0.4c-0.2,0.2-0.3,0.4-0.3,0.6c0,0,0,0.1,0,0.5v2.5v0l0,0.1v0.4c0,0.3,0,0.3,0,0.4c0,0.1,0,0.2,0.1,0.4H82.5z"
			/>
		<path class="st0" d="M88.6,45c0-1.9,1.2-3.2,2.9-3.2c1.8,0,2.8,1.2,2.8,3.1c0,1.9-1.2,3.3-2.9,3.3c-1.6,0-2.7-1.1-2.8-2.8
			C88.6,45.2,88.6,45.1,88.6,45z M90,44.3c0,0.1,0,0.2,0,0.3c0,1.8,0.7,3,1.6,3c0.9,0,1.4-0.9,1.4-2.5c0-1.7-0.6-2.8-1.6-2.8
			C90.6,42.3,90.1,43,90,44.3z"/>
		<path class="st0" d="M96.2,39.7c0.4,0,0.8,0.3,0.8,0.8c0,0.4-0.3,0.7-0.8,0.7c-0.4,0-0.8-0.3-0.8-0.8C95.4,40,95.7,39.7,96.2,39.7
			z M95.4,48c0-0.2,0-0.3,0.1-0.4c0-0.1,0-0.2,0-0.4v-0.4v-0.1v-3.3v-0.2v-0.4l0-0.4c0-0.1,0-0.2-0.1-0.4h1.3v4.7v0.1v0v0v0.3
			c0,0.5,0,0.5,0.1,0.8H95.4z"/>
		<path class="st0" d="M102,42l0,0.9c-0.3-0.3-0.7-0.5-1.2-0.5c-1,0-1.6,0.9-1.6,2.4c0,1.5,0.6,2.4,1.7,2.4c0.3,0,0.7-0.1,1-0.3
			c0.1-0.1,0.2-0.1,0.4-0.3l-0.2,0.8c-0.5,0.4-1.1,0.6-1.6,0.6c-1.5,0-2.5-1.3-2.5-3.1c0-1.9,1.1-3.2,2.6-3.2c0.3,0,0.7,0,1,0.1
			c0.2,0,0.2,0,0.3,0H102z"/>
		<path class="st0" d="M107.6,47.2c-0.6,0.6-1.3,0.9-2,0.9c-1.6,0-2.7-1.2-2.7-3c0-1.9,1.1-3.2,2.7-3.2c1.2,0,2.2,1,2.2,2
			c0,0.2-0.1,0.3-0.4,0.3h-0.3h-2.9c0,0.3-0.1,0.5-0.1,0.7c0,1.5,0.6,2.4,1.8,2.4c0.6,0,1.3-0.3,1.8-0.8L107.6,47.2z M104.4,43.7
			h1.5c0.5,0,0.7-0.1,0.7-0.5c0-0.5-0.4-0.9-0.9-0.9C105,42.3,104.5,42.8,104.4,43.7z"/>
		<path class="st0" d="M111.5,48c0.3-0.4,0.3-0.5,0.6-1.1c0.2-0.4,0.2-0.5,0.3-0.7l0.5-1.1c0.6-1.4,1.1-2.9,1.5-3.8
			c0.3-0.7,0.3-1,0.3-1.3c0-0.2,0-0.4-0.1-0.6h1.5l1.5,3.4l0.4,0.9c0.6,1.4,0.9,2.1,1,2.3c0.4,0.8,0.6,1.3,1.1,2H118
			c0-0.3-0.1-0.4-0.1-0.5c-0.1-0.2-0.2-0.7-0.4-1.1l0-0.1l0-0.1l-0.9-2h-2.7l-0.7,2c-0.2,0.6-0.4,1.1-0.4,1.4c0,0.1,0,0.2,0,0.4
			H111.5z M115.1,40.7l-1.1,3h2.3L115.1,40.7z"/>
		<path class="st0" d="M120.7,41.9c0,0.2,0,0.3,0.1,0.4c0,0,0,0,0,0c0,0,0,0.1,0.1,0.4l0.1,0.4l0,0.1l1,3.4l1-3.4
			c0-0.6-0.1-0.9-0.3-1.3l0,0h1.7c-0.1,0.1-0.1,0.3-0.1,0.5c0,0.2,0,0.3,0.1,0.7l1,3.6l1-3.4l0-0.1l0,0c0-0.1,0.1-0.2,0.1-0.4
			c0-0.2,0.1-0.4,0.1-0.5c0-0.1,0-0.2,0-0.4h1c-0.1,0.2-0.2,0.3-0.2,0.4c0,0.1-0.1,0.2-0.2,0.4c-0.1,0.2-0.1,0.3-0.1,0.4l0,0.1
			l0,0.1l-1.5,4.7h-1.1l-1.2-4.2l-1.2,4.2h-1.1l-1.3-4.7l0-0.1c0-0.1,0-0.1-0.1-0.4c-0.1-0.4-0.2-0.5-0.3-0.8H120.7z"/>
		<path class="st0" d="M130.9,47.2c-0.4,0.6-1,0.9-1.7,0.9c-0.9,0-1.5-0.6-1.5-1.4c0-0.6,0.4-1.1,1.2-1.5l0.8-0.4
			c0.5-0.3,0.9-0.5,1-0.7c0.1-0.1,0.1-0.3,0.1-0.6c0-0.3,0-0.6,0-0.8c-0.1-0.4-0.4-0.6-0.9-0.6c-0.4,0-0.8,0.2-0.8,0.5l-0.1,0.4
			c-0.1,0.3-0.3,0.5-0.6,0.5c-0.3,0-0.6-0.2-0.6-0.5c0-0.7,1.1-1.3,2.3-1.3c0.5,0,0.9,0.1,1.3,0.2c0.5,0.2,0.7,0.5,0.7,1.3v0.1v0.3
			v2.9v0v0.1c0,0,0,0.2,0,0.4c0,0.4,0,0.5,0.1,0.8h-1.3L130.9,47.2z M130.9,44.6c-0.3,0.2-0.5,0.3-0.9,0.6c-0.6,0.3-0.8,0.5-0.9,0.8
			c-0.1,0.2-0.1,0.4-0.1,0.5c0,0.5,0.3,0.9,0.8,0.9c0.4,0,0.8-0.2,1-0.6c0.1-0.2,0.1-0.2,0.1-0.6V44.6z"/>
		<path class="st0" d="M133.4,48c0.1-0.3,0.1-0.5,0.1-0.8l0-0.4v-0.2v-3.3v-0.2l0-0.4c0-0.2,0-0.3,0-0.4c0-0.1,0-0.2-0.1-0.4h1.3
			v0.9c0.4-0.6,1-1.1,1.5-1.1h0.1c-0.1,0.3-0.1,0.4-0.1,0.7c0,0.3,0,0.4-0.1,0.8c-0.3-0.2-0.5-0.3-0.7-0.3c-0.4,0-0.7,0.5-0.7,1.3
			v2.4v0.1v0.1c0,0.1,0,0.2,0,0.4c0,0.2,0,0.3,0,0.3c0,0.2,0,0.3,0.1,0.5H133.4z"/>
		<path class="st0" d="M140.4,40.7v-0.1l0-0.4v-0.4c0-0.1,0-0.2,0-0.4h1.2v7.3c0,0,0,0.1,0,0.2v0.4c0,0.4,0,0.5,0.1,0.8h-1.3v-0.9
			c-0.4,0.7-0.9,1-1.6,1c-1.3,0-2.2-1.2-2.2-3c0-2,1.1-3.3,2.7-3.3c0.4,0,0.7,0.1,1.2,0.3V40.7z M137.8,44.8l0,0.1
			c-0.1,1.5,0.5,2.3,1.4,2.3c0.4,0,0.8-0.3,1-0.6c0.2-0.3,0.2-0.6,0.2-1.2v-0.1v-1.1v-0.4c0-0.7,0-0.9-0.2-1.1
			c-0.2-0.3-0.5-0.4-0.9-0.4C138.4,42.3,138,43.2,137.8,44.8z"/>
		<path class="st0" d="M142.6,46.9c0.2,0.1,0.2,0.2,0.4,0.3c0.4,0.3,1.1,0.5,1.5,0.5c0.6,0,1-0.4,1-0.9c0-0.2,0-0.3-0.1-0.5
			c-0.1-0.1-0.1-0.2-0.3-0.3c-0.2-0.2-0.3-0.3-1-0.7c-1.1-0.6-1.4-1.1-1.4-1.8c0-1,0.9-1.7,2.1-1.7c0.3,0,0.4,0,0.9,0.1
			c0.3,0,0.4,0.1,0.5,0.1c0.1,0,0.1,0,0.2,0l0.2,0.9c-0.5-0.3-1.2-0.6-1.6-0.6c-0.5,0-0.9,0.3-0.9,0.8c0,0.4,0.3,0.8,1.2,1.3
			c0.8,0.4,0.9,0.5,1.1,0.8c0.3,0.3,0.4,0.7,0.4,1.1c0,1.1-0.9,1.9-2.4,1.9c-0.5,0-1-0.1-1.6-0.3L142.6,46.9z"/>
		<path class="st0" d="M151,48c0.1-0.2,0.2-0.3,0.3-0.4c0.5-0.6,1-1.2,1.4-1.6c0.9-1.2,1.7-2.3,2.1-3c0.3-0.5,0.4-1,0.4-1.4
			c0-0.9-0.5-1.5-1.4-1.5c-0.7,0-1.3,0.3-1.9,1l0.1-1.2c0.7-0.4,1.5-0.7,2.3-0.7c1.4,0,2.3,0.8,2.3,2c0,0.6-0.2,1.2-0.8,2
			c-0.3,0.5-0.7,1-1.1,1.5c-0.5,0.6-1.1,1.3-1.5,1.8l-0.3,0.4h2.4c0.8,0,1.3-0.2,1.8-0.6l-0.4,1.7H151z"/>
		<path class="st0" d="M161.2,39.2c1.2,0,2,0.6,2.5,1.6c0.3,0.7,0.4,1.5,0.4,2.7c0,0.6,0,1.2-0.1,1.8c-0.3,1.8-1.3,2.9-2.9,2.9
			c-1.1,0-2-0.6-2.5-1.5c-0.3-0.7-0.5-1.6-0.5-2.9C158.1,40.8,159.1,39.2,161.2,39.2z M159.5,43.7l0,0.1c0,2.6,0.5,3.8,1.6,3.8
			c1.1,0,1.6-1.2,1.6-4c0-2.7-0.4-3.9-1.5-3.9c-0.7,0-1.2,0.5-1.4,1.5C159.6,41.9,159.5,42.8,159.5,43.7z"/>
		<path class="st0" d="M164.9,48c0.1-0.2,0.2-0.3,0.3-0.4c0.5-0.6,1-1.2,1.4-1.6c0.9-1.2,1.7-2.3,2.1-3c0.3-0.5,0.4-1,0.4-1.4
			c0-0.9-0.5-1.5-1.4-1.5c-0.7,0-1.3,0.3-1.9,1l0.1-1.2c0.7-0.4,1.5-0.7,2.3-0.7c1.4,0,2.3,0.8,2.3,2c0,0.6-0.2,1.2-0.8,2
			c-0.3,0.5-0.7,1-1.1,1.5c-0.5,0.6-1.1,1.3-1.5,1.8l-0.3,0.4h2.4c0.8,0,1.3-0.2,1.8-0.6l-0.4,1.7H164.9z"/>
		<path class="st0" d="M172.1,46.5c0.2,0.2,0.3,0.3,0.5,0.4c0.5,0.3,1,0.4,1.4,0.4c1,0,1.8-0.8,1.8-1.8c0-1.2-0.7-1.8-2.3-2.2
			c1.3-0.4,1.9-1.1,1.9-2c0-0.7-0.5-1.2-1.2-1.2c-0.4,0-0.8,0.1-1.4,0.5l0.3-0.9c0.6-0.3,1.2-0.4,1.8-0.4c1.2,0,1.9,0.6,1.9,1.6
			c0,0.5-0.3,1.1-0.7,1.6c-0.1,0.1-0.3,0.3-0.5,0.4c-0.2,0.1-0.3,0.2-0.6,0.4c1.5,0.4,2.3,1.3,2.3,2.4c0,1.5-1.2,2.6-2.8,2.6
			c-0.7,0-1.5-0.2-2-0.6L172.1,46.5z"/>
	</g>
</g>
<g>
	<g>
		<path class="st0" d="M36.4,10.9c0.1-0.3,0.1-0.4,0.1-0.6c0-0.2,0-0.4,0-0.6c0-0.3,0-0.4,0-0.6v0V8.8V2.9V2.8V2.7V2.3
			c0-0.5,0-0.9-0.2-1.5c0.4,0,0.5,0,0.9,0c0.6,0,1.1,0,1.5,0L40,0.7c0.1,0,0.3,0,0.4,0c1.5,0,2.5,0.8,2.5,2c0,1.1-0.8,2.1-2.2,2.5
			c1.8,0.2,2.7,1.1,2.7,2.6c0,1.4-0.9,2.5-2.2,2.9c-0.4,0.1-0.8,0.2-1.3,0.2c-0.3,0-0.9,0-1.4,0H36.4z M38.3,1.4v3.7
			c0.2,0,0.2,0,0.4,0c1.6,0,2.6-0.8,2.6-2.1c0-1.1-0.7-1.6-2.1-1.6h-0.2l-0.5,0L38.3,1.4z M38.3,5.8V9c0,0.6,0,0.7,0.1,0.9
			c0.1,0.3,0.4,0.5,1,0.5c1.4,0,2.3-0.9,2.3-2.3c0-0.7-0.2-1.2-0.6-1.6c-0.5-0.5-1-0.6-2.1-0.6C38.7,5.7,38.6,5.7,38.3,5.8z"/>
		<path class="st0" d="M44.6,10.9c0.1-0.2,0.1-0.3,0.1-0.4c0-0.2,0-0.4,0.1-0.6c0-0.4,0-0.6,0-0.6v-7c0-0.5,0-0.7-0.1-1.2l0-0.1h5.6
			l0.2,1c-0.6-0.2-1.3-0.4-2.2-0.4h-1.8v3.8h1.3c0.7,0,1.2-0.1,1.8-0.3v1.2c-0.5-0.2-1-0.3-1.8-0.3h-1.3v4.3h2.2c0.5,0,0.8,0,1,0
			c0.5,0,0.9-0.1,1.5-0.4l-0.6,1.1H44.6z"/>
		<path class="st0" d="M51.6,9.3c0.8,0.7,1.8,1.1,2.7,1.1c1.2,0,2.1-0.8,2.1-1.8c0-0.3-0.1-0.5-0.2-0.7c-0.2-0.4-0.4-0.6-1.1-1
			l-0.7-0.4l-0.2-0.1l-0.9-0.5c-0.9-0.5-1.5-1.5-1.5-2.4c0-1.6,1.4-2.7,3.3-2.7c0.4,0,1.1,0.1,1.6,0.2l0.4,0.1c0.2,0,0.3,0,0.4,0
			l0.1,1.2c-0.9-0.6-1.6-0.9-2.4-0.9c-1.1,0-1.9,0.7-1.9,1.7c0,0.3,0.1,0.5,0.2,0.7c0.3,0.5,0.7,0.8,1.9,1.4c0.5,0.3,0.8,0.4,1,0.6
			C56.7,5.8,57,6,57.2,6.3C57.7,6.7,58,7.4,58,8c0,1.7-1.7,3.1-3.8,3.1c-0.8,0-1.6-0.2-2.7-0.7L51.6,9.3z"/>
		<path class="st0" d="M57.4,0.8h8l0.2,1c-0.2-0.1-0.3-0.1-0.4-0.1c-0.6-0.1-1.3-0.2-1.8-0.2h-1.2v7.8c0,0.5,0.1,1.1,0.2,1.6h-1.9
			c0.1-0.6,0.2-1.1,0.2-1.6V1.4h-1.2c-0.6,0-1.4,0.1-2.2,0.3L57.4,0.8z"/>
		<path class="st0" d="M70.4,10.9c0.1-0.3,0.1-0.4,0.2-0.6c0-0.2,0-0.4,0-0.6l0-0.6V8.9v0V2.9V2.5c0-0.6,0-0.8,0-1
			c0-0.2-0.1-0.4-0.2-0.7h2c-0.1,0.3-0.1,0.5-0.2,0.7c0,0.2,0,0.4,0,1.1v0.2v0.2v5.9V9l0,0.6c0,0.6,0,0.8,0.2,1.3H70.4z"/>
		<path class="st0" d="M75.5,0.8l5.6,7.6V2.9V2.7V2.5V2.1c0-0.5,0-0.8-0.2-1.3h1.1C82,1.3,82,1.8,82,2.1v0v0.6v0.2v8h-1.1l-6-8.1
			v6.1V9v0.2l0,0.4c0,0.5,0.1,0.8,0.2,1.3h-1.1c0.2-0.6,0.2-0.8,0.2-1.6V9l0-0.2V2.8c0-0.6,0-0.8-0.1-1.3C74,1.1,73.9,1,73.8,0.8
			H75.5z"/>
		<path class="st0" d="M83.1,0.8h8l0.2,1c-0.2-0.1-0.3-0.1-0.4-0.1c-0.6-0.1-1.3-0.2-1.8-0.2h-1.2v7.8c0,0.5,0.1,1.1,0.2,1.6h-1.9
			c0.1-0.6,0.2-1.1,0.2-1.6V1.4h-1.2c-0.6,0-1.4,0.1-2.2,0.3L83.1,0.8z"/>
		<path class="st0" d="M92,10.9c0.1-0.2,0.1-0.3,0.1-0.4c0-0.2,0-0.4,0.1-0.6c0-0.4,0-0.6,0-0.6v-7c0-0.5,0-0.7-0.1-1.2l0-0.1h5.6
			l0.2,1c-0.6-0.2-1.3-0.4-2.2-0.4h-1.8v3.8h1.3c0.7,0,1.2-0.1,1.8-0.3v1.2c-0.5-0.2-1-0.3-1.8-0.3h-1.3v4.3h2.2c0.5,0,0.8,0,1,0
			c0.5,0,0.9-0.1,1.5-0.4L98,10.9H92z"/>
		<path class="st0" d="M100.7,0.8c0.2,0,0.6,0,1.1-0.1c0.6-0.1,0.9-0.1,1.1-0.1c1.7,0,2.7,0.9,2.7,2.3s-1,2.4-2.6,2.9l2.4,3
			c0.2,0.3,0.5,0.6,0.7,0.8c0.3,0.3,0.7,0.6,1,0.9c0.2,0.2,0.4,0.2,0.7,0.4h-1.2c-0.9,0-1,0-1.4-0.2c-0.3-0.1-0.7-0.6-1-1l-2-2.5
			l-0.4-0.5c-0.2-0.3-0.4-0.4-0.8-0.7v2.7V9v0.3v0.3c0,0.5,0,0.8,0.2,1.3h-2c0.1-0.3,0.1-0.4,0.1-0.6c0-0.2,0-0.8,0-1.2V9V8.8V2.9
			V2.7c0-0.1,0-0.2,0-0.4c0-0.5,0-0.6,0-0.9c0-0.2-0.1-0.3-0.2-0.7H100.7z M101.1,5.5c0.2,0,0.3,0,0.4,0c1.5,0,2.5-0.9,2.5-2.3
			c0-1.1-0.7-1.8-1.8-1.8c-0.3,0-0.7,0-1.1,0.1V5.5z"/>
		<path class="st0" d="M109.2,0.8l5.6,7.6V2.9V2.7V2.5V2.1c0-0.5,0-0.8-0.2-1.3h1.1c-0.1,0.5-0.2,1-0.2,1.3v0v0.6v0.2v8h-1.1l-6-8.1
			v6.1V9v0.2l0,0.4c0,0.5,0.1,0.8,0.2,1.3h-1.1c0.2-0.6,0.2-0.8,0.2-1.6V9l0-0.2V2.8c0-0.6,0-0.8-0.1-1.3c-0.1-0.4-0.1-0.5-0.2-0.7
			H109.2z"/>
		<path class="st0" d="M116.4,10.9c0.3-0.5,0.4-0.6,0.7-1.3c0.2-0.5,0.2-0.5,0.3-0.8l0.5-1.3c0.7-1.7,1.3-3.4,1.7-4.5
			c0.3-0.8,0.4-1.2,0.4-1.5c0-0.2,0-0.4-0.2-0.7h1.7l1.7,4l0.4,1.1c0.7,1.6,1,2.4,1.1,2.7c0.4,1,0.7,1.5,1.3,2.3H124
			c0-0.3-0.1-0.5-0.1-0.6c-0.1-0.3-0.3-0.8-0.5-1.3l0-0.1l0-0.1l-1-2.4h-3.2l-0.8,2.3c-0.3,0.7-0.4,1.3-0.4,1.6c0,0.1,0,0.3,0,0.5
			H116.4z M120.6,2.4l-1.3,3.5h2.7L120.6,2.4z"/>
		<path class="st0" d="M124,0.8h8l0.2,1c-0.2-0.1-0.3-0.1-0.4-0.1c-0.6-0.1-1.3-0.2-1.8-0.2h-1.2v7.8c0,0.5,0.1,1.1,0.2,1.6h-1.9
			c0.1-0.6,0.2-1.1,0.2-1.6V1.4h-1.2c-0.6,0-1.4,0.1-2.2,0.3L124,0.8z"/>
		<path class="st0" d="M132.9,10.9c0.1-0.3,0.1-0.4,0.2-0.6c0-0.2,0-0.4,0-0.6l0-0.6V8.9v0V2.9V2.5c0-0.6,0-0.8,0-1
			c0-0.2-0.1-0.4-0.2-0.7h2c-0.1,0.3-0.1,0.5-0.2,0.7c0,0.2,0,0.4,0,1.1v0.2v0.2v5.9V9l0,0.6c0,0.6,0,0.8,0.2,1.3H132.9z"/>
		<path class="st0" d="M141.2,0.7c2.8,0,4.8,2.1,4.8,5.1c0,3-2.1,5.2-4.9,5.2c-1.5,0-2.6-0.5-3.5-1.6c-0.9-1-1.2-2.1-1.2-3.5
			C136.3,2.9,138.3,0.7,141.2,0.7z M138.1,5.9c0,2.7,1.2,4.5,3,4.5c1.8,0,3-1.7,3-4.4c0-2.8-1.1-4.6-3-4.6
			C139.2,1.3,138.1,3,138.1,5.9z"/>
		<path class="st0" d="M148.9,0.8l5.6,7.6V2.9V2.7V2.5V2.1c0-0.5,0-0.8-0.2-1.3h1.1c-0.1,0.5-0.2,1-0.2,1.3v0v0.6v0.2v8h-1.1l-6-8.1
			v6.1V9v0.2l0,0.4c0,0.5,0.1,0.8,0.2,1.3h-1.1c0.2-0.6,0.2-0.8,0.2-1.6V9l0-0.2V2.8c0-0.6,0-0.8-0.1-1.3c-0.1-0.4-0.1-0.5-0.2-0.7
			H148.9z"/>
		<path class="st0" d="M156.1,10.9c0.3-0.5,0.4-0.6,0.7-1.3c0.2-0.5,0.2-0.5,0.4-0.8l0.5-1.3c0.7-1.7,1.3-3.4,1.7-4.5
			c0.3-0.8,0.4-1.2,0.4-1.5c0-0.2,0-0.4-0.2-0.7h1.7l1.7,4l0.4,1.1c0.7,1.6,1,2.4,1.1,2.7c0.4,1,0.7,1.5,1.3,2.3h-2.2
			c0-0.3-0.1-0.5-0.1-0.6c-0.1-0.3-0.3-0.8-0.5-1.3l0-0.1l0-0.1l-1-2.4h-3.2L158,8.8c-0.3,0.7-0.4,1.3-0.4,1.6c0,0.1,0,0.3,0,0.5
			H156.1z M160.3,2.4l-1.3,3.5h2.7L160.3,2.4z"/>
		<path class="st0" d="M166.3,10.9c0.1-0.5,0.2-0.9,0.2-1.5V2.3c0-0.2,0-0.4,0-0.7c0-0.4,0-0.5-0.1-0.8h1.9
			c-0.1,0.4-0.1,0.9-0.1,1.3v8h1.7c0.8,0,1.6-0.1,2.4-0.4l-0.5,1.1H166.3z"/>
		<path class="st0" d="M79.6,24.9c0.3-0.5,0.4-0.6,0.7-1.3c0.2-0.5,0.2-0.5,0.4-0.8l0.5-1.3c0.7-1.7,1.3-3.4,1.7-4.5
			c0.3-0.8,0.4-1.2,0.4-1.5c0-0.2,0-0.4-0.2-0.7h1.7l1.7,4l0.4,1.1c0.7,1.6,1,2.4,1.1,2.7c0.4,1,0.7,1.5,1.3,2.3h-2.2
			c0-0.3-0.1-0.5-0.1-0.6C87,24,86.8,23.5,86.6,23l0-0.1l0-0.1l-1-2.4h-3.2l-0.8,2.3c-0.3,0.7-0.4,1.3-0.4,1.6c0,0.1,0,0.3,0,0.5
			H79.6z M83.8,16.4l-1.3,3.5h2.7L83.8,16.4z"/>
		<path class="st0" d="M89.7,24.9c0.1-0.3,0.1-0.4,0.2-0.6c0-0.2,0-0.4,0-0.6l0-0.6v-0.1v0v-5.9v-0.4c0-0.6,0-0.8,0-1
			c0-0.2-0.1-0.4-0.2-0.7h2c-0.1,0.3-0.1,0.5-0.2,0.7c0,0.2,0,0.4,0,1.1v0.2v0.2v5.9V23l0,0.6c0,0.6,0,0.8,0.2,1.3H89.7z"/>
		<path class="st0" d="M94.7,14.8c0.2,0,0.6,0,1.1-0.1c0.6-0.1,0.9-0.1,1.1-0.1c1.7,0,2.7,0.9,2.7,2.3s-1,2.4-2.6,2.9l2.4,3
			c0.2,0.3,0.5,0.6,0.7,0.8c0.3,0.3,0.7,0.6,1,0.9c0.2,0.2,0.4,0.2,0.7,0.4h-1.2c-0.9,0-1.1,0-1.4-0.2c-0.3-0.1-0.7-0.6-1-1l-2-2.5
			l-0.4-0.5c-0.2-0.3-0.4-0.4-0.8-0.7v2.7V23v0.3v0.3c0,0.5,0,0.8,0.2,1.3h-2c0.1-0.3,0.1-0.4,0.1-0.6c0-0.2,0-0.8,0-1.2V23v-0.2
			v-5.9v-0.2c0-0.1,0-0.2,0-0.4c0-0.5,0-0.6,0-0.9c0-0.2-0.1-0.3-0.2-0.7H94.7z M95,19.5c0.2,0,0.3,0,0.4,0c1.5,0,2.5-0.9,2.5-2.3
			c0-1.1-0.7-1.8-1.8-1.8c-0.3,0-0.7,0-1.1,0.1V19.5z"/>
		<path class="st0" d="M101.6,24.9c0.1-0.5,0.2-0.9,0.2-1.5v-7.1c0-0.2,0-0.4,0-0.7c0-0.4,0-0.5-0.1-0.8h1.9
			c-0.1,0.4-0.1,0.9-0.1,1.3v8h1.7c0.8,0,1.6-0.1,2.4-0.4l-0.5,1.1H101.6z"/>
		<path class="st0" d="M108.2,24.9c0.1-0.3,0.1-0.4,0.2-0.6c0-0.2,0-0.4,0-0.6l0-0.6v-0.1v0v-5.9v-0.4c0-0.6,0-0.8,0-1
			c0-0.2-0.1-0.4-0.2-0.7h2c-0.1,0.3-0.1,0.5-0.2,0.7c0,0.2,0,0.4,0,1.1v0.2v0.2v5.9V23l0,0.6c0,0.6,0,0.8,0.2,1.3H108.2z"/>
		<path class="st0" d="M113.3,14.8l5.6,7.6v-5.5v-0.2v-0.2v-0.4c0-0.5,0-0.8-0.2-1.3h1.1c-0.1,0.5-0.2,1-0.2,1.3v0v0.6v0.2v8h-1
			l-6-8.1v6.1V23v0.2l0,0.4c0,0.5,0.1,0.8,0.2,1.3h-1.1c0.2-0.6,0.2-0.8,0.2-1.6V23l0-0.2v-6.1c0-0.6,0-0.8-0.1-1.3
			c-0.1-0.4-0.1-0.5-0.2-0.7H113.3z"/>
		<path class="st0" d="M121.5,24.9c0.1-0.2,0.1-0.3,0.1-0.4c0-0.2,0-0.4,0.1-0.6c0-0.4,0-0.6,0-0.6v-7c0-0.5,0-0.7-0.1-1.2l0-0.1
			h5.6l0.2,1c-0.6-0.2-1.3-0.4-2.2-0.4h-1.8v3.8h1.3c0.7,0,1.2-0.1,1.8-0.3v1.2c-0.5-0.2-1-0.3-1.8-0.3h-1.3v4.3h2.2
			c0.5,0,0.8,0,1,0c0.5,0,0.9-0.1,1.5-0.4l-0.6,1.1H121.5z"/>
	</g>
</g>
<g>
	<g>
		<path class="st0" d="M8.8,12.5c0.3-1.6,0.6-2.7,0.6-2.7c0.1-1.2-0.3-1.9-0.9-2.2C7.8,7,6.1,6.1,6.1,6.1S6,7,5.7,8.6
			C6,8.8,7,9.9,7.8,10.4C8.4,10.7,8.8,11.3,8.8,12.5z"/>
		<path class="st0" d="M10,9c0.7-1.3,1.2-2.2,1.2-2.2c0.4-1,0.2-1.7-0.1-2.1c-0.5-0.6-1.6-2-1.6-2S9.1,3.5,8.4,4.8
			c0.2,0.2,0.9,1.4,1.4,2C10.1,7.3,10.3,8,10,9z"/>
		<path class="st0" d="M12,5.1c0.6-0.9,1.2-1.5,1.2-1.5c0.4-0.7,0.4-1.2,0.1-1.6c-0.3-0.5-1-1.6-1-1.6s-0.4,0.6-1,1.4
			C11.4,2,11.8,3,12.1,3.5C12.3,3.9,12.4,4.4,12,5.1z"/>
		<path class="st0" d="M15.6,42.5c-1.2,1.3-4.1,4.2-4.1,4.2s2,0.8,5.1,2c0.5-0.5,2.9-3,4.1-4.2c1-1,2.2-1.5,4.4-1
			c-2.7-1.1-4.7-1.9-4.7-1.9C18.1,40.9,16.6,41.5,15.6,42.5z"/>
		<path class="st0" d="M6,12.4C4.9,12,2.3,11,2.3,11s0.1,1.5,0.2,3.6c0.4,0.2,2.2,1.2,3.3,1.7c0.9,0.3,1.7,1.1,2,2.6
			C7.7,16.8,7.7,15,7.7,15C7.5,13.5,6.8,12.7,6,12.4z"/>
		<path class="st0" d="M8.4,34c-1.6,0.7-5.3,2.4-5.3,2.4s1.6,1.5,4,3.7c0.6-0.3,3.9-1.8,5.4-2.3c1.2-0.5,2.6-0.5,4.5,0.7
			c-2.1-2-3.7-3.4-3.7-3.4C11.3,33.5,9.8,33.5,8.4,34z"/>
		<path class="st0" d="M8.6,24.8c-0.5-2.1-0.9-3.5-0.9-3.5c-0.6-1.8-1.6-2.3-2.5-2.5c-1.4-0.2-4.3-0.7-4.3-0.7s0.4,1.6,1,3.9
			c0.5,0.1,3,0.5,4.2,0.7C7,22.8,7.9,23.3,8.6,24.8z"/>
		<path class="st0" d="M11.5,31.6c-1.4-2.2-2.3-3.8-2.3-3.8c-1.4-1.8-2.7-2.1-4-2C3.6,26,0,26.6,0,26.6s1.1,1.7,2.6,4.2
			c0.6-0.1,3.8-0.6,5.2-0.8C9,29.8,10.2,30.2,11.5,31.6z"/>
	</g>
	<g>
		<path class="st0" d="M199.2,12.5c-0.3-1.6-0.6-2.7-0.6-2.7c-0.1-1.2,0.3-1.9,0.9-2.2c0.7-0.5,2.3-1.6,2.3-1.6s0.2,1.1,0.5,2.5
			c-0.3,0.2-1.4,1.3-2.1,1.8C199.6,10.7,199.2,11.3,199.2,12.5L199.2,12.5z"/>
		<path class="st0" d="M197.9,9c-0.7-1.3-1.2-2.2-1.2-2.2c-0.4-1-0.2-1.7,0.1-2.1c0.5-0.6,1.6-2,1.6-2s0.4,0.9,1.1,2
			c-0.2,0.2-0.9,1.5-1.4,2C197.9,7.3,197.7,8,197.9,9L197.9,9z"/>
		<path class="st0" d="M196,5.1c-0.6-0.9-1.1-1.5-1.1-1.5c-0.4-0.7-0.4-1.2-0.1-1.6c0.3-0.5,0.9-1.6,0.9-1.6s0.4,0.6,1,1.4
			c-0.1,0.2-0.5,1.2-0.8,1.7C195.6,3.9,195.6,4.4,196,5.1z"/>
		<path class="st0" d="M192.4,42.5c1.2,1.3,4.1,4.2,4.1,4.2s-2,0.8-5.1,2c-0.5-0.5-2.9-3-4.1-4.2c-1-1-2.2-1.5-4.4-1
			c2.8-1.1,4.7-1.9,4.7-1.9C189.9,40.9,191.4,41.5,192.4,42.5L192.4,42.5z"/>
		<path class="st0" d="M201.9,12.4c1.1-0.4,3.6-1.4,3.6-1.4s-0.1,1.5-0.2,3.6c-0.4,0.2-2.2,1.2-3.3,1.7c-0.9,0.3-1.7,1.1-2,2.6
			c0.1-2.1,0.1-3.9,0.1-3.9C200.4,13.5,201.2,12.7,201.9,12.4L201.9,12.4z"/>
		<path class="st0" d="M199.5,34c1.6,0.7,5.3,2.3,5.3,2.3s-1.6,1.5-4,3.7c-0.6-0.3-3.9-1.8-5.4-2.3c-1.2-0.5-2.6-0.5-4.5,0.7
			c2.1-2,3.7-3.4,3.7-3.4C196.7,33.5,198.2,33.5,199.5,34z"/>
		<path class="st0" d="M199.4,24.8c0.6-2.1,0.9-3.5,0.9-3.5c0.6-1.8,1.6-2.3,2.5-2.5c1.3-0.2,4.2-0.7,4.2-0.7s-0.4,1.6-1,3.9
			c-0.5,0.1-3,0.5-4.2,0.7C201,22.8,200.1,23.3,199.4,24.8z"/>
		<path class="st0" d="M196.5,31.6c1.4-2.2,2.3-3.8,2.3-3.8c1.4-1.8,2.7-2.1,4-2c1.6,0.2,5.2,0.8,5.2,0.8s-1.1,1.7-2.6,4.2
			c-0.6-0.1-3.8-0.6-5.2-0.8C199,29.8,197.8,30.2,196.5,31.6z"/>
	</g>
</g>
</svg>
