<svg width="65" height="64" viewBox="0 0 65 64" fill="none" xmlns="http://www.w3.org/2000/svg">
    <path d="M32.6 38.945a4.313 4.313 0 0 1-4.308-4.308V30.43a.625.625 0 1 1 1.25 0v4.207a3.062 3.062 0 0 0 3.058 3.058 3.062 3.062 0 0 0 3.058-3.058V30.82a.625.625 0 1 1 1.25 0v3.816a4.313 4.313 0 0 1-4.308 4.308z" fill="#003A4E"/>
    <path d="M32.6 56.69a1.943 1.943 0 0 1-1.722-1.04c-2.302-4.368-6.166-13.248-6.166-23.65 0-.267.003-.532.008-.797a.625.625 0 0 1 .625-.613h.012c.345.007.62.292.613.637-.005.257-.008.514-.008.773 0 10.133 3.773 18.801 6.022 23.066a.687.687 0 0 0 .616.373c.262 0 .493-.14.616-.373 1.725-3.272 4.764-9.974 5.724-18.098a.624.624 0 1 1 1.241.147c-.984 8.324-4.093 15.185-5.86 18.534a1.942 1.942 0 0 1-1.721 1.04zM39.717 29.15a.625.625 0 0 1-.622-.574c-.724-8.764-3.995-16.07-5.88-19.645a.685.685 0 0 0-.615-.372.685.685 0 0 0-.615.372c-1.498 2.84-4.192 8.676-5.401 15.845a.625.625 0 1 1-1.233-.208c1.239-7.34 3.995-13.313 5.528-16.22a1.942 1.942 0 0 1 1.72-1.04 1.94 1.94 0 0 1 1.721 1.04c1.93 3.66 5.278 11.14 6.02 20.125a.625.625 0 0 1-.623.676zM18.681 17.553c0 1.372-.588 2.035-1.269 2.804-.52.587-1.11 1.252-1.4 2.253a.625.625 0 1 0 1.201.347c.211-.73.66-1.235 1.134-1.771.743-.838 1.584-1.787 1.584-3.633 0-1.847-.841-2.796-1.584-3.633-.68-.769-1.269-1.432-1.269-2.804 0-1.372.588-2.035 1.27-2.804.742-.837 1.584-1.786 1.584-3.632a.625.625 0 1 0-1.25 0c0 1.372-.589 2.035-1.27 2.803-.742.838-1.584 1.787-1.584 3.633s.842 2.795 1.584 3.633c.681.768 1.27 1.432 1.27 2.804zM19.931 43.302c0-1.847-.841-2.796-1.583-3.634-.681-.768-1.27-1.432-1.27-2.804 0-1.372.589-2.036 1.27-2.804.091-.103.182-.206.272-.311a.625.625 0 1 0-.948-.814c-.085.1-.172.197-.26.296-.742.837-1.584 1.787-1.584 3.633 0 1.847.842 2.796 1.584 3.634.681.768 1.27 1.432 1.27 2.804 0 1.372-.589 2.036-1.27 2.805-.742.837-1.584 1.787-1.584 3.633 0 1.847.842 2.797 1.584 3.634.681.769 1.27 1.433 1.27 2.805a.625.625 0 1 0 1.25 0c0-1.847-.842-2.796-1.584-3.634-.681-.768-1.27-1.432-1.27-2.805 0-1.372.588-2.036 1.27-2.804.742-.838 1.584-1.788 1.584-3.634zM14.206 4.68a.625.625 0 1 0-1.25 0c0 1.372-.588 2.035-1.27 2.803-.742.838-1.583 1.787-1.583 3.633s.841 2.795 1.584 3.633c.68.768 1.269 1.432 1.269 2.804 0 1.372-.588 2.035-1.27 2.804-.258.292-.526.594-.767.942a.625.625 0 0 0 1.028.711c.198-.286.43-.548.675-.824.742-.838 1.584-1.787 1.584-3.633 0-1.847-.842-2.796-1.584-3.633-.681-.769-1.27-1.432-1.27-2.804 0-1.372.589-2.035 1.27-2.804.742-.837 1.584-1.786 1.584-3.632zM14.206 43.302c0-1.847-.841-2.796-1.584-3.633-.681-.769-1.27-1.433-1.27-2.805s.589-2.036 1.27-2.804c.172-.194.35-.394.52-.61a.625.625 0 0 0-.98-.776 13.03 13.03 0 0 1-.476.557c-.742.838-1.583 1.787-1.583 3.633 0 1.847.841 2.796 1.584 3.634.68.768 1.269 1.432 1.269 2.804 0 1.372-.588 2.036-1.27 2.805-.742.837-1.583 1.787-1.583 3.633 0 1.847.841 2.797 1.584 3.634.68.769 1.269 1.433 1.269 2.805a.625.625 0 1 0 1.25 0c0-1.847-.841-2.796-1.584-3.634-.681-.768-1.27-1.432-1.27-2.805 0-1.372.589-2.036 1.27-2.804.742-.838 1.584-1.787 1.584-3.634zM49.372 11.116c0-1.846-.842-2.795-1.584-3.633-.681-.768-1.27-1.431-1.27-2.803a.625.625 0 1 0-1.25 0c0 1.846.842 2.795 1.585 3.632.68.769 1.269 1.432 1.269 2.804 0 1.372-.588 2.035-1.27 2.804-.742.837-1.583 1.786-1.583 3.633 0 1.846.841 2.795 1.583 3.633.682.768 1.27 1.432 1.27 2.804 0 1.372-.588 2.036-1.27 2.804-.742.838-1.583 1.787-1.583 3.633 0 .669.109 1.26.333 1.809a.626.626 0 1 0 1.157-.473 3.475 3.475 0 0 1-.24-1.336c0-1.372.588-2.036 1.269-2.804.742-.838 1.584-1.787 1.584-3.633 0-1.847-.842-2.796-1.584-3.634-.681-.768-1.27-1.432-1.27-2.804 0-1.372.589-2.035 1.27-2.804.743-.837 1.584-1.786 1.584-3.632zM46.519 43.303c0-.312.03-.594.09-.86a.625.625 0 0 0-1.219-.28c-.08.355-.121.739-.121 1.14 0 1.847.841 2.796 1.583 3.634.682.768 1.27 1.432 1.27 2.805 0 1.372-.588 2.036-1.27 2.805-.742.837-1.583 1.787-1.583 3.633a.625.625 0 1 0 1.25 0c0-1.372.588-2.036 1.269-2.804.742-.838 1.584-1.787 1.584-3.634s-.842-2.797-1.584-3.634c-.681-.77-1.27-1.433-1.27-2.805zM52.244 17.553c0-1.372.588-2.036 1.27-2.804.742-.838 1.583-1.787 1.583-3.633s-.841-2.795-1.584-3.633c-.68-.768-1.269-1.431-1.269-2.803a.625.625 0 1 0-1.25 0c0 1.846.842 2.795 1.584 3.632.681.769 1.27 1.432 1.27 2.804 0 1.372-.589 2.035-1.27 2.804-.742.837-1.584 1.786-1.584 3.633 0 1.846.842 2.795 1.584 3.633.681.768 1.27 1.432 1.27 2.804 0 1.372-.589 2.036-1.27 2.804-.742.838-1.584 1.787-1.584 3.633 0 1.847.842 2.796 1.584 3.633a.623.623 0 0 0 .882.054.625.625 0 0 0 .053-.883c-.68-.768-1.269-1.432-1.269-2.804 0-1.372.588-2.036 1.27-2.804.742-.837 1.583-1.787 1.583-3.633 0-1.847-.841-2.796-1.584-3.633-.68-.769-1.269-1.432-1.269-2.804zM52.244 43.303a.625.625 0 1 0-1.25 0c0 1.847.842 2.796 1.584 3.634.681.768 1.27 1.432 1.27 2.804 0 1.373-.589 2.037-1.27 2.805-.743.838-1.584 1.787-1.584 3.634a.625.625 0 1 0 1.25 0c0-1.373.588-2.036 1.27-2.805.742-.837 1.583-1.787 1.583-3.634 0-1.846-.841-2.796-1.584-3.633-.68-.77-1.269-1.433-1.269-2.805z" fill="#003A4E"/>
    <path d="m44.824 35.897-3.586-1.014 1.09-4.19c.273-.97-.363-2.054-1.344-2.287l-3.776-.982a4.595 4.595 0 0 0-1.277-2.666 3.44 3.44 0 0 0-3.331-2.6 3.441 3.441 0 0 0-3.33 2.596 4.476 4.476 0 0 0-.304.346l-3.823-.993a1.88 1.88 0 0 0-2.285 1.343l-1.026 3.947-3.852-1.088a.624.624 0 1 0-.34 1.202l3.877 1.096c-.87 2.653 2.99 3.736 3.61 1.02l12.187 3.446c-.667 2.468 2.892 3.472 3.61 1.02l3.56 1.006a.63.63 0 0 0 .17.025c.711 0 .863-1.03.17-1.227zM32.6 23.408a2.19 2.19 0 0 1 2.188 2.188c-.115 2.901-4.262 2.9-4.376 0a2.19 2.19 0 0 1 2.188-2.188zm-7.159 7.01.575-2.21 1.939.505v.982c0 .582.371 1.103.924 1.298 2.427.854 4.887.868 7.317.043l2.03.527-.598 2.3-12.186-3.445zm13.98 5.758c-.458.288-1.074-.178-.922-.697l1.094-4.206a.629.629 0 0 0-.448-.762l-2.823-.734a.627.627 0 0 0-.419.037c-2.193.77-4.416.77-6.61 0a.129.129 0 0 1-.088-.12V28.23a.625.625 0 0 0-.468-.605l-3.012-.783a.625.625 0 0 0-.762.448l-1.094 4.206a.621.621 0 0 1-.288.381c-.453.289-1.078-.178-.921-.696l1.408-5.416a.626.626 0 0 1 .762-.447l4.237 1.1a.622.622 0 0 0 .203.018c.83 3.227 5.296 3.507 6.527.42.12.34.188.7.194 1.072.005.28.197.523.468.593l4.211 1.095a.628.628 0 0 1 .448.763l-1.408 5.416a.622.622 0 0 1-.289.382z" fill="#003A4E"/>
    <path d="M51.454 41.533a3.08 3.08 0 0 1-.888-.132l-6.454-1.95a.625.625 0 0 1-.418-.778l1.407-4.66a.624.624 0 0 1 .78-.418l6.454 1.95a3.039 3.039 0 0 1 1.812 1.482c.386.72.468 1.547.232 2.33a3.039 3.039 0 0 1-1.483 1.811 3.048 3.048 0 0 1-1.442.365zm-6.383-3.098 5.856 1.769c.463.14.952.09 1.378-.138.426-.228.737-.609.877-1.071.14-.463.091-.952-.138-1.378a1.797 1.797 0 0 0-1.07-.877l-5.857-1.768-1.046 3.463zM16.96 31.835a.632.632 0 0 1-.18-.026l-6.455-1.95a3.063 3.063 0 0 1-2.044-3.812 3.037 3.037 0 0 1 1.483-1.812 3.041 3.041 0 0 1 2.33-.232l6.454 1.949c.33.1.518.449.418.779l-1.408 4.66a.625.625 0 0 1-.597.444zm-5.753-6.714a1.8 1.8 0 0 0-.852.216 1.811 1.811 0 0 0 .332 3.326l5.856 1.768 1.046-3.463-5.856-1.769a1.827 1.827 0 0 0-.526-.078z" fill="#003A4E"/>
</svg>
